SplineFontDB: 3.0
FontName: Pro-BoldCond
FullName: Pro Bold Condensed
FamilyName: Pro
Weight: Bold
Copyright: 
Version: 0.001
ItalicAngle: 0
UnderlinePosition: -100
UnderlineWidth: 50
Ascent: 750
Descent: 250
InvalidEm: 0
sfntRevision: 0x00000048
LayerCount: 2
Layer: 0 0 "+BBcEMAQ0BD0EOAQ5 +BD8EOwQwBD0A" 1
Layer: 1 0 "+BB8ENQRABDUENAQ9BDgEOQAA +BD8EOwQwBD0A" 0
XUID: [1021 157 1657886286 16364]
BaseHoriz: 2 'ideo' 'romn'
BaseScript: 'DFLT' 1  -163 0
BaseScript: 'cyrl' 1  -163 0
BaseScript: 'grek' 1  -163 0
BaseScript: 'latn' 1  -163 0
StyleMap: 0x0020
FSType: 8
OS2Version: 4
OS2_WeightWidthSlopeOnly: 1
OS2_UseTypoMetrics: 1
CreationTime: 1300968463
ModificationTime: 1555197884
PfmFamily: 17
TTFWeight: 700
TTFWidth: 3
LineGap: 200
VLineGap: 0
Panose: 2 11 7 6 3 4 3 2 2 4
OS2TypoAscent: 750
OS2TypoAOffset: 0
OS2TypoDescent: -250
OS2TypoDOffset: 0
OS2TypoLinegap: 200
OS2WinAscent: 958
OS2WinAOffset: 0
OS2WinDescent: 250
OS2WinDOffset: 0
HheadAscent: 750
HheadAOffset: 0
HheadDescent: -250
HheadDOffset: 0
OS2SubXSize: 650
OS2SubYSize: 600
OS2SubXOff: 0
OS2SubYOff: 75
OS2SupXSize: 650
OS2SupYSize: 600
OS2SupXOff: 0
OS2SupYOff: 350
OS2StrikeYSize: 50
OS2StrikeYPos: 290
OS2CapHeight: 674
OS2XHeight: 484
OS2Vendor: '    '
OS2CodePages: 2000019f.00000000
OS2UnicodeRanges: 20000287.00000001.00000000.00000000
Lookup: 1 0 0 "'aalt' +BBIEQQQ1 +BDAEOwRMBEIENQRABD0EMARCBDgEMgQ9BEsENQAA +BDIEMARABDgEMAQ9BEIESwAA lookup 0" { "'aalt' +BBIEQQQ1 +BDAEOwRMBEIENQRABD0EMARCBDgEMgQ9BEsENQAA +BDIEMARABDgEMAQ9BEIESwAA lookup 0 subtable"  } ['aalt' ('DFLT' <'dflt' > 'cyrl' <'dflt' > 'grek' <'dflt' > 'latn' <'AZE ' 'CRT ' 'MOL ' 'ROM ' 'TRK ' 'dflt' > ) ]
Lookup: 3 0 0 "'aalt' +BBIEQQQ1 +BDAEOwRMBEIENQRABD0EMARCBDgEMgQ9BEsENQAA +BDIEMARABDgEMAQ9BEIESwAA lookup 1" { "'aalt' +BBIEQQQ1 +BDAEOwRMBEIENQRABD0EMARCBDgEMgQ9BEsENQAA +BDIEMARABDgEMAQ9BEIESwAA lookup 1 subtable"  } ['aalt' ('DFLT' <'dflt' > 'cyrl' <'dflt' > 'grek' <'dflt' > 'latn' <'AZE ' 'CRT ' 'MOL ' 'ROM ' 'TRK ' 'dflt' > ) ]

StartChar: .notdef
Encoding: 65536 -1 0
Width: 599
Flags: HW
HStem: 0 40<130 470> 630 70<140 460>
VStem: 50 60<235 585> 50 50<85 435> 490 60<235 585> 500 50<85 435>
LayerCount: 2
Fore
SplineSet
50 0 m 1xd4
 50 700 l 1
 550 700 l 1
 550 0 l 1
 50 0 l 1xd4
300 395 m 5
 460 630 l 1
 140 630 l 1
 300 395 l 5
330 350 m 5
 500 85 l 1xc4
 490 585 l 1xc8
 330 350 l 5
130 40 m 1
 470 40 l 1
 300 305 l 5
 130 40 l 1
110 585 m 1xe0
 100 85 l 1xd0
 270 350 l 5
 110 585 l 1xe0
EndSplineSet
EndChar

StartChar: exclam
Encoding: 33 33 2
Width: 235
Flags: HW
HStem: -14 159<54 185> 654 20G<45 188>
VStem: 45 143<461.667 674> 54 131<129.1 140 219 269.556>
LayerCount: 2
Fore
SplineSet
54 145 m 1xd0
 185 140 l 1
 185 -19 l 1
 44 -14 l 1
 54 145 l 1xd0
182 219 m 1
 60 219 l 1
 45 674 l 1
 188 674 l 1xe0
 182 219 l 1
EndSplineSet
EndChar

StartChar: quotedbl
Encoding: 34 34 3
Width: 355
Flags: HW
HStem: 422 273 666 20G<45 159.44>
VStem: 58 95<436 566.615> 213 84<425 557>
LayerCount: 2
Fore
SplineSet
45 682 m 1x70
 160 686 l 5
 153 436 l 5
 58 432 l 1
 45 682 l 1x70
205 695 m 1xb0
 311 692 l 1
 297 422 l 1
 213 425 l 1
 205 695 l 1xb0
EndSplineSet
EndChar

StartChar: numbersign
Encoding: 35 35 4
Width: 564
Flags: HW
HStem: -8 21G<84.7822 159.463> 195 75<36 103.439 192 253 342.409 412> 637 20G<145.063 239 308.446 402>
VStem: 229 68.7939<9.20625 43.4167>
LayerCount: 2
Fore
SplineSet
228 387 m 1
 343 385 l 1
 344 280 l 1
 226 282 l 1
 228 387 l 1
33 494 m 1
 148 492 l 1
 149 387 l 1
 31 389 l 1
 33 494 l 1
415 490 m 1
 530 488 l 1
 531 383 l 1
 413 385 l 1
 415 490 l 1
33 284 m 1
 148 282 l 1
 149 177 l 1
 31 179 l 1
 33 284 l 1
415 280 m 1
 530 278 l 1
 531 173 l 1
 413 175 l 1
 415 280 l 1
132 663 m 1
 247 661 l 1
 248 6 l 1
 130 8 l 1
 132 663 l 1
328 650 m 1
 443 648 l 1
 444 -7 l 1
 326 -5 l 1
 328 650 l 1
EndSplineSet
Substitution2: "'onum' Oldstyle Figures lookup 14 subtable" numbersign.taboldstyle
Substitution2: "'aalt' +BBIEQQQ1 +BDAEOwRMBEIENQRABD0EMARCBDgEMgQ9BEsENQAA +BDIEMARABDgEMAQ9BEIESwAA lookup 0 subtable" numbersign.taboldstyle
EndChar

StartChar: dollar
Encoding: 36 36 5
Width: 507
Flags: HW
HStem: 17 96<57.2693 143> 523 110<242 327.672>
VStem: 37 123<410.71 513.423> 148 85<-80 17> 239 117<126.041 230.01>
LayerCount: 2
Fore
SplineSet
153 384 m 1
 352 386 l 1
 350 272 l 1
 154 275 l 1
 153 384 l 1
332 284 m 1
 461 286 l 1
 459 172 l 1
 333 175 l 1
 332 284 l 1
245 188 m 1
 359 186 l 1
 359 -112 l 1
 246 -109 l 1
 245 188 l 1
70 108 m 1
 258 109 l 1
 258 -6 l 1
 70 -7 l 1
 70 108 l 1
33 484 m 1
 162 486 l 1
 160 372 l 1
 34 375 l 1
 33 484 l 1
256 797 m 1
 257 471 l 1
 142 471 l 1
 142 800 l 1
 180.232421875 799.651367188 224 799 256 797 c 1
246 683 m 1
 422 683 l 1
 422 565 l 1
 246 567 l 1
 246 683 l 1
EndSplineSet
Substitution2: "'onum' Oldstyle Figures lookup 14 subtable" dollar.taboldstyle
Substitution2: "'subs' +BB0EOAQ2BD0EOAQ5 +BDgEPQQ0BDUEOgRB lookup 13 subtable" dollar.inferior
Substitution2: "'sups' +BBIENQRABEUEPQQ4BDkA +BDgEPQQ0BDUEOgRB lookup 12 subtable" dollar.superior
Substitution2: "'dnom' Denominators lookup 6 subtable" dollar.denominator
Substitution2: "'numr' Numerators lookup 5 subtable" dollar.numerator
AlternateSubs2: "'aalt' +BBIEQQQ1 +BDAEOwRMBEIENQRABD0EMARCBDgEMgQ9BEsENQAA +BDIEMARABDgEMAQ9BEIESwAA lookup 1 subtable" dollar.numerator dollar.denominator dollar.superior dollar.inferior dollar.taboldstyle
EndChar

StartChar: percent
Encoding: 37 37 6
Width: 700
Flags: HW
HStem: -6 70<496.062 566.107> 273 79<502.079 567.403> 289 70<137.977 199.204> 589 79<139.42 204.948> 658 20G<481.943 526>
VStem: 41 88<362.22 584.772> 213 91<365.81 585.454> 399 88<71.3754 265.254> 574 88<67.5938 271.594>
LayerCount: 2
Fore
SplineSet
173 668 m 0xb780
 279 668 304 653 304 550 c 0
 304 528 303 502 301 471 c 0
 291 302 277 291 172 289 c 0
 165 289 159 289 153 289 c 0
 41 289 41 309 41 466 c 0
 41 656 88 668 173 668 c 0xb780
172 589 m 0
 171 589 169 589 168 589 c 0
 142 589 129 586 129 469 c 0
 129 361 140 359 169 359 c 0
 170 359 171 359 172 359 c 0
 203 359 213 387 213 468 c 0
 213 583 204 589 172 589 c 0
201 -38 m 1
 142 -18 l 1
 492 678 l 1x8f80
 560 638 l 1
 201 -38 l 1
534 352 m 0xc780
 537 352 541 352 544 352 c 0
 633 352 659 349 662 186 c 0
 662 182 662 178 662 174 c 0
 662 -1 598 -5 533 -6 c 0
 524 -6 516 -6 508 -6 c 0
 420 -6 399 9 399 98 c 0
 399 121 400 148 402 181 c 0
 412 339 427 352 534 352 c 0xc780
533 273 m 0
 504 273 497 271 490 184 c 0
 488 162 487 143 487 128 c 0
 487 77 499 65 533 64 c 0
 535 64 538 64 540 64 c 0
 565 64 574 73 574 183 c 0
 574 273 565 273 533 273 c 0
EndSplineSet
Substitution2: "'onum' Oldstyle Figures lookup 14 subtable" percent.oldstyle
Substitution2: "'aalt' +BBIEQQQ1 +BDAEOwRMBEIENQRABD0EMARCBDgEMgQ9BEsENQAA +BDIEMARABDgEMAQ9BEIESwAA lookup 0 subtable" percent.oldstyle
EndChar

StartChar: ampersand
Encoding: 38 38 7
Width: 519
Flags: HW
HStem: -14 101<187.067 347.551> 560 122<225.787 427.52>
VStem: 38 137<96.7468 277.473> 78 136<433.359 548.804> 366 112<127.375 293.039>
LayerCount: 2
Fore
SplineSet
433 542 m 1xd8
 399 554 318 560 299 560 c 0
 243 560 214 558 214 481 c 0xd8
 214 416 232 426 478 401 c 1
 468 -68 l 1
 346 -63 l 1
 348 4 l 1
 334 3 279 -7 269 -8 c 0
 243 -12 219 -14 198 -14 c 0
 95 -14 38 34 38 192 c 0xe8
 38 340 73 335 152 351 c 1
 152 353 l 1
 84 370 78 378 78 506 c 0
 78 670 138 682 266 682 c 0
 305 682 410 668 455 653 c 1
 433 542 l 1xd8
358 104 m 5
 366 291 l 5
 327 295 295 297 270 297 c 4
 188 297 175 271 175 186 c 4xe8
 175 113 182 87 233 87 c 4
 246 87 262 89 282 92 c 4
 288 93 348 103 358 104 c 5
EndSplineSet
EndChar

StartChar: quoteright
Encoding: 8217 8217 8
Width: 260
Flags: HW
HStem: 400 284
VStem: 41 180
LayerCount: 2
Fore
SplineSet
108 684 m 1
 221 672 l 1
 108 400 l 5
 41 421 l 1
 108 684 l 1
EndSplineSet
EndChar

StartChar: parenleft
Encoding: 40 40 9
Width: 279
Flags: HW
HStem: 682 20G<116 248>
VStem: 39 103<129.815 523.421>
LayerCount: 2
Fore
SplineSet
153 503 m 5
 154 77 l 5
 43 75 l 5
 43 504 l 5
 81.232421875 503.651367188 121 505 153 503 c 5
253 83 m 5
 254 -133 l 5
 143 -135 l 5
 143 84 l 5
 181.232421875 83.6513671875 221 85 253 83 c 5
253 703 m 5
 254 487 l 5
 143 485 l 5
 143 704 l 5
 181.232421875 703.651367188 221 705 253 703 c 5
EndSplineSet
Substitution2: "'subs' +BB0EOAQ2BD0EOAQ5 +BDgEPQQ0BDUEOgRB lookup 13 subtable" parenleft.inferior
Substitution2: "'sups' +BBIENQRABEUEPQQ4BDkA +BDgEPQQ0BDUEOgRB lookup 12 subtable" parenleft.superior
Substitution2: "'dnom' Denominators lookup 6 subtable" parenleft.denominator
Substitution2: "'numr' Numerators lookup 5 subtable" parenleft.numerator
Substitution2: "'case' +BCAENQQzBDgEQQRCBEAEPgQ3BDAEMgQ4BEEEOAQ8BEsENQAA +BEQEPgRABDwESwAA lookup 4 subtable" parenleft.cap
AlternateSubs2: "'aalt' +BBIEQQQ1 +BDAEOwRMBEIENQRABD0EMARCBDgEMgQ9BEsENQAA +BDIEMARABDgEMAQ9BEIESwAA lookup 1 subtable" parenleft.cap parenleft.numerator parenleft.denominator parenleft.superior parenleft.inferior
EndChar

StartChar: parenright
Encoding: 41 41 10
Width: 279
Flags: HW
HStem: 682 20G<32 164>
VStem: 138 103<81.7217 457.624>
LayerCount: 2
Fore
SplineSet
243 503 m 1
 244 77 l 1
 133 75 l 1
 133 504 l 1
 171.232421875 503.651367188 211 505 243 503 c 1
141 83 m 1
 142 -133 l 1
 31 -135 l 1
 31 84 l 1
 69.232421875 83.6513671875 109 85 141 83 c 1
142 703 m 1
 143 487 l 1
 32 485 l 1
 32 704 l 1
 70.232421875 703.651367188 110 705 142 703 c 1
EndSplineSet
Substitution2: "'subs' +BB0EOAQ2BD0EOAQ5 +BDgEPQQ0BDUEOgRB lookup 13 subtable" parenright.inferior
Substitution2: "'sups' +BBIENQRABEUEPQQ4BDkA +BDgEPQQ0BDUEOgRB lookup 12 subtable" parenright.superior
Substitution2: "'dnom' Denominators lookup 6 subtable" parenright.denominator
Substitution2: "'numr' Numerators lookup 5 subtable" parenright.numerator
Substitution2: "'case' +BCAENQQzBDgEQQRCBEAEPgQ3BDAEMgQ4BEEEOAQ8BEsENQAA +BEQEPgRABDwESwAA lookup 4 subtable" parenright.cap
AlternateSubs2: "'aalt' +BBIEQQQ1 +BDAEOwRMBEIENQRABD0EMARCBDgEMgQ9BEsENQAA +BDIEMARABDgEMAQ9BEIESwAA lookup 1 subtable" parenright.cap parenright.numerator parenright.denominator parenright.superior parenright.inferior
EndChar

StartChar: asterisk
Encoding: 42 42 11
Width: 431
Flags: HW
HStem: 451 91<38 88.75 340.062 393> 656 20G<116.714 161.862> 672 20G<268.758 313.652>
LayerCount: 2
Fore
SplineSet
403 543 m 1
 404 437 l 1
 33 435 l 1
 33 544 l 1
 403 543 l 1
363 393 m 1
 364 297 l 1
 253 295 l 1
 253 394 l 1
 363 393 l 1
193 393 m 1
 194 287 l 1
 83 285 l 1
 83 394 l 1
 193 393 l 1
363 693 m 1
 364 587 l 1
 253 585 l 1
 253 694 l 1
 363 693 l 1
193 693 m 1
 194 597 l 1
 83 595 l 1
 83 694 l 1
 193 693 l 1
EndSplineSet
EndChar

StartChar: plus
Encoding: 43 43 12
Width: 586
Flags: HW
HStem: 216.044 91.9854<40 237.588 344.915 546>
VStem: 237.588 107.327<115.644 216.044 308.092 531.988>
LayerCount: 2
Fore
SplineSet
234.040039062 532.063476562 m 5
 349.185546875 531.98828125 l 1
 344.915039062 308.029296875 l 1
 546 308 l 1
 546 216 l 1
 343.352539062 216.043945312 l 1
 339.043945312 0.0849609375 l 1
 242.46484375 0.1298828125 l 5
 238.885742188 216.1015625 l 5
 40 216 l 1
 40 308 l 1
 237.587890625 308.091796875 l 5
 234.040039062 532.063476562 l 5
EndSplineSet
EndChar

StartChar: comma
Encoding: 44 44 13
Width: 283
Flags: HW
HStem: -136 308
VStem: 41 200
LayerCount: 2
Fore
SplineSet
145 -136 m 1
 41 -125 l 1
 108 172 l 1
 241 151 l 1
 145 -136 l 1
EndSplineSet
Substitution2: "'subs' +BB0EOAQ2BD0EOAQ5 +BDgEPQQ0BDUEOgRB lookup 13 subtable" comma.inferior
Substitution2: "'sups' +BBIENQRABEUEPQQ4BDkA +BDgEPQQ0BDUEOgRB lookup 12 subtable" comma.superior
Substitution2: "'dnom' Denominators lookup 6 subtable" comma.denominator
Substitution2: "'numr' Numerators lookup 5 subtable" comma.numerator
AlternateSubs2: "'aalt' +BBIEQQQ1 +BDAEOwRMBEIENQRABD0EMARCBDgEMgQ9BEsENQAA +BDIEMARABDgEMAQ9BEIESwAA lookup 1 subtable" comma.numerator comma.denominator comma.superior comma.inferior
EndChar

StartChar: hyphen
Encoding: 45 45 14
Width: 294
Flags: HW
HStem: 224 94<50 243>
VStem: 47 199
LayerCount: 2
Fore
SplineSet
47 318 m 1
 246 323 l 1
 243 229 l 5
 50 224 l 1
 47 318 l 1
EndSplineSet
Substitution2: "'subs' +BB0EOAQ2BD0EOAQ5 +BDgEPQQ0BDUEOgRB lookup 13 subtable" hyphen.inferior
Substitution2: "'sups' +BBIENQRABEUEPQQ4BDkA +BDgEPQQ0BDUEOgRB lookup 12 subtable" hyphen.superior
Substitution2: "'dnom' Denominators lookup 6 subtable" hyphen.denominator
Substitution2: "'numr' Numerators lookup 5 subtable" hyphen.numerator
Substitution2: "'case' +BCAENQQzBDgEQQRCBEAEPgQ3BDAEMgQ4BEEEOAQ8BEsENQAA +BEQEPgRABDwESwAA lookup 4 subtable" hyphen.cap
AlternateSubs2: "'aalt' +BBIEQQQ1 +BDAEOwRMBEIENQRABD0EMARCBDgEMgQ9BEsENQAA +BDIEMARABDgEMAQ9BEIESwAA lookup 1 subtable" endash emdash hyphen.cap hyphen.superior hyphen.inferior hyphen.numerator hyphen.denominator
EndChar

StartChar: period
Encoding: 46 46 15
Width: 248
Flags: HW
HStem: -11.1335 181.333<52.5936 197.938>
VStem: 49 152.327<-8.84294 168.041>
LayerCount: 2
Fore
SplineSet
49.2646484375 166 m 1
 68.4150390625 169.046875 93.818359375 170.19921875 118.958007812 170.19921875 c 0
 151.578125 170.19921875 183.756835938 168.258789062 201.264648438 166 c 1
 201.264648438 151.75 201.327148438 136.9375 201.327148438 121.953125 c 0
 201.327148438 77 200.764648438 30.5 196.264648438 -7 c 1
 180.586914062 -9.61328125 154.53125 -11.1337890625 126.947265625 -11.1337890625 c 0
 101.747070312 -11.1337890625 75.2705078125 -9.8642578125 54.2646484375 -7 c 1
 49.8095703125 32.4541015625 49 75.1484375 49 111.547851562 c 0
 49 132.346679688 49.2646484375 151.090820312 49.2646484375 166 c 1
EndSplineSet
Substitution2: "'subs' +BB0EOAQ2BD0EOAQ5 +BDgEPQQ0BDUEOgRB lookup 13 subtable" period.inferior
Substitution2: "'sups' +BBIENQRABEUEPQQ4BDkA +BDgEPQQ0BDUEOgRB lookup 12 subtable" period.superior
Substitution2: "'dnom' Denominators lookup 6 subtable" period.denominator
Substitution2: "'numr' Numerators lookup 5 subtable" period.numerator
AlternateSubs2: "'aalt' +BBIEQQQ1 +BDAEOwRMBEIENQRABD0EMARCBDgEMgQ9BEsENQAA +BDIEMARABDgEMAQ9BEIESwAA lookup 1 subtable" ellipsis period.superior period.inferior period.numerator period.denominator
EndChar

StartChar: slash
Encoding: 47 47 16
Width: 381
Flags: HW
VStem: 30 320
LayerCount: 2
Fore
SplineSet
115 -70 m 1
 30 -40 l 1
 244 712 l 1
 350 682 l 1
 115 -70 l 1
EndSplineSet
Substitution2: "'frac' Diagonal Fractions lookup 8 subtable" slash.frac
Substitution2: "'dnom' Denominators lookup 6 subtable" fraction
Substitution2: "'numr' Numerators lookup 5 subtable" fraction
Substitution2: "'aalt' +BBIEQQQ1 +BDAEOwRMBEIENQRABD0EMARCBDgEMgQ9BEsENQAA +BDIEMARABDgEMAQ9BEIESwAA lookup 0 subtable" fraction
EndChar

StartChar: zero
Encoding: 48 48 17
Width: 479
Flags: HW
HStem: -8 103.992<188.168 290.559> 548 124<191.714 292.901>
VStem: 50 130.348<105.32 541.155> 299 132.001<105.479 544.432>
LayerCount: 2
Fore
SplineSet
153 343 m 1
 258 345 l 1
 258 237 l 1
 154 236 l 1
 153 343 l 1
254 440 m 5
 359 442 l 5
 359 334 l 5
 255 333 l 5
 254 440 l 5
163 108 m 1
 331 109 l 1
 331 -6 l 1
 163 -7 l 1
 163 108 l 1
319 567 m 1
 434 565 l 1
 435 100 l 1
 317 102 l 1
 319 567 l 1
46 574 m 1
 175 576 l 1
 173 102 l 1
 47 105 l 1
 46 574 l 1
165 673 m 1
 331 673 l 1
 331 555 l 1
 165 557 l 1
 165 673 l 1
EndSplineSet
Substitution2: "'zero' Slashed Zero lookup 19 subtable" zero.slash
Substitution2: "'pnum' Proportional Numbers lookup 16 subtable" zero.fitted
Substitution2: "'onum' Oldstyle Figures lookup 14 subtable" zero.taboldstyle
Substitution2: "'subs' +BB0EOAQ2BD0EOAQ5 +BDgEPQQ0BDUEOgRB lookup 13 subtable" zero.inferior
Substitution2: "'sups' +BBIENQRABEUEPQQ4BDkA +BDgEPQQ0BDUEOgRB lookup 12 subtable" zero.superior
Substitution2: "'dnom' Denominators lookup 6 subtable" zero.denominator
Substitution2: "'numr' Numerators lookup 5 subtable" zero.numerator
AlternateSubs2: "'aalt' +BBIEQQQ1 +BDAEOwRMBEIENQRABD0EMARCBDgEMgQ9BEsENQAA +BDIEMARABDgEMAQ9BEIESwAA lookup 1 subtable" zero.fitted zero.oldstyle zero.taboldstyle zero.numerator zero.denominator zero.superior zero.inferior zero.slash
EndChar

StartChar: one
Encoding: 49 49 18
Width: 327
Flags: HW
HStem: -10.7402 21G<140.057 270.422> 631.374 20G<167.909 282.887>
VStem: 140.057 129.976<-8.20898 330.69> 150.341 132.546<289.34 489.691>
LayerCount: 2
Fore
SplineSet
167 551 m 5
 167 430 l 5
 37 430 l 5
 37 551 l 5
 167 551 l 5
140.056640625 -8.208984375 m 1xe0
 157.909179688 651.374023438 l 1
 282.88671875 648.134765625 l 1xd0
 270.032226562 -10.740234375 l 1
 140.056640625 -8.208984375 l 1xe0
EndSplineSet
Substitution2: "'pnum' Proportional Numbers lookup 16 subtable" one.fitted
Substitution2: "'onum' Oldstyle Figures lookup 14 subtable" one.taboldstyle
Substitution2: "'subs' +BB0EOAQ2BD0EOAQ5 +BDgEPQQ0BDUEOgRB lookup 13 subtable" one.inferior
Substitution2: "'sups' +BBIENQRABEUEPQQ4BDkA +BDgEPQQ0BDUEOgRB lookup 12 subtable" one.superior
Substitution2: "'dnom' Denominators lookup 6 subtable" one.denominator
Substitution2: "'numr' Numerators lookup 5 subtable" one.numerator
AlternateSubs2: "'aalt' +BBIEQQQ1 +BDAEOwRMBEIENQRABD0EMARCBDgEMgQ9BEsENQAA +BDIEMARABDgEMAQ9BEIESwAA lookup 1 subtable" one.fitted one.oldstyle one.taboldstyle one.numerator one.denominator one.superior one.inferior
EndChar

StartChar: two
Encoding: 50 50 19
Width: 433
Flags: HW
HStem: -10.4495 115.449<196.463 393.34> 539 119<69.1223 259.097>
VStem: 266 119<367.613 528.205>
LayerCount: 2
Fore
SplineSet
390 -10 m 1
 369.724609375 -10.310546875 349.9296875 -10.44921875 330.734375 -10.44921875 c 0
 164.375 -10.44921875 43 0 43 0 c 1
 38 88 l 1
 103 171 l 2
 220 321 266 367 266 460 c 0
 266 528 266 539 173 539 c 4
 151 539 113 534 65 516 c 1
 42 628 l 1
 91 644 160 658 197 658 c 0
 329 658 385 658 385 470 c 0
 385 348 357 318 234 163 c 2
 195 114 l 1
 195 112 l 1
 195 112 274 106 394 105 c 1
 395.291992188 93.0498046875 395.853515625 78.8056640625 395.853515625 64.35546875 c 0
 395.853515625 34.0625 393.384765625 2.86328125 390 -10 c 1
EndSplineSet
Substitution2: "'pnum' Proportional Numbers lookup 16 subtable" two.fitted
Substitution2: "'onum' Oldstyle Figures lookup 14 subtable" two.taboldstyle
Substitution2: "'subs' +BB0EOAQ2BD0EOAQ5 +BDgEPQQ0BDUEOgRB lookup 13 subtable" two.inferior
Substitution2: "'sups' +BBIENQRABEUEPQQ4BDkA +BDgEPQQ0BDUEOgRB lookup 12 subtable" two.superior
Substitution2: "'dnom' Denominators lookup 6 subtable" two.denominator
Substitution2: "'numr' Numerators lookup 5 subtable" two.numerator
AlternateSubs2: "'aalt' +BBIEQQQ1 +BDAEOwRMBEIENQRABD0EMARCBDgEMgQ9BEsENQAA +BDIEMARABDgEMAQ9BEIESwAA lookup 1 subtable" two.fitted two.oldstyle two.taboldstyle two.numerator two.denominator two.superior two.inferior
EndChar

StartChar: three
Encoding: 51 51 20
Width: 440
Flags: HW
HStem: -8 100<69.041 251.016> 291 109<123 228.74> 560 122<64.5627 234.213>
VStem: 246 136<417.488 548.804> 265 137<107.036 265.599>
LayerCount: 2
Fore
SplineSet
67 542 m 1xf0
 35 653 l 1
 80 668 155 682 194 682 c 0
 322 682 382 670 382 506 c 0xf0
 382 378 356 370 288 353 c 1
 288 351 l 1
 367 335 402 340 402 192 c 0
 402 0 302 -8 181 -8 c 4
 145 -8 78 0 45 12 c 5
 74 109 l 5
 103 98 148 92 168 92 c 4
 238 92 265 94 265 186 c 0xe8
 265 298 203 291 132 291 c 2
 123 291 l 1
 113 400 l 1
 126 400 l 2
 186 400 246 392 246 481 c 0
 246 558 217 560 161 560 c 0
 142 560 101 554 67 542 c 1xf0
EndSplineSet
Substitution2: "'pnum' Proportional Numbers lookup 16 subtable" three.fitted
Substitution2: "'onum' Oldstyle Figures lookup 14 subtable" three.taboldstyle
Substitution2: "'subs' +BB0EOAQ2BD0EOAQ5 +BDgEPQQ0BDUEOgRB lookup 13 subtable" three.inferior
Substitution2: "'sups' +BBIENQRABEUEPQQ4BDkA +BDgEPQQ0BDUEOgRB lookup 12 subtable" three.superior
Substitution2: "'dnom' Denominators lookup 6 subtable" three.denominator
Substitution2: "'numr' Numerators lookup 5 subtable" three.numerator
AlternateSubs2: "'aalt' +BBIEQQQ1 +BDAEOwRMBEIENQRABD0EMARCBDgEMgQ9BEsENQAA +BDIEMARABDgEMAQ9BEIESwAA lookup 1 subtable" three.fitted three.oldstyle three.taboldstyle three.numerator three.denominator three.superior three.inferior
EndChar

StartChar: four
Encoding: 52 52 21
Width: 476
Flags: HW
HStem: -10.9844 21G<250.618 367.125> 155 105<147 255.062 373.366 435>
VStem: 250.618 115.972<-8.40723 154.978 260.528 367.463> 265.726 116.306<334.681 491.314>
LayerCount: 2
Fore
SplineSet
366.58984375 -10.984375 m 5xe0
 250.618164062 -8.4072265625 l 5xe0
 255.0625 155.5546875 l 1
 46 155 l 1
 36 255 l 1
 256.061523438 661.654296875 l 1
 382.03125 648.85546875 l 1xd0
 373.366210938 259.951171875 l 1
 435 260 l 1
 440 155 l 1
 371.033203125 154.977539062 l 1
 366.58984375 -10.984375 l 5xe0
147 260 m 1
 257.39453125 260.528320312 l 1
 265.725585938 491.314453125 l 1xd0
 261.7265625 491.403320312 l 1
 147 262 l 1
 147 260 l 1
EndSplineSet
Substitution2: "'pnum' Proportional Numbers lookup 16 subtable" four.fitted
Substitution2: "'onum' Oldstyle Figures lookup 14 subtable" four.taboldstyle
Substitution2: "'subs' +BB0EOAQ2BD0EOAQ5 +BDgEPQQ0BDUEOgRB lookup 13 subtable" four.inferior
Substitution2: "'sups' +BBIENQRABEUEPQQ4BDkA +BDgEPQQ0BDUEOgRB lookup 12 subtable" four.superior
Substitution2: "'dnom' Denominators lookup 6 subtable" four.denominator
Substitution2: "'numr' Numerators lookup 5 subtable" four.numerator
AlternateSubs2: "'aalt' +BBIEQQQ1 +BDAEOwRMBEIENQRABD0EMARCBDgEMgQ9BEsENQAA +BDIEMARABDgEMAQ9BEIESwAA lookup 1 subtable" four.fitted four.oldstyle four.taboldstyle four.numerator four.denominator four.superior four.inferior
EndChar

StartChar: five
Encoding: 53 53 22
Width: 424
Flags: HW
HStem: -8 97<50.8988 244.741> 316 104<184 244.835> 526 119<199 283.3> 531 124<199 361>
LayerCount: 2
Fore
SplineSet
361 655 m 1xd0
 371 531 l 1xd0
 199 526 l 1
 184 420 l 1
 190 420 247 420 254 420 c 0
 351.572265625 416.515625 392 391 382 222 c 0
 369.713867188 14.3603515625 348 -8 206 -8 c 0
 160 -8 59 -3 34 8 c 5
 54 102 l 5
 77 95 152 89 187 89 c 0
 261 89 245.794921875 98.2353515625 253 200 c 0
 261 313 247 312 152 316 c 0
 134.016601562 316.756835938 118 317 66 318 c 1
 102 645 l 1xe0
 361 655 l 1xd0
EndSplineSet
Substitution2: "'pnum' Proportional Numbers lookup 16 subtable" five.fitted
Substitution2: "'onum' Oldstyle Figures lookup 14 subtable" five.taboldstyle
Substitution2: "'subs' +BB0EOAQ2BD0EOAQ5 +BDgEPQQ0BDUEOgRB lookup 13 subtable" five.inferior
Substitution2: "'sups' +BBIENQRABEUEPQQ4BDkA +BDgEPQQ0BDUEOgRB lookup 12 subtable" five.superior
Substitution2: "'dnom' Denominators lookup 6 subtable" five.denominator
Substitution2: "'numr' Numerators lookup 5 subtable" five.numerator
AlternateSubs2: "'aalt' +BBIEQQQ1 +BDAEOwRMBEIENQRABD0EMARCBDgEMgQ9BEsENQAA +BDIEMARABDgEMAQ9BEIESwAA lookup 1 subtable" five.fitted five.oldstyle five.taboldstyle five.numerator five.denominator five.superior five.inferior
EndChar

StartChar: six
Encoding: 54 54 23
Width: 467
Flags: HW
HStem: -8 85<188.915 290.113> 552 106<248.052 367.321>
VStem: 44.0001 133<83.429 510.231> 298 129<81.5438 307.026>
LayerCount: 2
Fore
SplineSet
366 658 m 5
 386 552 l 5
 183 525 177 536 177 392 c 1
 180 392 l 1
 203 423 237.336914062 429.375 280 424 c 0
 407 408 427 402 427 222 c 0
 427 14 427 -8 242 -8 c 0
 45 -8 44 28 44 260 c 0
 44 593 43 631 366 658 c 5
240 77 m 0
 293 77 298 80 298 203 c 0
 298 306 293 309 237 320 c 0
 197.426757812 327.7734375 177 315 177 209 c 0
 177 77 187 77 240 77 c 0
EndSplineSet
Substitution2: "'pnum' Proportional Numbers lookup 16 subtable" six.fitted
Substitution2: "'onum' Oldstyle Figures lookup 14 subtable" six.taboldstyle
Substitution2: "'subs' +BB0EOAQ2BD0EOAQ5 +BDgEPQQ0BDUEOgRB lookup 13 subtable" six.inferior
Substitution2: "'sups' +BBIENQRABEUEPQQ4BDkA +BDgEPQQ0BDUEOgRB lookup 12 subtable" six.superior
Substitution2: "'dnom' Denominators lookup 6 subtable" six.denominator
Substitution2: "'numr' Numerators lookup 5 subtable" six.numerator
AlternateSubs2: "'aalt' +BBIEQQQ1 +BDAEOwRMBEIENQRABD0EMARCBDgEMgQ9BEsENQAA +BDIEMARABDgEMAQ9BEIESwAA lookup 1 subtable" six.fitted six.oldstyle six.taboldstyle six.numerator six.denominator six.superior six.inferior
EndChar

StartChar: seven
Encoding: 55 55 24
Width: 427
Flags: HW
HStem: 535 115<147.1 278> 545 115<43 205.4>
LayerCount: 2
Fore
SplineSet
43 660 m 5x40
 390 650 l 1
 390 534 l 1
 186 -30 l 1
 78 0 l 1
 278 533 l 1
 278 535 l 1x80
 36 545 l 1
 43 660 l 5x40
EndSplineSet
Substitution2: "'pnum' Proportional Numbers lookup 16 subtable" seven.fitted
Substitution2: "'onum' Oldstyle Figures lookup 14 subtable" seven.taboldstyle
Substitution2: "'subs' +BB0EOAQ2BD0EOAQ5 +BDgEPQQ0BDUEOgRB lookup 13 subtable" seven.inferior
Substitution2: "'sups' +BBIENQRABEUEPQQ4BDkA +BDgEPQQ0BDUEOgRB lookup 12 subtable" seven.superior
Substitution2: "'dnom' Denominators lookup 6 subtable" seven.denominator
Substitution2: "'numr' Numerators lookup 5 subtable" seven.numerator
AlternateSubs2: "'aalt' +BBIEQQQ1 +BDAEOwRMBEIENQRABD0EMARCBDgEMgQ9BEsENQAA +BDIEMARABDgEMAQ9BEIESwAA lookup 1 subtable" seven.fitted seven.oldstyle seven.taboldstyle seven.numerator seven.denominator seven.superior seven.inferior
EndChar

StartChar: eight
Encoding: 56 56 25
Width: 462
Flags: HW
HStem: -8 78<182.932 283.137> 560 98<190.868 280.769>
LayerCount: 2
Fore
SplineSet
228.711914062 -8 m 0
 58.7119140625 -8 48.7119140625 0 38.7119140625 159 c 4
 33.6279296875 239.83984375 54.7119140625 272 136.711914062 327 c 5
 136.711914062 329 l 5
 60.7119140625 382 53.0341796875 426.1328125 56.7119140625 477 c 4
 68.7119140625 643 72.7119140625 658 240.711914062 658 c 0
 390.711914062 658 398.711914062 644 408.711914062 488 c 4
 411.462890625 445.087890625 412.711914062 398 323.711914062 344 c 5
 323.711914062 342 l 5
 410.711914062 289 426.975585938 248.930664062 423.711914062 172 c 4
 416.711914062 7 402.711914062 -8 228.711914062 -8 c 0
233.711914062 70 m 0
 282.711914062 70 291.213867188 72.1591796875 296.711914062 167 c 4
 300.711914062 236 258.711914062 258 221.711914062 277 c 1
 188.711914062 254 162.321289062 223.884765625 165.711914062 174 c 4
 172.711914062 71 188.711914062 70 233.711914062 70 c 0
235.711914062 560 m 0
 197.711914062 560 186.711914062 556 179.711914062 481 c 4
 175.436523438 435.19921875 205.711914062 403 243.711914062 383 c 1
 271.711914062 398 290.708984375 438.052734375 288.711914062 476 c 4
 284.711914062 552 284.711914062 560 235.711914062 560 c 0
EndSplineSet
Substitution2: "'pnum' Proportional Numbers lookup 16 subtable" eight.fitted
Substitution2: "'onum' Oldstyle Figures lookup 14 subtable" eight.taboldstyle
Substitution2: "'subs' +BB0EOAQ2BD0EOAQ5 +BDgEPQQ0BDUEOgRB lookup 13 subtable" eight.inferior
Substitution2: "'sups' +BBIENQRABEUEPQQ4BDkA +BDgEPQQ0BDUEOgRB lookup 12 subtable" eight.superior
Substitution2: "'dnom' Denominators lookup 6 subtable" eight.denominator
Substitution2: "'numr' Numerators lookup 5 subtable" eight.numerator
AlternateSubs2: "'aalt' +BBIEQQQ1 +BDAEOwRMBEIENQRABD0EMARCBDgEMgQ9BEsENQAA +BDIEMARABDgEMAQ9BEIESwAA lookup 1 subtable" eight.fitted eight.oldstyle eight.taboldstyle eight.numerator eight.denominator eight.superior eight.inferior
EndChar

StartChar: nine
Encoding: 57 57 26
Width: 469
Flags: HW
HStem: -14 106<111.679 230.41> 567 105<178.887 280.085>
VStem: 42 129<336.974 561.708> 292 133<133.633 560.32>
LayerCount: 2
Fore
SplineSet
113 -14 m 5
 93 92 l 1
 296 119 292 108 292 252 c 1
 289 252 l 1
 266 221 231.663085938 214.625 189 220 c 0
 62 236 42 242 42 422 c 0
 42 630 42 672 227 672 c 0
 424 672 425 616 425 384 c 0
 425 51 436 13 113 -14 c 5
229 567 m 0
 176 567 171 564 171 441 c 0
 171 338 176 335 232 324 c 0
 271.573242188 316.2265625 292 329 292 435 c 0
 292 567 282 567 229 567 c 0
EndSplineSet
Substitution2: "'pnum' Proportional Numbers lookup 16 subtable" nine.fitted
Substitution2: "'onum' Oldstyle Figures lookup 14 subtable" nine.taboldstyle
Substitution2: "'subs' +BB0EOAQ2BD0EOAQ5 +BDgEPQQ0BDUEOgRB lookup 13 subtable" nine.inferior
Substitution2: "'sups' +BBIENQRABEUEPQQ4BDkA +BDgEPQQ0BDUEOgRB lookup 12 subtable" nine.superior
Substitution2: "'dnom' Denominators lookup 6 subtable" nine.denominator
Substitution2: "'numr' Numerators lookup 5 subtable" nine.numerator
AlternateSubs2: "'aalt' +BBIEQQQ1 +BDAEOwRMBEIENQRABD0EMARCBDgEMgQ9BEsENQAA +BDIEMARABDgEMAQ9BEIESwAA lookup 1 subtable" nine.fitted nine.oldstyle nine.taboldstyle nine.numerator nine.denominator nine.superior nine.inferior
EndChar

StartChar: colon
Encoding: 58 58 27
Width: 245
Flags: HW
HStem: 10 147<56 186> 319 165<48 192>
VStem: 48 154<371.4 484> 48 144<28.375 157 321 337.8> 56 130<10 157>
LayerCount: 2
Fore
SplineSet
48 319 m 0xd0
 48 484 l 0
 202 489 l 0xe0
 192 321 l 0
 48 319 l 0xd0
56 10 m 4xc8
 50 157 l 0
 188 157 l 0
 186 10 l 4
 56 10 l 4xc8
EndSplineSet
EndChar

StartChar: semicolon
Encoding: 59 59 28
Width: 272
Flags: HW
HStem: 320 162<89 225>
VStem: 94 134<138.897 151.896 322 395.6>
LayerCount: 2
Fore
SplineSet
126 -116 m 1
 36 -95 l 1
 94 171 l 5
 228 151 l 1
 126 -116 l 1
89 320 m 0
 79 482 l 0
 225 487 l 0
 229 322 l 0
 89 320 l 0
EndSplineSet
EndChar

StartChar: less
Encoding: 60 60 29
Width: 557
Flags: HW
LayerCount: 2
Fore
SplineSet
39 235 m 1
 39 307 l 1
 489 532 l 5
 519 430 l 1
 177 266 l 1
 177 264 l 1
 519 101 l 1
 479 10 l 5
 39 235 l 1
EndSplineSet
EndChar

StartChar: equal
Encoding: 61 61 30
Width: 609
Flags: HW
HStem: 128.534 81.9863<67.8759 452.953> 137.152 81.9863<157.236 542.313> 323.52 101.97<300.976 562.957> 326.163 111.97<47.657 324.626>
LayerCount: 2
Fore
SplineSet
562.013671875 323.51953125 m 5x20
 414.146484375 330 245.19921875 329.813476562 46.16796875 326.163085938 c 1
 42.146484375 365 44.146484375 410 48.66796875 438.1328125 c 1x10
 242.16015625 442.452148438 398.146484375 436 564.512695312 425.489257812 c 5
 567.146484375 396 566.305664062 348 562.013671875 323.51953125 c 5x20
543.796875 137.15234375 m 1x40
 67.875 128.534179688 l 1
 66.390625 210.520507812 l 1x80
 542.3125 219.138671875 l 1
 543.796875 137.15234375 l 1x40
EndSplineSet
EndChar

StartChar: greater
Encoding: 62 62 31
Width: 558
Flags: HW
HStem: 0 21G<68.9192 118.509>
LayerCount: 2
Fore
SplineSet
517 310 m 1
 517 212 l 1
 77 0 l 5
 37 99 l 1
 411 265 l 1
 411 267 l 1
 47 433 l 1
 87 522 l 5
 517 310 l 1
EndSplineSet
EndChar

StartChar: question
Encoding: 63 63 32
Width: 368
Flags: HW
HStem: -8 21G<92.4103 228> 569 113<55.6543 201.195>
VStem: 103 111<99 148 211 229> 207 124<443.865 562.218>
LayerCount: 2
Fore
SplineSet
214 204 m 1xe0
 103 211 l 1xe0
 101 229 l 2
 91.6826171875 312.853515625 105 322 154 396 c 0
 182.634765625 439.244140625 207 469 207 507 c 4
 207 562 201 569 131 569 c 4
 109 569 83 566 57 561 c 1
 35 670 l 1
 84 678 127 682 162 682 c 0
 284 682 331 678 331 528 c 0xd0
 331 459 291.928710938 403.048828125 257 352 c 0
 218 295 214 293 214 229 c 2
 214 204 l 1xe0
91 -8 m 0
 102 148 l 0
 212 154 l 0
 228 0 l 0
 91 -8 l 0
EndSplineSet
EndChar

StartChar: at
Encoding: 64 64 33
Width: 639
Flags: HW
HStem: -98 56<199.067 406.491> -26 20G<415.107 440.876> 65 75<257.261 351.961 417.107 498.317> 367 61<290.1 370.326> 507 85<214.223 480.837>
VStem: 367.107 79<151.807 366.683> 526.107 74<183.744 465.865>
LayerCount: 2
Fore
SplineSet
367.107421875 232 m 2
 371.107421875 362 l 1
 364.107421875 366 345.106445312 367 334.107421875 367 c 0
 289.107421875 367 279.107421875 365 259.107421875 190 c 0
 255.1328125 155.2265625 254.137695312 135.45703125 289.107421875 134 c 0
 337.107421875 132 364.552734375 148.986328125 367.107421875 232 c 2
435.107421875 -6 m 1
 450.107421875 -58 l 1
 398.107421875 -88 348.107421875 -98 291.107421875 -98 c 0
 110.107421875 -98 28.3505859375 3.349609375 40.107421875 201 c 0
 56.107421875 470 108.107421875 592 364.107421875 592 c 0
 562.107421875 592 607.107421875 485 600.107421875 334 c 0
 592.095703125 161.185546875 551.107421875 65 442.107421875 65 c 0
 392.107421875 65 377.107421875 70 379.107421875 130 c 1
 376.107421875 130 l 1
 354.107421875 56 300.091796875 63.8271484375 256.107421875 65 c 0
 181.107421875 67 160.107421875 74 170.107421875 185 c 0
 191.821289062 426.026367188 197.107421875 428 347.107421875 428 c 0
 380.107421875 428 409.107421875 425 452.107421875 417 c 1
 446.107421875 223 l 2
 444.53125 172.048828125 434.107421875 140 464.107421875 140 c 0
 504.107421875 140 521.758789062 186.0703125 526.107421875 320 c 0
 531.107421875 474 512.107421875 507 353.107421875 507 c 0
 190.107421875 507 125.107421875 488 105.107421875 201 c 0
 93.2890625 31.4111328125 164.107421875 -42 305.107421875 -42 c 0
 352.107421875 -42 395.107421875 -29 435.107421875 -6 c 1
EndSplineSet
Substitution2: "'case' +BCAENQQzBDgEQQRCBEAEPgQ3BDAEMgQ4BEEEOAQ8BEsENQAA +BEQEPgRABDwESwAA lookup 4 subtable" at.cap
Substitution2: "'aalt' +BBIEQQQ1 +BDAEOwRMBEIENQRABD0EMARCBDgEMgQ9BEsENQAA +BDIEMARABDgEMAQ9BEIESwAA lookup 0 subtable" at.cap
EndChar

StartChar: A
Encoding: 65 65 34
Width: 604
Flags: HW
HStem: 0 11G<47 173.082 437 554.959> 257 138<250 354>
VStem: 47 126<3 471> 249 116<565.838 567 579 683.481> 249 105<257 393> 249 10<567 577> 437 118<-8 467>
LayerCount: 2
Fore
SplineSet
249 393 m 1xea
 354 395 l 1
 354 257 l 1
 250 256 l 1
 249 393 l 1xea
439 477 m 1
 554 475 l 1
 555 -10 l 1
 437 -8 l 1
 439 477 l 1
46 484 m 1
 175 486 l 1
 173 0 l 1
 47 3 l 1
 46 484 l 1
342 579 m 1
 384.3515625 577.608398438 418.294921875 577.6171875 456 577 c 1
 457 467 l 1
 344 470 l 1
 342 579 l 1
259 577 m 1xe6
 260 471 l 1
 155 471 l 1
 155 580 l 1
 193.232421875 579.651367188 227 579 259 577 c 1xe6
244 683 m 5xf2
 281.484375 686.548828125 319.856445312 687.431640625 360 683 c 5
 360 565 l 5
 318.666992188 567.655273438 285.333007812 564.319335938 244 567 c 5
 244 683 l 5xf2
EndSplineSet
Position2: "'cpsp' +BBgEPQRCBDUEQAQyBDAEOwAA +BD8EQAQ+BD8EOARBBD0ESwRF lookup 0 subtable" dx=10 dy=0 dh=20 dv=0
EndChar

StartChar: B
Encoding: 66 66 35
Width: 488
Flags: HW
HStem: -4.9248 94.751<188.304 297.419> 302.779 96.9795<183.867 286.544>
VStem: 45.3135 136.533<399.759 569.701> 59.1025 129.201<89.8262 302.779> 309 136<101.029 285.617>
LayerCount: 2
Fore
SplineSet
160 381 m 5
 337 383 l 5
 337 275 l 5
 161 274 l 5
 160 381 l 5
329 279 m 5
 443 277 l 5
 443 78 l 5
 330 81 l 5
 329 279 l 5
156 108 m 5
 336 109 l 5
 336 -6 l 5
 156 -7 l 5
 156 108 l 5
45 573 m 5
 174 575 l 5
 172 82 l 5
 46 85 l 5
 45 573 l 5
309 579 m 5
 351.3515625 577.608398438 385.294921875 577.6171875 423 577 c 5
 424 373 l 5
 311 376 l 5
 309 579 l 5
153 683 m 5
 190.484375 686.548828125 274.856445312 687.431640625 315 683 c 5
 315 565 l 5
 273.666992188 560.801757812 194.333007812 558.209960938 153 567 c 5
 153 683 l 5
EndSplineSet
Position2: "'cpsp' +BBgEPQRCBDUEQAQyBDAEOwAA +BD8EQAQ+BD8EOARBBD0ESwRF lookup 0 subtable" dx=10 dy=0 dh=20 dv=0
EndChar

StartChar: C
Encoding: 67 67 36
Width: 497
Flags: HW
VStem: 47 139<144.455 525.088>
LayerCount: 2
Fore
SplineSet
336 188 m 5
 450 186 l 5
 450 78 l 5
 337 81 l 5
 336 188 l 5
241 186 m 5
 238 79 l 5
 130 80 l 5
 127 187 l 5
 241 186 l 5
230 108 m 5
 348 109 l 5
 348 -6 l 5
 230 -7 l 5
 230 108 l 5
43 484 m 5
 172 486 l 5
 170 172 l 5
 44 175 l 5
 43 484 l 5
339 579 m 5
 381.3515625 577.608398438 415.294921875 577.6171875 453 577 c 5
 454 467 l 5
 341 470 l 5
 339 579 l 5
256 577 m 5
 257 471 l 5
 142 471 l 5
 142 580 l 5
 180.232421875 579.651367188 224 579 256 577 c 5
246 683 m 5
 283.484375 686.548828125 321.856445312 687.431640625 362 683 c 5
 362 565 l 5
 320.666992188 560.801757812 287.333007812 558.209960938 246 567 c 5
 246 683 l 5
EndSplineSet
Position2: "'cpsp' +BBgEPQRCBDUEQAQyBDAEOwAA +BD8EQAQ+BD8EOARBBD0ESwRF lookup 0 subtable" dx=10 dy=0 dh=20 dv=0
EndChar

StartChar: D
Encoding: 68 68 37
Width: 539
Flags: HW
HStem: 550 122<218 343.675>
VStem: 82 131<93 550> 354 136<102.523 546.917>
LayerCount: 2
Fore
SplineSet
275 188 m 1
 389 186 l 1
 389 78 l 1
 276 81 l 1
 275 188 l 1
169 108 m 1
 287 109 l 1
 287 -6 l 1
 169 -7 l 1
 169 108 l 1
375 477 m 1
 490 475 l 1
 491 170 l 1
 373 172 l 1
 375 477 l 1
45 574 m 1
 174 576 l 1
 172 93 l 5
 46 96 l 5
 45 574 l 1
278 579 m 1
 320.3515625 577.608398438 354.294921875 577.6171875 392 577 c 1
 393 467 l 1
 280 470 l 1
 278 579 l 1
166 683 m 1
 203.484375 686.548828125 241.856445312 687.431640625 282 683 c 1
 282 565 l 1
 240.666992188 560.801757812 207.333007812 558.209960938 166 567 c 1
 166 683 l 1
EndSplineSet
Position2: "'cpsp' +BBgEPQRCBDUEQAQyBDAEOwAA +BD8EQAQ+BD8EOARBBD0ESwRF lookup 0 subtable" dx=10 dy=0 dh=20 dv=0
EndChar

StartChar: E
Encoding: 69 69 38
Width: 391
Flags: HW
HStem: -3.89453 107.98<186.121 319.222> 4 104<186.121 348.555> 286 118.943<180.524 332.555> 560 124<174.089 350.97>
VStem: 37.6528 139.211<442.285 557.594> 58.3813 127.74<104.086 223.607>
LayerCount: 2
Fore
SplineSet
312.5546875 405 m 5
 312.5546875 286 l 5
 180.5234375 286 l 1
 186.12109375 104.0859375 l 1
 348.5546875 108 l 1
 352.5546875 4 l 1
 173.5546875 -0.8037109375 l 1
 173.5546875 94 l 1
 55.369140625 94 l 1
 41 561 l 1
 163.5546875 561 l 1
 163.5546875 683.8203125 l 1
 217.190429688 687.384765625 283.719726562 688.970703125 354.5546875 684 c 1
 355.5546875 646 353.5546875 601 350.5546875 560 c 1
 293.5546875 564 207.5546875 560 172.404296875 554.875 c 1
 176.86328125 404.943359375 l 1
 312.5546875 405 l 5
EndSplineSet
Position2: "'cpsp' +BBgEPQRCBDUEQAQyBDAEOwAA +BD8EQAQ+BD8EOARBBD0ESwRF lookup 0 subtable" dx=10 dy=0 dh=20 dv=0
EndChar

StartChar: F
Encoding: 70 70 39
Width: 385
Flags: HW
HStem: -10 21G<49.1817 180.297> 278 119<180.297 329.899> 560 119.677<180.297 260.582> 565.591 123.935<180.297 348.176>
VStem: 49.2966 131<-10 278 397 560>
LayerCount: 2
Fore
SplineSet
46 564 m 1
 169.296875 564 l 1
 169.296875 683.708007812 l 1
 348.17578125 689.525390625 l 1
 352.206054688 565.590820312 l 1
 180.296875 560 l 1
 180.296875 397 l 1
 315.840820312 391.861328125 l 5
 309.8984375 273.009765625 l 5
 180.296875 278 l 1
 180.296875 -10 l 1
 49.296875 -10 l 1
 46 564 l 1
EndSplineSet
Position2: "'cpsp' +BBgEPQRCBDUEQAQyBDAEOwAA +BD8EQAQ+BD8EOARBBD0ESwRF lookup 0 subtable" dx=10 dy=0 dh=20 dv=0
EndChar

StartChar: G
Encoding: 71 71 40
Width: 501
Flags: HW
HStem: 271 122<263 333>
VStem: 47 136<152.611 527.736> 328 116<98 271> 333 121<122 271>
LayerCount: 2
Fore
SplineSet
246 683 m 1
 283.484375 686.548828125 321.856445312 687.431640625 362 683 c 1
 362 565 l 1
 320.666992188 560.801757812 287.333007812 558.209960938 246 567 c 1
 246 683 l 1
256 577 m 1
 257 471 l 1
 142 471 l 1
 142 580 l 1
 180.232421875 579.651367188 224 579 256 577 c 1
339 579 m 1
 381.3515625 577.608398438 415.294921875 577.6171875 453 577 c 1
 454 467 l 1
 341 470 l 1
 339 579 l 1
43 484 m 1
 172 486 l 1
 170 172 l 1
 44 175 l 1
 43 484 l 1
230 108 m 1
 348 109 l 1
 348 -6 l 1
 230 -7 l 1
 230 108 l 1
241 186 m 1
 238 79 l 1
 130 80 l 1
 127 187 l 1
 241 186 l 1
246 381 m 5
 450 376 l 5
 450 78 l 1
 337 81 l 1
 336.34765625 274.859375 l 1
 247 274 l 1
 246 381 l 5
EndSplineSet
Position2: "'cpsp' +BBgEPQRCBDUEQAQyBDAEOwAA +BD8EQAQ+BD8EOARBBD0ESwRF lookup 0 subtable" dx=10 dy=0 dh=20 dv=0
EndChar

StartChar: H
Encoding: 72 72 41
Width: 606
Flags: HW
HStem: 450.988 0.000566727G<-945.083 -11.5102> 450.995 0.00329179<-50.5472 907.845> 451.006 0.00053974G<949.931 1883>
VStem: -1035.6 968.164<450.999 451.006> -942.314 930.804<450.988 450.995> 875.68 930.861<450.988 450.995 450.999 451> 921.291 961.711<450.994 450.995 450.999 451.006>
LayerCount: 2
Fore
SplineSet
260 403 m 5
 365 405 l 5
 365 257 l 1
 261 256 l 1
 260 403 l 5
440 675 m 1
 555 673 l 1
 556 -2 l 1
 438 0 l 1
 440 675 l 1
47 665 m 1
 176 667 l 1
 174 -8 l 1
 48 -5 l 1
 47 665 l 1
EndSplineSet
Position2: "'cpsp' +BBgEPQRCBDUEQAQyBDAEOwAA +BD8EQAQ+BD8EOARBBD0ESwRF lookup 0 subtable" dx=10 dy=0 dh=20 dv=0
EndChar

StartChar: I
Encoding: 73 73 42
Width: 236
Flags: HW
HStem: 0 21G<50.8494 182.151>
VStem: 51 131<0 664>
LayerCount: 2
Fore
SplineSet
46 664 m 1
 187 664 l 1
 182 0 l 1
 51 0 l 1
 46 664 l 1
EndSplineSet
Position2: "'cpsp' +BBgEPQRCBDUEQAQyBDAEOwAA +BD8EQAQ+BD8EOARBBD0ESwRF lookup 0 subtable" dx=10 dy=0 dh=20 dv=0
EndChar

StartChar: J
Encoding: 74 74 43
Width: 326
Flags: HW
HStem: -151 21G<42.52 104> 664 20G<138 274>
VStem: 142 132<6.7666 684>
LayerCount: 2
Fore
SplineSet
28 -41 m 5
 173 -33 l 5
 173 -141 l 5
 29 -148 l 5
 28 -41 l 5
160 685 m 5
 275 683 l 5
 276 -50 l 5
 236.666992188 -50.798828125 197.333007812 -48.80859375 158 -48 c 5
 160 685 l 5
EndSplineSet
Position2: "'cpsp' +BBgEPQRCBDUEQAQyBDAEOwAA +BD8EQAQ+BD8EOARBBD0ESwRF lookup 0 subtable" dx=10 dy=0 dh=20 dv=0
EndChar

StartChar: K
Encoding: 75 75 44
Width: 535
Flags: HW
HStem: 0 21G<47 178> 634 20G<47 178> 664 20G<304.502 395.667>
VStem: 47 131<0 334 371 654>
LayerCount: 2
Fore
SplineSet
277 300 m 5
 395 301 l 5
 395 107 l 5
 277 106 l 5
 277 300 l 5
277 561 m 5
 395 562 l 5
 395 403 l 5
 277 402 l 5
 277 561 l 5
169 408 m 5
 287 409 l 5
 287 294 l 5
 169 293 l 5
 169 408 l 5
369 671 m 5
 487 672 l 5
 487 557 l 5
 369 556 l 5
 369 671 l 5
380 115 m 5
 498 116 l 5
 498 1 l 5
 380 0 l 5
 380 115 l 5
47 0 m 5
 47 654 l 5
 178 654 l 5
 178 0 l 5
 47 0 l 5
EndSplineSet
Position2: "'cpsp' +BBgEPQRCBDUEQAQyBDAEOwAA +BD8EQAQ+BD8EOARBBD0ESwRF lookup 0 subtable" dx=10 dy=0 dh=20 dv=0
EndChar

StartChar: L
Encoding: 76 76 45
Width: 385
Flags: HW
HStem: -14 111<182.742 351> 654 20G<47 178>
VStem: 47 131<102 674>
LayerCount: 2
Fore
SplineSet
47 95 m 1
 47 674 l 1
 178 674 l 1
 178 102 l 1
 178 102 262 94 351 97 c 1
 351 -14 l 1
 282.272460938 -16.93359375 217.760742188 -15.828125 166 -13.552734375 c 1
 166 95 l 1
 47 95 l 1
EndSplineSet
Position2: "'cpsp' +BBgEPQRCBDUEQAQyBDAEOwAA +BD8EQAQ+BD8EOARBBD0ESwRF lookup 0 subtable" dx=10 dy=0 dh=20 dv=0
EndChar

StartChar: M
Encoding: 77 77 46
Width: 672
Flags: HW
HStem: 0 11G<52.7588 176.87 490.709 618.759> 672 20G<439.759 569.233>
LayerCount: 2
Fore
SplineSet
276.758789062 416 m 5
 395.758789062 418 l 5
 395.758789062 260 l 5
 277.758789062 259 l 5
 276.758789062 416 l 5
389.758789062 582 m 5
 497.758789062 583 l 5
 497.758789062 414 l 5
 389.758789062 413 l 5
 389.758789062 582 l 5
175.758789062 582 m 5
 283.758789062 583 l 5
 283.758789062 408 l 5
 175.758789062 407 l 5
 175.758789062 582 l 5
48.7587890625 674 m 5
 179.743164062 671.96875 l 5
 178.984375 -1.947265625 l 5
 48 0.0830078125 l 5
 48.7587890625 674 l 5
490.758789062 696 m 5
 621.743164062 693.96875 l 5
 620.984375 0.052734375 l 5
 490 2.0830078125 l 5
 490.758789062 696 l 5
EndSplineSet
Position2: "'cpsp' +BBgEPQRCBDUEQAQyBDAEOwAA +BD8EQAQ+BD8EOARBBD0ESwRF lookup 0 subtable" dx=10 dy=0 dh=20 dv=0
EndChar

StartChar: N
Encoding: 78 78 47
Width: 605
Flags: HW
HStem: -3 21G<313 443.292> 664 20G<337.768 453>
VStem: 43 116<203.2 429> 53 115<10 335.889> 333 110<253 475.8> 338 115<253 681>
LayerCount: 2
Fore
SplineSet
254 416 m 5
 363 418 l 5
 363 260 l 5
 255 259 l 5
 254 416 l 5
353 272 m 5
 461 273 l 5
 461 104 l 5
 353 103 l 5
 353 272 l 5
153 582 m 5
 261 583 l 5
 261 408 l 5
 153 407 l 5
 153 582 l 5
168 10 m 5
 53 7 l 5
 43 661 l 5
 173 664 l 5
 168 10 l 5
443 684 m 5
 558 681 l 5
 548 -3 l 5
 438 0 l 5
 443 684 l 5
EndSplineSet
Position2: "'cpsp' +BBgEPQRCBDUEQAQyBDAEOwAA +BD8EQAQ+BD8EOARBBD0ESwRF lookup 0 subtable" dx=10 dy=0 dh=20 dv=0
EndChar

StartChar: O
Encoding: 79 79 48
Width: 600
Flags: HW
HStem: -8 103.928<204.79 323.631> 558 124<191.56 333.242>
VStem: 45.4893 130.47<128.033 545.569> 348.063 131.48<119.972 543.331>
LayerCount: 2
Fore
SplineSet
246 393 m 1
 351 395 l 1
 351 257 l 1
 247 256 l 1
 246 393 l 1
336 188 m 1
 450 186 l 1
 450 78 l 1
 337 81 l 1
 336 188 l 1
241 186 m 1
 238 79 l 1
 130 80 l 1
 127 187 l 1
 241 186 l 1
230 108 m 1
 348 109 l 1
 348 -6 l 1
 230 -7 l 1
 230 108 l 1
436 477 m 5
 551 475 l 5
 552 170 l 5
 434 172 l 5
 436 477 l 5
43 484 m 1
 172 486 l 1
 170 172 l 1
 44 175 l 1
 43 484 l 1
339 579 m 1
 381.3515625 577.608398438 415.294921875 577.6171875 453 577 c 1
 454 467 l 1
 341 470 l 1
 339 579 l 1
256 577 m 1
 257 471 l 1
 142 471 l 1
 142 580 l 1
 180.232421875 579.651367188 224 579 256 577 c 1
246 683 m 1
 283.484375 686.548828125 321.856445312 687.431640625 362 683 c 1
 362 565 l 1
 320.666992188 560.801757812 287.333007812 558.209960938 246 567 c 1
 246 683 l 1
EndSplineSet
Position2: "'cpsp' +BBgEPQRCBDUEQAQyBDAEOwAA +BD8EQAQ+BD8EOARBBD0ESwRF lookup 0 subtable" dx=10 dy=0 dh=20 dv=0
EndChar

StartChar: P
Encoding: 80 80 49
Width: 471
Flags: HW
HStem: -4.9248 94.751<190.304 299.419> 302.779 96.9795<185.867 288.544>
VStem: 47.3135 136.533<399.759 569.701> 61.1025 129.201<89.8262 302.779> 311 136<101.029 285.617>
LayerCount: 2
Fore
SplineSet
162 325 m 5
 326 327 l 5
 326 219 l 5
 163 218 l 5
 162 325 l 5
47 573 m 5
 176 575 l 5
 174 -10 l 5
 48 -7 l 5
 47 573 l 5
311 579 m 5
 353.3515625 577.608398438 387.294921875 577.6171875 425 577 c 5
 426 314 l 5
 313 317 l 5
 311 579 l 5
155 683 m 5
 192.484375 686.548828125 276.856445312 687.431640625 317 683 c 5
 317 565 l 5
 275.666992188 560.801757812 196.333007812 558.209960938 155 567 c 5
 155 683 l 5
EndSplineSet
Position2: "'cpsp' +BBgEPQRCBDUEQAQyBDAEOwAA +BD8EQAQ+BD8EOARBBD0ESwRF lookup 0 subtable" dx=10 dy=0 dh=20 dv=0
EndChar

StartChar: Q
Encoding: 81 81 50
Width: 600
Flags: HW
HStem: -8 103.928<204.79 323.631> 558 124<191.56 333.242>
VStem: 45.4893 130.47<128.033 545.569> 348.063 131.48<119.972 543.331>
LayerCount: 2
Fore
SplineSet
432 90 m 1
 537 92 l 1
 536 -79 l 5
 432 -80 l 5
 432 90 l 1
336 188 m 1
 450 186 l 1
 450 78 l 1
 337 81 l 1
 336 188 l 1
241 186 m 1
 238 79 l 1
 130 80 l 1
 127 187 l 1
 241 186 l 1
230 108 m 1
 348 109 l 1
 348 -6 l 1
 230 -7 l 1
 230 108 l 1
436 477 m 1
 551 475 l 1
 552 170 l 1
 434 172 l 1
 436 477 l 1
43 484 m 1
 172 486 l 1
 170 172 l 1
 44 175 l 1
 43 484 l 1
339 579 m 1
 381.3515625 577.608398438 415.294921875 577.6171875 453 577 c 1
 454 467 l 1
 341 470 l 1
 339 579 l 1
256 577 m 1
 257 471 l 1
 142 471 l 1
 142 580 l 1
 180.232421875 579.651367188 224 579 256 577 c 1
246 683 m 1
 283.484375 686.548828125 321.856445312 687.431640625 362 683 c 1
 362 565 l 1
 320.666992188 560.801757812 287.333007812 558.209960938 246 567 c 1
 246 683 l 1
EndSplineSet
Position2: "'cpsp' +BBgEPQRCBDUEQAQyBDAEOwAA +BD8EQAQ+BD8EOARBBD0ESwRF lookup 0 subtable" dx=10 dy=0 dh=20 dv=0
EndChar

StartChar: R
Encoding: 82 82 51
Width: 480
Flags: HW
HStem: -10 21G<320 351>
VStem: 54 131<10 261 359 563> 308 122<377.65 558.975> 334 117<7.21964 171>
LayerCount: 2
Fore
SplineSet
319 231 m 5
 361.3515625 229.608398438 395.294921875 229.6171875 433 229 c 5
 434 -11 l 5
 321 -8 l 5
 319 231 l 5
162 325 m 5
 326 327 l 5
 326 219 l 5
 163 218 l 5
 162 325 l 5
47 573 m 5
 176 575 l 5
 174 -10 l 5
 48 -7 l 5
 47 573 l 5
311 579 m 5
 353.3515625 577.608398438 387.294921875 577.6171875 425 577 c 5
 426 314 l 5
 313 317 l 5
 311 579 l 5
155 683 m 5
 192.484375 686.548828125 276.856445312 687.431640625 317 683 c 5
 317 565 l 5
 275.666992188 567.4921875 196.333007812 567.107421875 155 567 c 5
 155 683 l 5
EndSplineSet
Position2: "'cpsp' +BBgEPQRCBDUEQAQyBDAEOwAA +BD8EQAQ+BD8EOARBBD0ESwRF lookup 0 subtable" dx=10 dy=0 dh=20 dv=0
EndChar

StartChar: S
Encoding: 83 83 52
Width: 491
Flags: HW
HStem: -6 114<69.1407 251.489> 557 123<174.8 359.169>
VStem: 265.592 119<122.232 237.759>
LayerCount: 2
Fore
SplineSet
153 384 m 5
 352 386 l 5
 350 272 l 5
 154 275 l 5
 153 384 l 5
332 284 m 5
 461 286 l 5
 459 172 l 5
 333 175 l 5
 332 284 l 5
245 188 m 5
 359 186 l 5
 359 78 l 5
 246 81 l 5
 245 188 l 5
70 108 m 5
 258 109 l 5
 258 -6 l 5
 70 -7 l 5
 70 108 l 5
33 484 m 5
 162 486 l 5
 160 372 l 5
 34 375 l 5
 33 484 l 5
256 577 m 5
 257 471 l 5
 142 471 l 5
 142 580 l 5
 180.232421875 579.651367188 224 579 256 577 c 5
246 683 m 5
 422 683 l 5
 422 565 l 5
 246 567 l 5
 246 683 l 5
EndSplineSet
Position2: "'cpsp' +BBgEPQRCBDUEQAQyBDAEOwAA +BD8EQAQ+BD8EOARBBD0ESwRF lookup 0 subtable" dx=10 dy=0 dh=20 dv=0
EndChar

StartChar: T
Encoding: 84 84 53
Width: 438
Flags: HW
HStem: 547.486 130.936<290.872 400.818> 559.073 130.936<35.1025 159.936>
VStem: 159.779 131<-20 550.932>
LayerCount: 2
Fore
SplineSet
159.779296875 -20 m 5xa0
 159.936523438 555.033203125 l 1
 31 559.073242188 l 1
 35.1025390625 690.008789062 l 1x60
 404.920898438 678.421875 l 1
 400.818359375 547.486328125 l 1
 290.872070312 550.931640625 l 1
 290.779296875 -20 l 5
 159.779296875 -20 l 5xa0
EndSplineSet
Position2: "'cpsp' +BBgEPQRCBDUEQAQyBDAEOwAA +BD8EQAQ+BD8EOARBBD0ESwRF lookup 0 subtable" dx=10 dy=0 dh=20 dv=0
EndChar

StartChar: U
Encoding: 85 85 54
Width: 504
Flags: HW
HStem: -8 105<188.9 294.686> 664 20G<305 436>
VStem: 45 131<106.375 664> 305 131<109.01 684>
LayerCount: 2
Fore
SplineSet
151 108 m 5
 352 109 l 5
 352 -6 l 5
 151 -7 l 5
 151 108 l 5
338 677 m 5
 453 675 l 5
 454 99 l 5
 336 101 l 5
 338 677 l 5
47 660 m 5
 176 662 l 5
 174 100 l 5
 48 103 l 5
 47 660 l 5
EndSplineSet
Position2: "'cpsp' +BBgEPQRCBDUEQAQyBDAEOwAA +BD8EQAQ+BD8EOARBBD0ESwRF lookup 0 subtable" dx=10 dy=0 dh=20 dv=0
EndChar

StartChar: V
Encoding: 86 86 55
Width: 591
Flags: HW
HStem: -8 103.928<206.79 325.631> 558 124<193.56 335.242>
VStem: 47.4893 130.47<128.033 545.569> 350.063 131.48<119.972 543.331>
LayerCount: 2
Fore
SplineSet
338 208 m 1
 452 206 l 1
 452 98 l 1
 339 101 l 1
 338 208 l 1
243 206 m 1
 240 99 l 1
 132 100 l 1
 129 207 l 1
 243 206 l 1
232 108 m 1
 350 109 l 1
 350 -6 l 1
 232 -7 l 1
 232 108 l 1
438 676 m 1
 542 675 l 1
 541 187 l 1
 434 188 l 1
 438 676 l 1
45 657 m 1
 162 661 l 1
 160 193 l 1
 46 194 l 1
 45 657 l 1
EndSplineSet
Position2: "'cpsp' +BBgEPQRCBDUEQAQyBDAEOwAA +BD8EQAQ+BD8EOARBBD0ESwRF lookup 0 subtable" dx=10 dy=0 dh=20 dv=0
EndChar

StartChar: W
Encoding: 87 87 56
Width: 672
Flags: HW
HStem: -8 21G<144.311 267.759 421.759 570.29> 654 20G<32.7588 161.598 552.35 685.759>
LayerCount: 2
Fore
SplineSet
276.758789062 264 m 1
 395.758789062 262 l 1
 395.758789062 420 l 1
 277.758789062 421 l 1
 276.758789062 264 l 1
389.758789062 98 m 1
 497.758789062 97 l 1
 497.758789062 266 l 1
 389.758789062 267 l 1
 389.758789062 98 l 1
175.758789062 98 m 1
 283.758789062 97 l 1
 283.758789062 272 l 1
 175.758789062 273 l 1
 175.758789062 98 l 1
48.7587890625 6 m 1
 179.743164062 8.03125 l 1
 178.984375 681.947265625 l 1
 48 679.916992188 l 1
 48.7587890625 6 l 1
490.758789062 -16 m 1
 621.743164062 -13.96875 l 1
 620.984375 679.947265625 l 1
 490 677.916992188 l 1
 490.758789062 -16 l 1
EndSplineSet
Position2: "'cpsp' +BBgEPQRCBDUEQAQyBDAEOwAA +BD8EQAQ+BD8EOARBBD0ESwRF lookup 0 subtable" dx=10 dy=0 dh=20 dv=0
EndChar

StartChar: X
Encoding: 88 88 57
Width: 597
Flags: HW
HStem: 0 21G<24 154.574> 654 20G<289.178 421>
LayerCount: 2
Fore
SplineSet
436 197 m 5
 551 195 l 5
 552 0 l 5
 434 2 l 5
 436 197 l 5
43 184 m 5
 172 186 l 5
 170 2 l 5
 44 5 l 5
 43 184 l 5
246 403 m 5
 351 405 l 5
 351 267 l 5
 247 266 l 5
 246 403 l 5
336 278 m 5
 440 276 l 5
 440 168 l 5
 337 171 l 5
 336 278 l 5
251 276 m 5
 248 169 l 5
 150 170 l 5
 147 277 l 5
 251 276 l 5
436 677 m 5
 551 675 l 5
 552 486 l 5
 434 488 l 5
 436 677 l 5
43 664 m 5
 172 666 l 5
 170 488 l 5
 44 491 l 5
 43 664 l 5
339 499 m 5
 381.3515625 497.608398438 405.294921875 497.6171875 443 497 c 5
 444 387 l 5
 341 390 l 5
 339 499 l 5
256 497 m 5
 257 391 l 5
 152 391 l 5
 152 500 l 5
 190.232421875 499.651367188 224 499 256 497 c 5
EndSplineSet
Position2: "'cpsp' +BBgEPQRCBDUEQAQyBDAEOwAA +BD8EQAQ+BD8EOARBBD0ESwRF lookup 0 subtable" dx=10 dy=0 dh=20 dv=0
EndChar

StartChar: Y
Encoding: 89 89 58
Width: 579
Flags: HW
HStem: -10 21G<146 277> 654 20G<-2 143.066>
VStem: 146 131<-10 258>
LayerCount: 2
Fore
SplineSet
237 393 m 1
 342 395 l 1025
237 393 m 1
 342 395 l 1
 342 -13 l 1
 238 -14 l 1
 237 393 l 1
427 677 m 1
 542 675 l 1
 543 486 l 1
 425 488 l 1
 427 677 l 1
34 664 m 1
 163 666 l 1
 161 488 l 1
 35 491 l 1
 34 664 l 1
330 499 m 1
 434 502 l 1
 435 386 l 1
 332 384 l 1
 330 499 l 1
247 497 m 1
 248 385 l 1
 143 388 l 1
 143 503 l 1
 247 497 l 1
EndSplineSet
Position2: "'cpsp' +BBgEPQRCBDUEQAQyBDAEOwAA +BD8EQAQ+BD8EOARBBD0ESwRF lookup 0 subtable" dx=10 dy=0 dh=20 dv=0
EndChar

StartChar: Z
Encoding: 90 90 59
Width: 399
Flags: HW
HStem: -3.37305 103.951<192.595 372.325> 7.03516 99.1455<192.595 261.043> 549.784 130.267<88.5962 239.12>
LayerCount: 2
Fore
SplineSet
46 118 m 1
 353 118 l 1
 353 -2 l 1
 46 -2 l 1
 46 118 l 1
42 678 m 1
 353 678 l 1
 353 558 l 1
 42 558 l 1
 42 678 l 1
147 416 m 1
 256 418 l 1
 256 260 l 1
 148 259 l 1
 147 416 l 1
46 272 m 1
 154 273 l 1
 154 104 l 1
 46 103 l 1
 46 272 l 1
246 582 m 1
 354 583 l 1
 354 408 l 1
 246 407 l 1
 246 582 l 1
EndSplineSet
Position2: "'cpsp' +BBgEPQRCBDUEQAQyBDAEOwAA +BD8EQAQ+BD8EOARBBD0ESwRF lookup 0 subtable" dx=10 dy=0 dh=20 dv=0
EndChar

StartChar: bracketleft
Encoding: 91 91 60
Width: 278
Flags: HW
HStem: -116 88<156 239> 578 108<156 239>
VStem: 47 109<126.2 578> 57 99<-28 443.8>
LayerCount: 2
Fore
SplineSet
239 -116 m 5xd0
 57 -112 l 5xd0
 47 682 l 5
 239 686 l 5
 242 582 l 5
 156 578 l 5xe0
 156 -28 l 5
 242 -32 l 5
 239 -116 l 5xd0
EndSplineSet
Substitution2: "'case' +BCAENQQzBDgEQQRCBEAEPgQ3BDAEMgQ4BEEEOAQ8BEsENQAA +BEQEPgRABDwESwAA lookup 4 subtable" bracketleft.cap
Substitution2: "'aalt' +BBIEQQQ1 +BDAEOwRMBEIENQRABD0EMARCBDgEMgQ9BEsENQAA +BDIEMARABDgEMAQ9BEIESwAA lookup 0 subtable" bracketleft.cap
EndChar

StartChar: backslash
Encoding: 92 92 61
Width: 337
Flags: HW
HStem: 672 20G<33 132.836>
VStem: 33 272
LayerCount: 2
Fore
SplineSet
305 -26 m 5
 220 -50 l 1
 33 682 l 1
 118 702 l 1
 305 -26 l 5
EndSplineSet
EndChar

StartChar: bracketright
Encoding: 93 93 62
Width: 279
Flags: HW
HStem: -116 84<39 125> 596 104<39 125>
VStem: 125 109<130.4 592> 125 99<-28 453.6>
LayerCount: 2
Fore
SplineSet
39 700 m 1xe0
 234 696 l 1xe0
 224 -112 l 1
 39 -116 l 5
 36 -32 l 5
 125 -28 l 1xd0
 125 592 l 1
 36 596 l 1
 39 700 l 1xe0
EndSplineSet
Substitution2: "'case' +BCAENQQzBDgEQQRCBEAEPgQ3BDAEMgQ4BEEEOAQ8BEsENQAA +BEQEPgRABDwESwAA lookup 4 subtable" bracketright.cap
Substitution2: "'aalt' +BBIEQQQ1 +BDAEOwRMBEIENQRABD0EMARCBDgEMgQ9BEsENQAA +BDIEMARABDgEMAQ9BEIESwAA lookup 0 subtable" bracketright.cap
EndChar

StartChar: asciicircum
Encoding: 94 94 63
Width: 577
Flags: HW
HStem: 630 20G<245 340.571>
LayerCount: 2
Fore
SplineSet
543 207 m 1
 443 167 l 1
 289 534 l 1
 284 534 l 1
 124 177 l 1
 35 217 l 1
 245 644 l 1
 331 650 l 1
 543 207 l 1
EndSplineSet
EndChar

StartChar: underscore
Encoding: 95 95 64
Width: 611
Flags: HW
LayerCount: 2
Fore
SplineSet
54 -75 m 5
 250 -59 361 -59 554 -75 c 5
 558 -83 556 -126 554 -135 c 5
 367 -127 261 -133 54 -145 c 5
 56 -129 57 -89 54 -75 c 5
EndSplineSet
EndChar

StartChar: quoteleft
Encoding: 8216 8216 65
Width: 260
Flags: HW
HStem: 411 274
VStem: 40 180
LayerCount: 2
Fore
SplineSet
153 411 m 5
 40 431 l 1
 142 685 l 1
 220 672 l 1
 153 411 l 5
EndSplineSet
EndChar

StartChar: a
Encoding: 97 97 66
Width: 460
Flags: HW
HStem: -8 103.928<200.79 319.631> 558 124<187.56 329.242>
VStem: 41.4893 130.47<128.033 545.569> 344.063 131.48<119.972 543.331>
LayerCount: 2
Fore
SplineSet
152 234 m 1
 145 99 l 1
 37 100 l 1
 38 235 l 1
 152 234 l 1
139 108 m 1
 307 107 l 1
 307 -8 l 1
 139 -7 l 1
 139 108 l 1
296 406 m 1
 411 404 l 1
 412 92 l 1
 294 94 l 1
 296 406 l 1
143 328 m 1
 185.3515625 326.608398438 266.294921875 331.6171875 304 331 c 1
 305 222 l 1
 145 220 l 1
 143 328 l 1
82 513 m 1
 119.484375 516.548828125 262.856445312 520.431640625 303 516 c 1
 303 398 l 1
 261.666992188 398.029296875 150 408.279296875 82 397 c 1
 82 513 l 1
EndSplineSet
Substitution2: "'sups' +BBIENQRABEUEPQQ4BDkA +BDgEPQQ0BDUEOgRB lookup 12 subtable" a.superior
Substitution2: "'ordn' Ordinals lookup 11 subtable" a.superior
AlternateSubs2: "'aalt' +BBIEQQQ1 +BDAEOwRMBEIENQRABD0EMARCBDgEMgQ9BEsENQAA +BDIEMARABDgEMAQ9BEIESwAA lookup 1 subtable" ordfeminine a.superior
EndChar

StartChar: b
Encoding: 98 98 67
Width: 464
Flags: HW
HStem: -8 97<182.956 267.713> 387 110<180.348 323.5> 387 83<180.119 222.531> 672 20G<41 172>
VStem: 41 131<97.4846 381.463 470 692> 284 130<101.706 376.934>
LayerCount: 2
Fore
SplineSet
162 389 m 5
 316 387 l 5
 316 495 l 5
 163 496 l 5
 162 389 l 5
47 111 m 5
 176 109 l 5
 174 694 l 5
 48 691 l 5
 47 111 l 5
301 105 m 5
 343.3515625 106.391601562 377.294921875 106.3828125 415 107 c 5
 416 400 l 5
 303 397 l 5
 301 105 l 5
155 1 m 5
 192.484375 -2.548828125 266.856445312 -3.431640625 307 1 c 5
 307 119 l 5
 269.0234375 115.120117188 198.221679688 121.245117188 155 117 c 5
 155 1 l 5
EndSplineSet
EndChar

StartChar: c
Encoding: 99 99 68
Width: 415
Flags: HW
HStem: -2 21G<148 266> 101 105<266 367> 102 11<263 266> 110 4<148 159> 311 105<266 367> 399 13<260 266>
VStem: 148 11<399 412> 260 108<113 206 312 398> 260 6<102 113 398 417> 263 3<102 113 398 417>
LayerCount: 2
Fore
SplineSet
263 102 m 5xa240
 260 207 l 5xa280
 368 206 l 5
 367 101 l 5xc3
 263 102 l 5xa240
266 -2 m 5xa240
 148 -1 l 5
 148 114 l 5x9240
 266 113 l 5xa280
 266 -2 l 5xa240
263 312 m 5
 260 417 l 5x8a80
 368 416 l 5
 367 311 l 5x8b
 263 312 l 5
266 398 m 5
 148 399 l 5
 148 514 l 5
 266 513 l 5x8640
 266 398 l 5
159 110 m 5x96
 44 112 l 5
 43 414 l 5
 161 412 l 5
 159 110 l 5x96
EndSplineSet
EndChar

StartChar: d
Encoding: 100 100 69
Width: 461
Flags: HW
HStem: -8 97<187.747 275.984> 387 110<188.158 275.115>
VStem: 43 130<102.149 372.493> 284 131<94.1884 383.368 468 712>
LayerCount: 2
Fore
SplineSet
296 386 m 5
 142 384 l 5
 142 492 l 5
 295 493 l 5
 296 386 l 5
411 108 m 5
 282 106 l 5
 284 691 l 5
 410 688 l 5
 411 108 l 5
157 102 m 5
 114.6484375 103.391601562 80.705078125 103.3828125 43 104 c 5
 42 397 l 5
 155 394 l 5
 157 102 l 5
303 -2 m 5
 265.515625 -5.548828125 191.143554688 -6.431640625 151 -2 c 5
 151 116 l 5
 188.9765625 112.120117188 259.778320312 118.245117188 303 114 c 5
 303 -2 l 5
EndSplineSet
EndChar

StartChar: e
Encoding: 101 101 70
Width: 450
Flags: HW
HStem: -6 90<192.128 360.183> 188 92<173 261.2> 392 105<186.032 295.232>
VStem: 46 126<105.424 188 280 383.795>
LayerCount: 2
Fore
SplineSet
303 282 m 1
 310 417 l 1
 418 416 l 1
 417 281 l 1
 303 282 l 1
316 398 m 1
 148 399 l 1
 148 514 l 1
 316 513 l 1
 316 398 l 1
159 110 m 1
 44 112 l 1
 43 424 l 1
 161 422 l 1
 159 110 l 1
312 186 m 1
 269.6484375 187.391601562 188.705078125 188.3828125 151 189 c 1
 150 294 l 1
 310 296 l 1
 312 186 l 1
373 -1 m 1
 335.515625 -4.548828125 192.143554688 -4.431640625 152 0 c 1
 152 118 l 1
 193.333007812 117.970703125 301 113 373 115 c 1
 373 -1 l 1
EndSplineSet
EndChar

StartChar: f
Encoding: 102 102 71
Width: 309
Flags: HW
HStem: 371.071 110.782<12.1201 77.9014 209.086 289.306> 378.468 98.125<209.086 293.861> 583 117<216.576 309>
VStem: 78.1084 130.978<-10 372.334 480.622 577.594>
LayerCount: 2
Fore
SplineSet
161 489 m 1
 267 492 l 1
 267 384 l 1
 162 382 l 1
 161 489 l 1
150 695 m 5
 264 700 l 1
 264 592 l 1
 151 588 l 5
 150 695 l 5
49 600 m 1
 164 598 l 1
 165 -8 l 1
 125.666992188 -8.798828125 86.3330078125 -6.80859375 47 -6 c 1
 49 600 l 1
EndSplineSet
EndChar

StartChar: g
Encoding: 103 103 72
Width: 460
Flags: HW
HStem: -200 93<99.3617 262.726> 3 103<173.686 272.101> 377 120<174.792 272.627> 469 20G<293.172 412>
VStem: 34 130<111 366.508> 277 130<-94.9531 32 108.113 374.715>
LayerCount: 2
Fore
SplineSet
297 -93 m 5
 143 -91 l 5
 143 -199 l 5
 296 -200 l 5
 297 -93 l 5
297 108 m 5
 143 110 l 5
 143 2 l 5
 296 1 l 5
 297 108 l 5
412 386 m 5
 283 388 l 5
 285 -105 l 5
 411 -102 l 5
 412 386 l 5
158 392 m 5
 115.6484375 390.608398438 81.705078125 390.6171875 44 390 c 5
 43 97 l 5
 156 100 l 5
 158 392 l 5
304 496 m 5
 266.515625 499.548828125 192.143554688 500.431640625 152 496 c 5
 152 378 l 5
 304 380 l 5
 304 496 l 5
EndSplineSet
EndChar

StartChar: h
Encoding: 104 104 73
Width: 465
Flags: HW
HStem: -1.78711 21G<56.2894 187.577> 682.113 20G<45.9795 177.267>
VStem: 45.9795 134.825<237.138 381.314 448.143 700.133> 56.5918 130.985<0.193359 383.925 448.143 461.207> 282.481 130.985<11.1914 381.977>
LayerCount: 2
Fore
SplineSet
163 389 m 5
 317 387 l 5
 317 495 l 5
 164 496 l 5
 163 389 l 5
48 2 m 5
 177 0 l 5
 175 694 l 5
 49 691 l 5
 48 2 l 5
302 -2 m 5
 344.3515625 -0.6083984375 378.294921875 -0.6171875 416 0 c 5
 417 400 l 5
 304 397 l 5
 302 -2 l 5
EndSplineSet
EndChar

StartChar: i
Encoding: 105 105 74
Width: 229
Flags: HW
HStem: 469 20G<47 178> 568 132<36 169>
VStem: 36 133<568 700> 47 131<10 489>
LayerCount: 2
Fore
SplineSet
56 700 m 1xe0
 175 700 l 1
 169 578 l 5
 56 578 l 5
 56 700 l 1xe0
178 10 m 1xd0
 47 10 l 1
 47 489 l 1
 178 489 l 1
 178 10 l 1xd0
EndSplineSet
Substitution2: "'locl' Localized Forms in Latin lookup 2 subtable" i.dot
Substitution2: "'aalt' +BBIEQQQ1 +BDAEOwRMBEIENQRABD0EMARCBDgEMgQ9BEsENQAA +BDIEMARABDgEMAQ9BEIESwAA lookup 0 subtable" i.dot
EndChar

StartChar: j
Encoding: 106 106 75
Width: 288
Flags: HW
HStem: -200 21G<78.2281 166.5> 469 20G<103 235.461>
VStem: 103 132<188.7 489> 113 132<-58.5902 358.8>
LayerCount: 2
Fore
SplineSet
27 -91 m 1
 133 -87 l 1
 133 -195 l 1
 28 -198 l 1
 27 -91 l 1
119 488 m 1
 234 486 l 1
 235 -100 l 1
 195.666992188 -100.798828125 156.333007812 -98.80859375 117 -98 c 1
 119 488 l 1
113 720 m 1xd0
 244 710 l 1
 234 579 l 5
 103 589 l 5xe0
 113 720 l 1xd0
EndSplineSet
EndChar

StartChar: k
Encoding: 107 107 76
Width: 449
Flags: HW
HStem: 0 21G<44 175> 479 20G<275.357 332.442> 672 20G<44 175>
VStem: 44 131<0 249 275 692>
LayerCount: 2
Fore
SplineSet
169 318 m 1
 287 319 l 1
 287 204 l 1
 169 203 l 1
 169 318 l 1
279 501 m 1
 397 502 l 1
 387 317 l 1
 269 316 l 1
 279 501 l 1
280 215 m 1
 398 216 l 1
 408 1 l 1
 290 0 l 1
 280 215 l 1
47 0 m 1
 47 654 l 1
 178 654 l 1
 178 0 l 1
 47 0 l 1
EndSplineSet
EndChar

StartChar: l
Encoding: 108 108 77
Width: 222
Flags: HW
VStem: 42.2275 130.977<-8.86523 266.55> 57.5762 132.867<412.043 595.026>
LayerCount: 2
Fore
SplineSet
-36 713 m 1
 73 710 l 1
 73 602 l 1
 -35 606 l 1
 -36 713 l 1
56 608 m 1
 171 606 l 1
 172 -10 l 1
 132.666992188 -10.798828125 93.3330078125 -8.80859375 54 -8 c 1
 56 608 l 1
EndSplineSet
EndChar

StartChar: m
Encoding: 109 109 78
Width: 673
Flags: HW
HStem: -10 31G<57.3377 188 277 407 496 626.633> 379 118<421.175 505.414> 389 108<189.627 273.824>
VStem: 48 130<98 385.252> 58 130<8 211.4> 277 130<-10 368.201> 496 130<0 194.6> 506 130<88.8 373.719>
LayerCount: 2
Fore
SplineSet
386 389 m 1
 521 387 l 1
 521 495 l 1
 387 496 l 1
 386 389 l 1
509 -2 m 1
 551.3515625 -0.6083984375 585.294921875 -0.6171875 623 0 c 1
 624 400 l 1
 511 397 l 1
 509 -2 l 1
160 389 m 1
 294 387 l 1
 294 495 l 1
 161 496 l 1
 160 389 l 1
45 2 m 1
 174 0 l 1
 172 401 l 1
 46 398 l 1
 45 2 l 1
279 -2 m 1
 321.3515625 -0.6083984375 355.294921875 -0.6171875 393 0 c 1
 394 400 l 1
 281 397 l 1
 279 -2 l 1
EndSplineSet
EndChar

StartChar: n
Encoding: 110 110 79
Width: 463
Flags: HW
HStem: 0 21G<48 179> 377 120<197.298 281.252>
VStem: 48 131<0 370.563> 283 131<10 373.689>
LayerCount: 2
Fore
SplineSet
160 389 m 5
 314 387 l 5
 314 495 l 5
 161 496 l 5
 160 389 l 5
45 2 m 5
 174 0 l 5
 172 401 l 5
 46 398 l 5
 45 2 l 5
299 -2 m 5
 341.3515625 -0.6083984375 375.294921875 -0.6171875 413 0 c 5
 414 400 l 5
 301 397 l 5
 299 -2 l 5
EndSplineSet
EndChar

StartChar: o
Encoding: 111 111 80
Width: 471
Flags: HW
HStem: -8 90<193.31 277.792> 388 109<190.384 281.134>
VStem: 49 130<92.7728 380.724> 292 131<90.2159 380.783>
LayerCount: 2
Fore
SplineSet
162 103 m 1
 314 104 l 5
 314 -11 l 5
 162 -12 l 1
 162 103 l 1
307 391 m 1
 422 389 l 1
 423 84 l 1
 305 86 l 1
 307 391 l 1
43 398 m 1
 172 400 l 1
 170 86 l 1
 44 89 l 1
 43 398 l 1
166 491 m 1
 203.484375 494.548828125 275.856445312 498.431640625 316 494 c 1
 316 376 l 1
 274.666992188 371.801757812 207.333007812 366.209960938 166 375 c 1
 166 491 l 1
EndSplineSet
Substitution2: "'sups' +BBIENQRABEUEPQQ4BDkA +BDgEPQQ0BDUEOgRB lookup 12 subtable" o.superior
Substitution2: "'ordn' Ordinals lookup 11 subtable" o.superior
AlternateSubs2: "'aalt' +BBIEQQQ1 +BDAEOwRMBEIENQRABD0EMARCBDgEMgQ9BEsENQAA +BDIEMARABDgEMAQ9BEIESwAA lookup 1 subtable" ordmasculine o.superior
EndChar

StartChar: p
Encoding: 112 112 81
Width: 462
Flags: HW
HStem: -194.125 21G<45.7731 177.103> 20.1348 68.8652<180.55 203.627> 377 121.506<175.182 274.813>
VStem: 36.9199 114.899<452.823 506.709> 46.123 130.979<-191.833 20.1348 92.075 205.896> 281.084 128.297<102.286 366.989>
LayerCount: 2
Fore
SplineSet
160 105 m 5
 314 107 l 5
 314 -1 l 5
 161 -2 l 5
 160 105 l 5
45 383 m 5
 174 385 l 5
 172 -200 l 5
 46 -197 l 5
 45 383 l 5
299 389 m 5
 341.3515625 387.608398438 375.294921875 387.6171875 413 387 c 5
 414 94 l 5
 301 97 l 5
 299 389 l 5
153 493 m 5
 190.484375 496.548828125 264.856445312 497.431640625 305 493 c 5
 305 375 l 5
 267.0234375 378.879882812 196.221679688 372.754882812 153 377 c 5
 153 493 l 5
EndSplineSet
EndChar

StartChar: q
Encoding: 113 113 82
Width: 461
Flags: HW
HStem: -202 21G<276 407> -8 97<113.515 257.154> 32 57<253.279 268.896> 387 110<179.901 268.302>
VStem: 34 131<102.051 372.953> 276 131<-202 32 95.0826 381.32>
LayerCount: 2
Fore
SplineSet
297 108 m 5
 143 110 l 5
 143 2 l 5
 296 1 l 5
 297 108 l 5
412 386 m 5
 283 388 l 5
 285 -197 l 5
 411 -194 l 5
 412 386 l 5
158 392 m 5
 115.6484375 390.608398438 81.705078125 390.6171875 44 390 c 5
 43 97 l 5
 156 100 l 5
 158 392 l 5
304 496 m 5
 266.515625 499.548828125 192.143554688 500.431640625 152 496 c 5
 152 378 l 5
 304 380 l 5
 304 496 l 5
EndSplineSet
EndChar

StartChar: r
Encoding: 114 114 83
Width: 340
Flags: HW
HStem: -7 21G<51.4269 184> 365 130<179.453 292.367>
VStem: 42 132<97.7 363.578> 52 132<0 173.6>
LayerCount: 2
Fore
SplineSet
145 496 m 1
 298 495 l 1
 298 387 l 1
 146 389 l 1
 145 496 l 1
46 404 m 1
 161 402 l 1
 163 -10 l 1
 123.666992188 -10.798828125 84.3330078125 -8.80859375 45 -8 c 1
 46 404 l 1
EndSplineSet
EndChar

StartChar: s
Encoding: 115 115 84
Width: 407
Flags: HW
HStem: -6 92<60.9617 203.437> 389 108<154.616 288.999>
VStem: 30 120<309.338 384.507> 206 110<89.7266 160.323>
LayerCount: 2
Fore
SplineSet
152 309 m 5
 257 311 l 5
 257 203 l 5
 153 202 l 5
 152 309 l 5
255 102 m 5xa240
 252 209 l 5xa280
 364 208 l 5
 363 101 l 5xc3
 255 102 l 5xa240
262 -2 m 5xa240
 64 -1 l 5
 64 114 l 5x9240
 262 113 l 5xa280
 262 -2 l 5xa240
352 398 m 5
 144 399 l 5
 144 514 l 5
 352 513 l 5x8640
 352 398 l 5
159 300 m 5x96
 40 302 l 5
 39 414 l 5
 161 412 l 5
 159 300 l 5x96
EndSplineSet
EndChar

StartChar: t
Encoding: 116 116 85
Width: 307
Flags: HW
HStem: -37 122<181.808 250> 396 105.354<175 270.669> 396 97.6689<-14 43.8574>
VStem: 44 131<93.9394 396 501.354 640>
LayerCount: 2
Fore
SplineSet
161 494 m 1
 267 492 l 1
 267 384 l 1
 162 387 l 1
 161 494 l 1
144 67 m 1
 250 65 l 1
 250 -43 l 1
 145 -40 l 1
 144 67 l 1
49 640 m 1
 164 638 l 1
 165 52 l 1
 125.666992188 51.201171875 86.3330078125 53.19140625 47 54 c 1
 49 640 l 1
EndSplineSet
EndChar

StartChar: u
Encoding: 117 117 86
Width: 460
Flags: HW
HStem: -18 100<117.5 269.079> 0 21G<294.625 412> 469 20G<46 178>
VStem: 46 132<90.676 489> 277 131<85.0836 479>
LayerCount: 2
Fore
SplineSet
151 108 m 5
 312 109 l 5
 312 -6 l 5
 151 -7 l 5
 151 108 l 5
295 477 m 5
 410 475 l 5
 411 99 l 5
 293 101 l 5
 295 477 l 5
47 490 m 5
 176 492 l 5
 174 100 l 5
 48 103 l 5
 47 490 l 5
EndSplineSet
EndChar

StartChar: v
Encoding: 118 118 87
Width: 575
Flags: HW
HStem: 0 21G<158.56 290.47> 469 20G<283.696 416>
LayerCount: 2
Fore
SplineSet
235 95 m 1
 340 97 l 1
 340 -11 l 1
 236 -12 l 1
 235 95 l 1
425 499 m 1
 530 497 l 1
 531 178 l 5
 423 180 l 5
 425 499 l 1
42 506 m 1
 161 508 l 1
 159 180 l 5
 43 183 l 5
 42 506 l 1
328 191 m 1
 370.3515625 189.608398438 394.294921875 189.6171875 432 189 c 1
 433 79 l 1
 330 82 l 1
 328 191 l 1
245 189 m 1
 246 83 l 1
 141 83 l 1
 141 192 l 1
 179.232421875 191.651367188 213 191 245 189 c 1
EndSplineSet
EndChar

StartChar: w
Encoding: 119 119 88
Width: 674
Flags: HW
HStem: -9 30G<116.082 233 367 483.153> 469 20G<1 144.43 474.858 604>
LayerCount: 2
Fore
SplineSet
386 -1 m 1
 521 -3 l 1
 521 105 l 1
 387 106 l 1
 386 -1 l 1
509 88 m 1
 551.3515625 89.3916015625 585.294921875 89.3828125 623 90 c 1
 624 490 l 1
 511 487 l 1
 509 88 l 1
160 -1 m 1
 294 -3 l 1
 294 105 l 1
 161 106 l 1
 160 -1 l 1
45 92 m 1
 174 90 l 1
 172 491 l 1
 46 488 l 1
 45 92 l 1
279 88 m 1
 321.3515625 89.3916015625 355.294921875 89.3828125 393 90 c 1
 394 490 l 1
 281 487 l 1
 279 88 l 1
EndSplineSet
EndChar

StartChar: x
Encoding: 120 120 89
Width: 575
Flags: HW
HStem: 0 21G<31 160.627> 469 20G<264.903 394>
LayerCount: 2
Fore
SplineSet
425 109 m 5
 530 107 l 5
 531 -8 l 5
 423 -6 l 5
 425 109 l 5
42 106 m 5
 161 108 l 5
 159 -6 l 5
 43 -3 l 5
 42 106 l 5
235 295 m 5
 340 297 l 5
 340 189 l 5
 236 188 l 5
 235 295 l 5
325 200 m 5
 429 198 l 5
 429 90 l 5
 326 93 l 5
 325 200 l 5
240 198 m 5
 237 91 l 5
 139 92 l 5
 136 199 l 5
 240 198 l 5
425 499 m 5
 530 497 l 5
 531 378 l 5
 423 380 l 5
 425 499 l 5
42 506 m 5
 161 508 l 5
 159 380 l 5
 43 383 l 5
 42 506 l 5
328 391 m 5
 370.3515625 389.608398438 394.294921875 389.6171875 432 389 c 5
 433 279 l 5
 330 282 l 5
 328 391 l 5
245 389 m 5
 246 283 l 5
 141 283 l 5
 141 392 l 5
 179.232421875 391.651367188 213 391 245 389 c 5
EndSplineSet
EndChar

StartChar: y
Encoding: 121 121 90
Width: 464
Flags: HW
HStem: 469 20G<22 156.742>
LayerCount: 2
Fore
SplineSet
299 -93 m 1
 145 -91 l 1
 145 -199 l 1
 298 -200 l 1
 299 -93 l 1
299 108 m 1
 145 110 l 1
 145 2 l 1
 298 1 l 1
 299 108 l 1
414 496 m 5
 285 498 l 5
 287 -105 l 1
 413 -102 l 1
 414 496 l 5
160 492 m 1
 117.6484375 490.608398438 83.705078125 490.6171875 46 490 c 1
 45 97 l 1
 158 100 l 1
 160 492 l 1
EndSplineSet
EndChar

StartChar: z
Encoding: 122 122 91
Width: 388
Flags: HW
HStem: 0 107<181.524 329.524> 392 107<42.1755 210.607>
VStem: 39.5244 306
LayerCount: 2
Fore
SplineSet
42 106 m 1
 351 108 l 1
 349 -6 l 1
 43 -3 l 1
 42 106 l 1
140 295 m 1
 245 297 l 1
 245 189 l 1
 141 188 l 1
 140 295 l 1
145 198 m 1
 142 91 l 1
 44 92 l 1
 41 199 l 1
 145 198 l 1
42 506 m 1
 351 508 l 1
 349 380 l 1
 43 383 l 1
 42 506 l 1
243 391 m 5
 285.3515625 389.608398438 309.294921875 389.6171875 347 389 c 5
 348 279 l 5
 245 282 l 5
 243 391 l 5
EndSplineSet
EndChar

StartChar: braceleft
Encoding: 123 123 92
Width: 295
Flags: HW
HStem: 218 89<41 90.7061> 600 83<185.569 254.37>
VStem: 35 225
LayerCount: 2
Fore
SplineSet
41 218 m 1
 35 307 l 1
 89 307 101 336 101 363 c 0
 101 417.862304688 95.1787109375 485.213867188 89 540 c 0
 74 673 143.612304688 668.017578125 241 683 c 2
 254 685 l 1
 260 602 l 1
 245 600 l 2
 159.565429688 588.608398438 174.900390625 585.987304688 199 391 c 0
 210 302 207 302 133 270 c 1
 133 268 l 1
 211 258 209 241 199 144 c 0
 184.153320312 -0.015625 168.529296875 -15.8828125 237 -33 c 6
 253 -37 l 5
 248 -114 l 5
 229 -112 l 6
 140.506835938 -102.684570312 97 -98 103 31 c 0
 106.721679688 111.013671875 111 118.217773438 111 172 c 0
 111 196 95 218 41 218 c 1
EndSplineSet
Substitution2: "'case' +BCAENQQzBDgEQQRCBEAEPgQ3BDAEMgQ4BEEEOAQ8BEsENQAA +BEQEPgRABDwESwAA lookup 4 subtable" braceleft.cap
Substitution2: "'aalt' +BBIEQQQ1 +BDAEOwRMBEIENQRABD0EMARCBDgEMgQ9BEsENQAA +BDIEMARABDgEMAQ9BEIESwAA lookup 0 subtable" braceleft.cap
EndChar

StartChar: bar
Encoding: 124 124 93
Width: 203
Flags: HW
VStem: 54 97<-240 750>
LayerCount: 2
Fore
SplineSet
48 750 m 1
 155 760 l 5
 151 -240 l 5
 54 -250 l 1
 48 750 l 1
EndSplineSet
EndChar

StartChar: braceright
Encoding: 125 125 94
Width: 296
Flags: HW
HStem: -113 72<40 97.9556> 228 89<200.472 261>
VStem: 97 98<-35.8133 222.283 324.439 564.948>
LayerCount: 2
Fore
SplineSet
261 317 m 1
 261 228 l 1
 207 228 195 216 195 192 c 0
 195 138.2578125 203.643554688 66.12109375 207 12 c 0
 215 -117 183.341796875 -106.173828125 61 -112 c 6
 40 -113 l 5
 36 -41 l 1
 49 -41 l 1
 95 -37 109 -29 105 19 c 0
 101.541992188 60.5 97 123.6171875 97 164 c 0
 97 232 123 262 173 278 c 1
 173 280 l 1
 123 296 97 327 97 391 c 0
 97 432.88671875 105 501.934570312 105 546 c 0
 105 584 89 591 51 595 c 1
 36 595 l 1
 44 706 l 1
 62 705 l 2
 205.224609375 697.04296875 215 690 207 550 c 0
 203.854492188 494.9609375 195 417.858398438 195 363 c 0
 195 336 207 317 261 317 c 1
EndSplineSet
Substitution2: "'case' +BCAENQQzBDgEQQRCBEAEPgQ3BDAEMgQ4BEEEOAQ8BEsENQAA +BEQEPgRABDwESwAA lookup 4 subtable" braceright.cap
Substitution2: "'aalt' +BBIEQQQ1 +BDAEOwRMBEIENQRABD0EMARCBDgEMgQ9BEsENQAA +BDIEMARABDgEMAQ9BEIESwAA lookup 0 subtable" braceright.cap
EndChar

StartChar: asciitilde
Encoding: 126 126 95
Width: 567
Flags: HW
LayerCount: 2
Fore
SplineSet
126 201 m 5
 42 221 l 5
 113 442 139 398 310 320 c 0
 406.080078125 276.173828125 403 255 441 361 c 1
 524 341 l 1
 456 160 445.124023438 159.611328125 271 237 c 4
 172 281 167 300 126 201 c 5
EndSplineSet
EndChar

StartChar: exclamdown
Encoding: 161 161 96
Width: 239
Flags: HW
HStem: 241 20G<68.3658 181.677> 333 161<54 182>
VStem: 54 143<-212 -5.0625> 54 128<333 426.917> 69 112<54.0625 261>
LayerCount: 2
Fore
SplineSet
197 -212 m 1xe0
 54 -212 l 1xe0
 69 261 l 1
 181 261 l 1xc8
 197 -212 l 1xe0
191 495 m 0
 182 333 l 0
 54 333 l 4xd0
 42 494 l 0
 191 495 l 0
EndSplineSet
Substitution2: "'case' +BCAENQQzBDgEQQRCBEAEPgQ3BDAEMgQ4BEEEOAQ8BEsENQAA +BEQEPgRABDwESwAA lookup 4 subtable" exclamdown.cap
Substitution2: "'aalt' +BBIEQQQ1 +BDAEOwRMBEIENQRABD0EMARCBDgEMgQ9BEsENQAA +BDIEMARABDgEMAQ9BEIESwAA lookup 0 subtable" exclamdown.cap
EndChar

StartChar: cent
Encoding: 162 162 97
Width: 397
Flags: HW
HStem: -7 21G<187 281> 461 101<283 345.77>
VStem: 40 130<203.273 439.646> 187 94<-7 90 562 656>
LayerCount: 2
Fore
SplineSet
281 -7 m 1
 187 -7 l 1
 187 93 l 1
 90.4375 104.141601562 40 135 40 324 c 0
 40 526 93 543 189 555 c 1
 189 656 l 1
 283 656 l 1
 283 562 l 1
 317 561 346 554 363 545 c 1
 347 445 l 1
 321 458 279 461 252 461 c 0
 194 461 170 446 170 322 c 0
 170 206 176 188 258 188 c 0
 275 188 311 191 337 198 c 5
 347 100 l 5
 328 94 306 91 281 90 c 5
 281 -7 l 1
EndSplineSet
Substitution2: "'onum' Oldstyle Figures lookup 14 subtable" cent.taboldstyle
Substitution2: "'subs' +BB0EOAQ2BD0EOAQ5 +BDgEPQQ0BDUEOgRB lookup 13 subtable" cent.inferior
Substitution2: "'sups' +BBIENQRABEUEPQQ4BDkA +BDgEPQQ0BDUEOgRB lookup 12 subtable" cent.superior
Substitution2: "'dnom' Denominators lookup 6 subtable" cent.denominator
Substitution2: "'numr' Numerators lookup 5 subtable" cent.numerator
AlternateSubs2: "'aalt' +BBIEQQQ1 +BDAEOwRMBEIENQRABD0EMARCBDgEMgQ9BEsENQAA +BDIEMARABDgEMAQ9BEIESwAA lookup 1 subtable" cent.numerator cent.denominator cent.superior cent.inferior cent.taboldstyle
EndChar

StartChar: sterling
Encoding: 163 163 98
Width: 420
Flags: HW
HStem: -10 110<244.7 377> 0 110<185 275.9> 0 82<40 70.3663> 275 87<48 108> 287 87<244 336> 548 110<213.011 346.585>
VStem: 108 124<371 435.873> 122 122<161.909 278>
LayerCount: 2
Fore
SplineSet
377 -10 m 1x85
 40 0 l 5
 36 82 l 1
 110.8671875 111.947265625 137.587890625 194.864257812 122 278 c 1x25
 48 275 l 1
 43 362 l 1
 108 365 l 1
 62 568 43 658 282 658 c 0
 304 658 337 656 365 651 c 1
 345 543 l 1
 331 546 314 548 289 548 c 0
 141 548 219.262695312 441.0546875 232 371 c 1x36
 336 374 l 1
 340 287 l 1
 244 284 l 1
 248.704101562 208.73828125 228.861328125 152.487304688 185 112 c 1
 185 110 l 1x4d
 384 100 l 1
 377 -10 l 1x85
EndSplineSet
Substitution2: "'onum' Oldstyle Figures lookup 14 subtable" sterling.taboldstyle
Substitution2: "'aalt' +BBIEQQQ1 +BDAEOwRMBEIENQRABD0EMARCBDgEMgQ9BEsENQAA +BDIEMARABDgEMAQ9BEIESwAA lookup 0 subtable" sterling.taboldstyle
EndChar

StartChar: fraction
Encoding: 8260 8260 99
Width: 472
Flags: HW
HStem: 678 20G<351.546 400>
LayerCount: 2
Fore
SplineSet
91 -18 m 1
 32 2 l 1
 361 698 l 5
 439 658 l 1
 91 -18 l 1
EndSplineSet
EndChar

StartChar: yen
Encoding: 165 165 100
Width: 486
Flags: HW
HStem: -5 21G<182.1 302> 281 77<52 154 330 433> 640 20G<333.763 451>
VStem: 182 120<0 138.38 215.228 281>
LayerCount: 2
Fore
SplineSet
302 0 m 1
 182 -5 l 5
 182.719726562 138.379882812 l 1
 55.1796875 127.454101562 l 1
 49.5498046875 194.217773438 l 1
 182.08984375 205.142578125 l 1
 182 281 l 1
 52 281 l 1
 52 358 l 1
 154 358 l 1
 36 650 l 1
 155 670 l 1
 251 381 l 1
 253 381 l 1
 340 660 l 1
 451 640 l 1
 330 358 l 1
 433 358 l 1
 433 281 l 1
 302 281 l 1
 301.665039062 215.227539062 l 1
 429.201171875 226.236328125 l 1
 434.83203125 159.473632812 l 1
 302.295898438 148.463867188 l 1
 302 0 l 1
EndSplineSet
Substitution2: "'onum' Oldstyle Figures lookup 14 subtable" yen.taboldstyle
Substitution2: "'aalt' +BBIEQQQ1 +BDAEOwRMBEIENQRABD0EMARCBDgEMgQ9BEsENQAA +BDIEMARABDgEMAQ9BEIESwAA lookup 0 subtable" yen.taboldstyle
EndChar

StartChar: florin
Encoding: 402 402 101
Width: 462
Flags: HW
HStem: -64 84<46 118.843> 289 113<108 163 295 375>
LayerCount: 2
Fore
SplineSet
108 289 m 1
 99 402 l 1
 171 402 l 1
 175 448 l 2
 193.0859375 655.9921875 258 718 430 656 c 1
 413 539 l 1
 343.291015625 562.236328125 312.255859375 567.661132812 300 450 c 2
 295 402 l 1
 386 402 l 1
 375 289 l 5
 287 289 l 1
 270 107 l 2
 252.905273438 -76.0185546875 172 -119 28 -64 c 1
 46 20 l 1
 110 8 135.38671875 -0.1328125 146 111 c 2
 163 289 l 1
 108 289 l 1
EndSplineSet
Substitution2: "'onum' Oldstyle Figures lookup 14 subtable" florin.taboldstyle
Substitution2: "'aalt' +BBIEQQQ1 +BDAEOwRMBEIENQRABD0EMARCBDgEMgQ9BEsENQAA +BDIEMARABDgEMAQ9BEIESwAA lookup 0 subtable" florin.taboldstyle
EndChar

StartChar: section
Encoding: 167 167 102
Width: 437
Flags: HW
HStem: 575 92<256.037 339>
VStem: 36 107<301.406 384.902> 269 107<26.0774 130.322> 309 92<240.957 333.885>
LayerCount: 2
Fore
SplineSet
143 333 m 0xd0
 142 298 201 280 284 234 c 1
 296 243 309 277 309 298 c 0
 309 340 244 357 175 396 c 1
 159 386 143.627929688 354.991210938 143 333 c 0xd0
359 667 m 5
 339 575 l 1
 219 605 180 619.381835938 180 551 c 0
 180 515 191 513 255 481 c 0
 395.8203125 410.58984375 401 381 401 316 c 0xd0
 401 265 363 210 344 189 c 1
 357 177 377.413085938 145.974609375 376 106 c 0
 369 -92 273 -110 82 -25 c 1
 105 50 l 1
 227 0 269 -1.7529296875 269 88 c 0xe0
 269 120 255 133 176 169 c 0
 40.2646484375 230.854492188 36 248 36 329 c 0
 36 375 91 432 105 449 c 1
 87 469 69.5126953125 498.076171875 72 532 c 4
 83 682 101 731 359 667 c 5
EndSplineSet
EndChar

StartChar: currency
Encoding: 164 164 103
Width: 505
Flags: HW
HStem: 116 81<206.827 292.876> 435 101<207.302 292.889>
VStem: 84 111<207.954 425.665> 303 112<209.686 428.319>
LayerCount: 2
Fore
SplineSet
253 536 m 0
 305 536 328 522 352 500 c 1
 417 575 l 1
 471 519 l 1
 393 443 l 1
 408 409 415 394 415 328 c 0
 415 259 407 244 392 213 c 1
 470 132 l 1
 416 77 l 1
 349 154 l 1
 321 129 286 116 249 116 c 0
 194 116 177 129 151 152 c 1
 89 77 l 1
 35 132 l 1
 108 207 l 1
 92 239 84 258 84 322 c 0
 84 391 94 410 111 443 c 1
 43 503 l 1
 99 561 l 1
 153 497 l 1
 181 523 201 536 253 536 c 0
250 435 m 4
 209 435 195 415 195 324 c 4
 195 200 214 197 250 197 c 0
 292 197 303 206 303 326 c 4
 303 419 293 435 250 435 c 4
EndSplineSet
EndChar

StartChar: quotesingle
Encoding: 39 39 104
Width: 204
Flags: HW
HStem: 422 260<64 149>
VStem: 44 115<591 682>
LayerCount: 2
Fore
SplineSet
44 682 m 1
 159 682 l 1
 149 422 l 1
 64 422 l 1
 44 682 l 1
EndSplineSet
EndChar

StartChar: quotedblleft
Encoding: 8220 8220 105
Width: 415
Flags: HW
HStem: 411 274
LayerCount: 2
Fore
SplineSet
153 431 m 1
 40 441 l 1
 142 685 l 5
 220 672 l 1
 153 431 l 1
308 411 m 1
 195 421 l 1
 308 685 l 1
 375 672 l 1
 308 411 l 1
EndSplineSet
EndChar

StartChar: guillemotleft
Encoding: 171 171 106
Width: 425
Flags: HW
LayerCount: 2
Fore
SplineSet
218 447 m 1
 135 259 l 1
 233 77 l 1
 153 57 l 1
 38 252 l 1
 123 467 l 1
 218 447 l 1
388 427 m 1
 300 243 l 1
 373 87 l 5
 294 67 l 5
 208 252 l 1
 293 447 l 1
 388 427 l 1
EndSplineSet
Substitution2: "'case' +BCAENQQzBDgEQQRCBEAEPgQ3BDAEMgQ4BEEEOAQ8BEsENQAA +BEQEPgRABDwESwAA lookup 4 subtable" guillemotleft.cap
Substitution2: "'aalt' +BBIEQQQ1 +BDAEOwRMBEIENQRABD0EMARCBDgEMgQ9BEsENQAA +BDIEMARABDgEMAQ9BEIESwAA lookup 0 subtable" guillemotleft.cap
EndChar

StartChar: guilsinglleft
Encoding: 8249 8249 107
Width: 276
Flags: HW
VStem: 38 200
LayerCount: 2
Fore
SplineSet
238 437 m 1
 130 252 l 1
 238 87 l 5
 143 67 l 1
 38 252 l 1
 143 457 l 1
 238 437 l 1
EndSplineSet
Substitution2: "'case' +BCAENQQzBDgEQQRCBEAEPgQ3BDAEMgQ4BEEEOAQ8BEsENQAA +BEQEPgRABDwESwAA lookup 4 subtable" guilsinglleft.cap
Substitution2: "'aalt' +BBIEQQQ1 +BDAEOwRMBEIENQRABD0EMARCBDgEMgQ9BEsENQAA +BDIEMARABDgEMAQ9BEIESwAA lookup 0 subtable" guilsinglleft.cap
EndChar

StartChar: guilsinglright
Encoding: 8250 8250 108
Width: 276
Flags: HW
VStem: 38 200
LayerCount: 2
Fore
SplineSet
146 252 m 1
 38 417 l 5
 132 437 l 1
 238 252 l 1
 133 47 l 5
 38 67 l 1
 146 252 l 1
EndSplineSet
Substitution2: "'case' +BCAENQQzBDgEQQRCBEAEPgQ3BDAEMgQ4BEEEOAQ8BEsENQAA +BEQEPgRABDwESwAA lookup 4 subtable" guilsinglright.cap
Substitution2: "'aalt' +BBIEQQQ1 +BDAEOwRMBEIENQRABD0EMARCBDgEMgQ9BEsENQAA +BDIEMARABDgEMAQ9BEIESwAA lookup 0 subtable" guilsinglright.cap
EndChar

StartChar: fi
Encoding: 64257 64257 109
Width: 513
Flags: HW
HStem: 0 21G<89 220 336.241 469> 384 93<36 89> 391 93<220 322> 577 113<227.029 403>
VStem: 89 131<0 384 484 583.305> 322 132<263.133 395> 337 132<5 184.333>
LayerCount: 2
Fore
SplineSet
220 0 m 1xbc
 89 0 l 1
 89 384 l 1
 36 383 l 5
 33 475 l 1
 89 477 l 1xdc
 89 515 l 2
 89 720 122 737 422 690 c 1
 403 577 l 1
 230 600 220 600.372070312 220 527 c 2
 220 484 l 1
 454 489 l 1xbc
 469 5 l 1
 337 0 l 1xba
 322 395 l 1
 220 391 l 1
 220 0 l 1xbc
EndSplineSet
EndChar

StartChar: fl
Encoding: 64258 64258 110
Width: 526
Flags: HW
HStem: 386 103<34 100 231 302> 587 113<235.077 341.47>
VStem: 100 131<-20 386 489 582.515> 343 132<20 586.572>
LayerCount: 2
Fore
SplineSet
231 -20 m 1
 100 -20 l 1
 100 386 l 1
 34 386 l 1
 34 489 l 1
 100 489 l 1
 100 578 l 2
 100 675.44921875 115 700 279 700 c 4
 340 700 420 694 475 684 c 5
 475 20 l 1
 343 20 l 1
 343 585 l 5
 333 586 320 587 301 587 c 0
 250 587 231 587 231 544 c 2
 231 489 l 1
 302 489 l 1
 302 386 l 1
 231 386 l 1
 231 -20 l 1
EndSplineSet
EndChar

StartChar: endash
Encoding: 8211 8211 111
Width: 534
Flags: HW
HStem: 205 100<57 351> 215 90<183 477>
LayerCount: 2
Fore
SplineSet
47 305 m 1x40
 487 305 l 1
 477 215 l 5x40
 57 205 l 1x80
 47 305 l 1x40
EndSplineSet
Substitution2: "'case' +BCAENQQzBDgEQQRCBEAEPgQ3BDAEMgQ4BEEEOAQ8BEsENQAA +BEQEPgRABDwESwAA lookup 4 subtable" endash.cap
Substitution2: "'aalt' +BBIEQQQ1 +BDAEOwRMBEIENQRABD0EMARCBDgEMgQ9BEsENQAA +BDIEMARABDgEMAQ9BEIESwAA lookup 0 subtable" endash.cap
EndChar

StartChar: dagger
Encoding: 8224 8224 112
Width: 435
Flags: HW
HStem: 364 127<37 175 274 398> 654 20G<162 273.106>
VStem: 162 111<-51 175.692 572.231 674> 175 99<143.308 370 485 586.769>
LayerCount: 2
Fore
SplineSet
162 674 m 1xe0
 273 674 l 1xe0
 274 485 l 5
 398 491 l 1
 398 364 l 1
 274 370 l 5xd0
 273 -51 l 1
 162 -51 l 1xe0
 175 370 l 5
 37 364 l 1
 37 491 l 1
 175 485 l 5xd0
 162 674 l 1xe0
EndSplineSet
EndChar

StartChar: daggerdbl
Encoding: 8225 8225 113
Width: 455
Flags: HW
HStem: 127 107<37 174 274 398> 383 117<57 181 280 418> 654 20G<172 283>
VStem: 174 100<-9.33333 133> 181 99<228 389 494 554>
LayerCount: 2
Fore
SplineSet
172 674 m 1xe8
 283 674 l 1
 280 494 l 1
 418 500 l 1
 418 383 l 1
 280 389 l 1xe8
 274 228 l 1
 398 234 l 5
 398 127 l 5
 274 133 l 1
 283 -50 l 1
 172 -50 l 1
 174 133 l 1xf0
 37 127 l 5
 37 234 l 5
 175 228 l 1
 181 389 l 1
 57 383 l 1
 57 500 l 1
 181 494 l 1
 172 674 l 1xe8
EndSplineSet
EndChar

StartChar: periodcentered
Encoding: 183 183 114
Width: 303
Flags: HW
HStem: 183 173<68.9286 196.94>
VStem: 55 152<196.93 345.068>
LayerCount: 2
Fore
SplineSet
213 277 m 1
 210 170 l 1
 102 171 l 1
 99 278 l 1
 213 277 l 1
258 324 m 1
 255 217 l 1
 147 218 l 1
 144 325 l 1
 258 324 l 1
213 386 m 1
 210 279 l 1
 102 280 l 1
 99 387 l 1
 213 386 l 1
159 324 m 1
 156 217 l 1
 48 218 l 1
 45 325 l 1
 159 324 l 1
EndSplineSet
Substitution2: "'case' +BCAENQQzBDgEQQRCBEAEPgQ3BDAEMgQ4BEEEOAQ8BEsENQAA +BEQEPgRABDwESwAA lookup 4 subtable" periodcentered.cap
Substitution2: "'aalt' +BBIEQQQ1 +BDAEOwRMBEIENQRABD0EMARCBDgEMgQ9BEsENQAA +BDIEMARABDgEMAQ9BEIESwAA lookup 0 subtable" periodcentered.cap
EndChar

StartChar: paragraph
Encoding: 182 182 115
Width: 432
Flags: HW
HStem: 601 73<258 314.339>
VStem: 37 221<339.783 571.461> 196 72<-70 264> 306 72<-30 411.7> 316 72<177.4 601>
LayerCount: 2
Fore
SplineSet
268 -70 m 1xa0
 196 -70 l 1xa0
 193 264 l 5
 186 264 l 6
 101 264 37 315 37 452 c 0
 37 564 73 674 250 674 c 0
 305 674 357 671 388 666 c 1xc8
 378 -32 l 1
 306 -30 l 1x90
 316 601 l 1
 258 601 l 1xc8
 268 -70 l 1xa0
EndSplineSet
EndChar

StartChar: bullet
Encoding: 8226 8226 116
Width: 301
Flags: HW
HStem: 158 219<84.7622 215.538>
VStem: 45 211<199.082 350.509>
LayerCount: 2
Fore
SplineSet
150 158 m 0
 91 158 45 201 45 266 c 0
 45 334 57 377 151 377 c 4
 247 377 256 336 256 267 c 0
 256 201 212 158 150 158 c 0
EndSplineSet
EndChar

StartChar: quotesinglbase
Encoding: 8218 8218 117
Width: 264
Flags: HW
HStem: -110 271
VStem: 42 180
LayerCount: 2
Fore
SplineSet
109 -110 m 1
 42 -99 l 1
 109 161 l 5
 222 141 l 1
 109 -110 l 1
EndSplineSet
EndChar

StartChar: quotedblbase
Encoding: 8222 8222 118
Width: 419
Flags: HW
HStem: -110 271
LayerCount: 2
Fore
SplineSet
110 -100 m 5
 42 -79 l 5
 109 161 l 5
 222 141 l 5
 110 -100 l 5
265 -110 m 1
 197 -99 l 1
 264 151 l 1
 377 141 l 1
 265 -110 l 1
EndSplineSet
EndChar

StartChar: quotedblright
Encoding: 8221 8221 119
Width: 425
Flags: HW
HStem: 420 264
LayerCount: 2
Fore
SplineSet
118 684 m 1
 231 672 l 1
 119 430 l 5
 41 451 l 5
 118 684 l 1
273 684 m 1
 386 672 l 1
 274 420 l 1
 206 431 l 1
 273 684 l 1
EndSplineSet
EndChar

StartChar: guillemotright
Encoding: 187 187 120
Width: 427
Flags: HW
LayerCount: 2
Fore
SplineSet
136 252 m 1
 38 417 l 1
 122 437 l 1
 228 252 l 1
 124 47 l 5
 38 67 l 5
 136 252 l 1
297 252 m 1
 209 447 l 1
 293 467 l 1
 389 252 l 1
 284 67 l 1
 199 87 l 1
 297 252 l 1
EndSplineSet
Substitution2: "'case' +BCAENQQzBDgEQQRCBEAEPgQ3BDAEMgQ4BEEEOAQ8BEsENQAA +BEQEPgRABDwESwAA lookup 4 subtable" guillemotright.cap
Substitution2: "'aalt' +BBIEQQQ1 +BDAEOwRMBEIENQRABD0EMARCBDgEMgQ9BEsENQAA +BDIEMARABDgEMAQ9BEIESwAA lookup 0 subtable" guillemotright.cap
EndChar

StartChar: ellipsis
Encoding: 8230 8230 121
Width: 913
Flags: HW
HStem: -8 174<72.315 176.152 731.202 844.152> 12 174<408.355 510.202>
VStem: 47 153<17.0623 150.466> 381 153<25.5527 159.779> 715 153<15.625 150.958>
CounterMasks: 1 38
LayerCount: 2
Fore
SplineSet
123 -8 m 0xb8
 82 -8 47 26 47 79 c 0
 47 129 55 166 124 166 c 0
 195 166 200 133 200 79 c 0
 200 26 169 -8 123 -8 c 0xb8
457 12 m 4x78
 387 12 381 46 381 99 c 4
 381 149 417 186 458 186 c 4
 500 186 534 153 534 99 c 4
 534 46 533 12 457 12 c 4x78
791 -8 m 0xb8
 749 -8 715 0 715 79 c 0
 715 159 751 166 792 166 c 0
 834 166 868 164 868 79 c 0
 868 26 837 -8 791 -8 c 0xb8
EndSplineSet
EndChar

StartChar: perthousand
Encoding: 8240 8240 122
Width: 1002
Flags: HW
HStem: -7 70<498.833 566.718> 5 70<798.05 869.658> 279 70<136.833 204.718> 295 79<497.986 568.505 800.568 868.747> 579 79<135.721 206.747> 658 20G<481.939 560>
VStem: 41 88<353.321 577.372> 213 88<352.123 575.329> 403 88<67.3212 291.372> 575 88<66.1228 289.329> 703 88<76.4959 289.027> 875 88<75.5403 291.329>
LayerCount: 2
Fore
SplineSet
835 374 m 4x53f0
 932 374 963 372 963 187 c 4
 963 13 937 5 834 5 c 0
 717 5 703 10 703 182 c 4
 703 373 750 374 835 374 c 4x53f0
834 295 m 4
 805 295 791 287 791 185 c 4
 791 65 803 75 834 75 c 0
 865 75 875 63 875 184 c 4
 875 296 866 295 834 295 c 4
535 372 m 0
 632 372 663 370 663 185 c 0
 663 11 637 -7 534 -7 c 0x83f0
 417 -7 403 8 403 180 c 0
 403 371 450 372 535 372 c 0
534 293 m 0
 505 293 491 304 491 183 c 0
 491 63 503 63 534 63 c 0
 565 63 575 61 575 182 c 0
 575 294 566 293 534 293 c 0
173 658 m 0x2bf0
 270 658 301 656 301 471 c 0
 301 297 275 279 172 279 c 0
 55 279 41 294 41 466 c 0
 41 657 88 658 173 658 c 0x2bf0
172 579 m 0
 143 579 129 590 129 469 c 0
 129 349 141 349 172 349 c 0
 203 349 213 347 213 468 c 0
 213 580 204 579 172 579 c 0
211 -8 m 1
 162 22 l 1
 492 678 l 1
 560 658 l 1x07f0
 211 -8 l 1
EndSplineSet
EndChar

StartChar: grave
Encoding: 96 96 124
Width: 303
Flags: HW
HStem: 559 130
VStem: 30 207
LayerCount: 2
Fore
SplineSet
179 695 m 1
 48 693 l 5
 48 609 l 5
 179 611 l 1
 179 695 l 1
255 546 m 1
 255 623 l 1
 157 623 l 1
 156 553 l 1
 255 546 l 1
EndSplineSet
Substitution2: "'case' +BCAENQQzBDgEQQRCBEAEPgQ3BDAEMgQ4BEEEOAQ8BEsENQAA +BEQEPgRABDwESwAA lookup 4 subtable" grave.cap
Substitution2: "'aalt' +BBIEQQQ1 +BDAEOwRMBEIENQRABD0EMARCBDgEMgQ9BEsENQAA +BDIEMARABDgEMAQ9BEIESwAA lookup 0 subtable" grave.cap
EndChar

StartChar: acute
Encoding: 180 180 125
Width: 302
Flags: HW
HStem: 549 140
VStem: 52 203
LayerCount: 2
Fore
SplineSet
124 692 m 5
 255 700 l 5
 255 616 l 5
 124 608 l 5
 124 692 l 5
48 543 m 5
 48 620 l 5
 146 620 l 5
 147 550 l 5
 48 543 l 5
EndSplineSet
Substitution2: "'case' +BCAENQQzBDgEQQRCBEAEPgQ3BDAEMgQ4BEEEOAQ8BEsENQAA +BEQEPgRABDwESwAA lookup 4 subtable" acute.cap
Substitution2: "'aalt' +BBIEQQQ1 +BDAEOwRMBEIENQRABD0EMARCBDgEMgQ9BEsENQAA +BDIEMARABDgEMAQ9BEIESwAA lookup 0 subtable" acute.cap
EndChar

StartChar: circumflex
Encoding: 710 710 126
Width: 357
Flags: HW
HStem: 549 139<213.574 222>
VStem: 45 263
LayerCount: 2
Fore
SplineSet
134 706 m 1
 230 706 l 1
 230 622 l 1
 134 622 l 1
 134 706 l 1
214 625 m 1
 310 629 l 1
 310 542 l 1
 214 538 l 1
 214 625 l 1
48 637 m 1
 144 633 l 1
 144 546 l 5
 48 550 l 5
 48 637 l 1
EndSplineSet
Substitution2: "'case' +BCAENQQzBDgEQQRCBEAEPgQ3BDAEMgQ4BEEEOAQ8BEsENQAA +BEQEPgRABDwESwAA lookup 4 subtable" circumflex.cap
Substitution2: "'aalt' +BBIEQQQ1 +BDAEOwRMBEIENQRABD0EMARCBDgEMgQ9BEsENQAA +BDIEMARABDgEMAQ9BEIESwAA lookup 0 subtable" circumflex.cap
EndChar

StartChar: tilde
Encoding: 732 732 127
Width: 356
Flags: HW
VStem: 241 58<638.624 659.207>
LayerCount: 2
Fore
SplineSet
224 695 m 1
 310 699 l 1
 300 582 l 5
 137.852539062 591.078125 l 1
 134 546 l 1
 48 550 l 1
 58 667 l 1
 221.325195312 656.3828125 l 5
 224 695 l 1
EndSplineSet
Substitution2: "'case' +BCAENQQzBDgEQQRCBEAEPgQ3BDAEMgQ4BEEEOAQ8BEsENQAA +BEQEPgRABDwESwAA lookup 4 subtable" tilde.cap
Substitution2: "'aalt' +BBIEQQQ1 +BDAEOwRMBEIENQRABD0EMARCBDgEMgQ9BEsENQAA +BDIEMARABDgEMAQ9BEIESwAA lookup 0 subtable" tilde.cap
EndChar

StartChar: macron
Encoding: 175 175 128
Width: 311
Flags: HW
HStem: 582 84<50 258>
VStem: 50 213
LayerCount: 2
Fore
SplineSet
50 666 m 1
 263 661 l 1
 258 577 l 5
 50 582 l 1
 50 666 l 1
EndSplineSet
Substitution2: "'case' +BCAENQQzBDgEQQRCBEAEPgQ3BDAEMgQ4BEEEOAQ8BEsENQAA +BEQEPgRABDwESwAA lookup 4 subtable" macron.cap
Substitution2: "'aalt' +BBIEQQQ1 +BDAEOwRMBEIENQRABD0EMARCBDgEMgQ9BEsENQAA +BDIEMARABDgEMAQ9BEIESwAA lookup 0 subtable" macron.cap
EndChar

StartChar: breve
Encoding: 728 728 129
Width: 352
Flags: HW
HStem: -4.9248 94.751<218.304 327.419> 302.779 96.9795<213.867 316.544>
VStem: 75.3135 136.533<399.759 569.701> 89.1025 129.201<89.8262 302.779> 339 136<101.029 285.617>
LayerCount: 2
Fore
SplineSet
223 688 m 1
 265.3515625 686.608398438 268.294921875 687.6171875 306 687 c 1
 305 631 l 1
 223 633 l 1
 223 688 l 1
48 680 m 1
 90.3515625 678.608398438 93.294921875 679.6171875 131 679 c 1
 130 623 l 1
 48 625 l 1
 48 680 l 1
111 635 m 1
 148.484375 638.548828125 207.856445312 643.431640625 248 639 c 1
 246 555 l 1
 204.666992188 550.801757812 158.333007812 548.209960938 117 557 c 1
 111 635 l 1
EndSplineSet
Substitution2: "'case' +BCAENQQzBDgEQQRCBEAEPgQ3BDAEMgQ4BEEEOAQ8BEsENQAA +BEQEPgRABDwESwAA lookup 4 subtable" breve.cap
Substitution2: "'aalt' +BBIEQQQ1 +BDAEOwRMBEIENQRABD0EMARCBDgEMgQ9BEsENQAA +BDIEMARABDgEMAQ9BEIESwAA lookup 0 subtable" breve.cap
EndChar

StartChar: dotaccent
Encoding: 729 729 130
Width: 223
Flags: HW
HStem: 560 129<54 171>
VStem: 54 117<561 688>
LayerCount: 2
Fore
SplineSet
54 560 m 0
 49 689 l 4
 175 688 l 0
 171 561 l 0
 54 560 l 0
EndSplineSet
Substitution2: "'case' +BCAENQQzBDgEQQRCBEAEPgQ3BDAEMgQ4BEEEOAQ8BEsENQAA +BEQEPgRABDwESwAA lookup 4 subtable" dotaccent.cap
Substitution2: "'aalt' +BBIEQQQ1 +BDAEOwRMBEIENQRABD0EMARCBDgEMgQ9BEsENQAA +BDIEMARABDgEMAQ9BEIESwAA lookup 0 subtable" dotaccent.cap
EndChar

StartChar: dieresis
Encoding: 168 168 131
Width: 393
Flags: HW
HStem: 581 101<53 170 261.7 339> 586 106<226 339>
VStem: 53 122<585 682> 223 116<586 687>
LayerCount: 2
Fore
SplineSet
53 581 m 0xb0
 49 682 l 0
 160 686 l 0
 165 585 l 0
 53 581 l 0xb0
233 586 m 0x70
 236 692 l 0x70
 345 687 l 0
 339 581 l 0xb0
 233 586 l 0x70
EndSplineSet
Substitution2: "'case' +BCAENQQzBDgEQQRCBEAEPgQ3BDAEMgQ4BEEEOAQ8BEsENQAA +BEQEPgRABDwESwAA lookup 4 subtable" dieresis.cap
Substitution2: "'aalt' +BBIEQQQ1 +BDAEOwRMBEIENQRABD0EMARCBDgEMgQ9BEsENQAA +BDIEMARABDgEMAQ9BEIESwAA lookup 0 subtable" dieresis.cap
EndChar

StartChar: ring
Encoding: 730 730 132
Width: 296
Flags: HW
HStem: 538 34<117.471 180.867> 667 54<112.477 186.348>
VStem: 45.8693 206
LayerCount: 2
Fore
SplineSet
149.869140625 538 m 0
 80.869140625 538 52.869140625 540 45.869140625 627 c 0
 41.69921875 678.83203125 48.869140625 721 150.869140625 721 c 0
 242.869140625 721 254.75390625 681.919921875 251.869140625 630 c 0
 246.869140625 540 214.869140625 538 149.869140625 538 c 0
147.869140625 572 m 0
 180.869140625 572 189.869140625 599 189.869140625 620 c 0
 189.869140625 641 190.869140625 667 146.869140625 667 c 4
 108.869140625 667 108.869140625 639 108.869140625 618 c 0
 108.869140625 601 117.869140625 572 147.869140625 572 c 0
EndSplineSet
Substitution2: "'case' +BCAENQQzBDgEQQRCBEAEPgQ3BDAEMgQ4BEEEOAQ8BEsENQAA +BEQEPgRABDwESwAA lookup 4 subtable" ring.cap
Substitution2: "'aalt' +BBIEQQQ1 +BDAEOwRMBEIENQRABD0EMARCBDgEMgQ9BEsENQAA +BDIEMARABDgEMAQ9BEIESwAA lookup 0 subtable" ring.cap
EndChar

StartChar: cedilla
Encoding: 184 184 133
Width: 262
Flags: HW
HStem: -204 60<55.7526 135.288>
VStem: 42 176
LayerCount: 2
Fore
SplineSet
106 5 m 5
 175 5 l 5
 151 -44 l 5
 191 -62 216.6640625 -75.5849609375 218 -117 c 4
 221 -210 177 -204 107 -204 c 4
 95 -204 61 -197 42 -187 c 5
 61 -131 l 5
 77 -139 92 -144 104 -144 c 4
 132 -144 139.168945312 -136.510742188 135 -119 c 4
 130 -98 106 -90 67 -82 c 5
 106 5 l 5
EndSplineSet
Substitution2: "'case' +BCAENQQzBDgEQQRCBEAEPgQ3BDAEMgQ4BEEEOAQ8BEsENQAA +BEQEPgRABDwESwAA lookup 4 subtable" cedilla.cap
Substitution2: "'aalt' +BBIEQQQ1 +BDAEOwRMBEIENQRABD0EMARCBDgEMgQ9BEsENQAA +BDIEMARABDgEMAQ9BEIESwAA lookup 0 subtable" cedilla.cap
EndChar

StartChar: hungarumlaut
Encoding: 733 733 134
Width: 404
Flags: HW
HStem: 549 140
VStem: 45 315
LayerCount: 2
Fore
SplineSet
107 689 m 1
 202 679 l 1
 112 549 l 1
 45 569 l 1
 107 689 l 1
255 689 m 1
 360 679 l 5
 260 549 l 5
 183 559 l 1
 255 689 l 1
EndSplineSet
Substitution2: "'case' +BCAENQQzBDgEQQRCBEAEPgQ3BDAEMgQ4BEEEOAQ8BEsENQAA +BEQEPgRABDwESwAA lookup 4 subtable" hungarumlaut.cap
Substitution2: "'aalt' +BBIEQQQ1 +BDAEOwRMBEIENQRABD0EMARCBDgEMgQ9BEsENQAA +BDIEMARABDgEMAQ9BEIESwAA lookup 0 subtable" hungarumlaut.cap
EndChar

StartChar: ogonek
Encoding: 731 731 135
Width: 273
Flags: HW
HStem: -205 84<133.144 216.635>
VStem: 44 186
LayerCount: 2
Fore
SplineSet
81 5 m 5
 161 5 l 1
 127 -70 109.994140625 -121 175 -121 c 0
 192 -121 204 -118 214 -114 c 1
 230 -191 l 1
 208 -199 168 -205 142 -205 c 0
 52 -205 44 -177 44 -120 c 4
 44 -88 63 -29 81 5 c 5
EndSplineSet
Substitution2: "'case' +BCAENQQzBDgEQQRCBEAEPgQ3BDAEMgQ4BEEEOAQ8BEsENQAA +BEQEPgRABDwESwAA lookup 4 subtable" ogonek.cap
Substitution2: "'aalt' +BBIEQQQ1 +BDAEOwRMBEIENQRABD0EMARCBDgEMgQ9BEsENQAA +BDIEMARABDgEMAQ9BEIESwAA lookup 0 subtable" ogonek.cap
EndChar

StartChar: caron
Encoding: 711 711 136
Width: 366
Flags: HW
HStem: 543 149
VStem: 56 262
LayerCount: 2
Fore
SplineSet
144 626 m 1
 240 626 l 1
 240 542 l 1
 144 542 l 1
 144 626 l 1
224 695 m 1
 320 699 l 1
 320 622 l 1
 224 618 l 1
 224 695 l 1
48 697 m 1
 154 693 l 1
 154 616 l 1
 48 620 l 1
 48 697 l 1
EndSplineSet
Substitution2: "'case' +BCAENQQzBDgEQQRCBEAEPgQ3BDAEMgQ4BEEEOAQ8BEsENQAA +BEQEPgRABDwESwAA lookup 4 subtable" caron.cap
Substitution2: "'aalt' +BBIEQQQ1 +BDAEOwRMBEIENQRABD0EMARCBDgEMgQ9BEsENQAA +BDIEMARABDgEMAQ9BEIESwAA lookup 0 subtable" caron.cap
EndChar

StartChar: emdash
Encoding: 8212 8212 137
Width: 1034
Flags: HW
HStem: 205 100<57 701> 215 90<333 977>
LayerCount: 2
Fore
SplineSet
47 305 m 1x40
 987 305 l 1
 977 215 l 5x40
 57 205 l 1x80
 47 305 l 1x40
EndSplineSet
Substitution2: "'case' +BCAENQQzBDgEQQRCBEAEPgQ3BDAEMgQ4BEEEOAQ8BEsENQAA +BEQEPgRABDwESwAA lookup 4 subtable" emdash.cap
Substitution2: "'aalt' +BBIEQQQ1 +BDAEOwRMBEIENQRABD0EMARCBDgEMgQ9BEsENQAA +BDIEMARABDgEMAQ9BEIESwAA lookup 0 subtable" emdash.cap
EndChar

StartChar: AE
Encoding: 198 198 138
Width: 647
Flags: HW
HStem: 0 114<453 596> 184 102<227 316> 275 119<444 585> 566.392 107.432<158.543 200.597 299.056 302.055 425.092 438.377> 566.465 118.551<425.092 610.256>
VStem: 302.055 123.037<425.682 566.465>
LayerCount: 2
Fore
SplineSet
154 -20 m 1xc4
 30 10 l 1
 200.596679688 564.991210938 l 1
 158.54296875 562.96484375 l 1
 151.392578125 673.823242188 l 1xd4
 610.255859375 685.015625 l 1
 613.036132812 571.048828125 l 1
 425.091796875 566.46484375 l 1
 432 394 l 1
 585 394 l 1
 586 275 l 5
 444 275 l 5xac
 453 114 l 1
 596 114 l 1
 596 0 l 1
 338 0 l 1
 326 184 l 1
 203 184 l 1
 154 -20 l 1xc4
227 286 m 1
 316 286 l 1
 302.0546875 566.46484375 l 1xcc
 299.055664062 566.391601562 l 1
 227 286 l 1
EndSplineSet
Position2: "'cpsp' +BBgEPQRCBDUEQAQyBDAEOwAA +BD8EQAQ+BD8EOARBBD0ESwRF lookup 0 subtable" dx=10 dy=0 dh=20 dv=0
EndChar

StartChar: ordfeminine
Encoding: 170 170 139
Width: 323
Flags: HW
HStem: 258 67<122.374 186.401> 405 67<123.844 193> 520 68<85.6724 191.612>
VStem: 42 78<326.818 400.609> 195 80<335.235 405 472 518.668> 208 71<272.014 296>
LayerCount: 2
Fore
SplineSet
279 273 m 1xf4
 208 263 l 1xf4
 203 296 l 1
 201 296 l 1
 183 271 158 258 127 258 c 4
 49 258 42 266 42 354 c 4
 42 456 85 472 193 472 c 5
 193 480 l 2
 193 499 199 520 162 520 c 0
 134 520 117 519 88 511 c 1
 74 572 l 1
 101 581 144 588 177 588 c 0
 274 588 275 578 275 451 c 2
 275 338 l 2xf8
 275 313 276 296 279 273 c 1xf4
195 352 m 2xf8
 195 405 l 5
 133 405 120 404 120 363 c 4
 120 326 136 325 155 325 c 0
 167 325 181 321 189 335 c 0
 192 340 195 346 195 352 c 2xf8
EndSplineSet
EndChar

StartChar: Lslash
Encoding: 321 321 140
Width: 431
Flags: HW
HStem: -10 21G<94 398> 654 20G<94 225>
VStem: 94 131<101 232 436 664>
LayerCount: 2
Fore
SplineSet
398 0 m 1
 94 -10 l 1
 94 232 l 1
 45 196 l 1
 34 298 l 1
 94 345 l 1
 94 664 l 5
 225 674 l 1
 225 436 l 1
 319 508 l 1
 332 392 l 1
 225 315 l 1
 225 101 l 1
 393 111 l 1
 398 0 l 1
EndSplineSet
Position2: "'cpsp' +BBgEPQRCBDUEQAQyBDAEOwAA +BD8EQAQ+BD8EOARBBD0ESwRF lookup 0 subtable" dx=10 dy=0 dh=20 dv=0
EndChar

StartChar: Oslash
Encoding: 216 216 141
Width: 523
Flags: HW
HStem: -8 104<202.568 312.999> 568 114<189.107 305.388>
VStem: 43.5107 133.173<272.921 550.44> 347.594 126.917<145.025 432.887>
LayerCount: 2
Fore
SplineSet
260.510742188 568 m 0
 174.510742188 568 167.510742188 557 174.510742188 337 c 0
 175.276367188 312.947265625 175.96875 291.301757812 176.68359375 271.82421875 c 1
 305.387695312 565.26953125 l 1
 293.37890625 567.854492188 278.540039062 568 260.510742188 568 c 0
382.08984375 740.149414062 m 1
 474.510742188 713 l 1
 441.505859375 640.344726562 l 1
 479.041992188 597.321289062 477.880859375 512.428710938 474.510742188 349 c 0
 467.708007812 19.0703125 446.510742188 -8 256.510742188 -8 c 0
 212.760742188 -8 178.30078125 -6.056640625 151.064453125 0.974609375 c 1
 131.208984375 -42.734375 l 1
 47.103515625 -23.6181640625 l 1
 80.853515625 53.33203125 l 1
 54.279296875 102.028320312 47.8212890625 188.134765625 43.5107421875 339 c 0
 34.5107421875 654 60.5107421875 682 265.510742188 682 c 0
 300.6875 682 330.108398438 680.865234375 354.689453125 677.67578125 c 1
 382.08984375 740.149414062 l 1
201.278320312 111.513671875 m 1
 213.350585938 97.7841796875 231.939453125 96.4052734375 261.510742188 96 c 0
 334.510742188 95 325.114257812 101.625976562 342.510742188 343 c 0
 345.0703125 378.51171875 346.810546875 408.419921875 347.59375 433.607421875 c 1
 201.278320312 111.513671875 l 1
EndSplineSet
Position2: "'cpsp' +BBgEPQRCBDUEQAQyBDAEOwAA +BD8EQAQ+BD8EOARBBD0ESwRF lookup 0 subtable" dx=10 dy=0 dh=20 dv=0
EndChar

StartChar: OE
Encoding: 338 338 142
Width: 665
Flags: HW
HStem: -8 104<205.22 331.166 524.5 627> 296 119<463 607> 558 124<203.778 331.632 523.75 625>
VStem: 43 136<119.593 535.911> 332 275<296 415> 332 131<104 296 415 550>
LayerCount: 2
Fore
SplineSet
627 94 m 1xf4
 627 -10 l 1
 374 0 l 2
 345.016601562 0 310.294921875 -8 282 -8 c 0
 83 -8 43 -11 43 337 c 0
 43 681 109 682 288 682 c 4
 316.73828125 682 353.551757812 674 379 674 c 2
 625 684 l 1
 625 560 l 1
 463 550 l 1
 463 415 l 1xf4
 607 415 l 1
 607 296 l 1xf8
 463 296 l 1
 463 104 l 1
 627 94 l 1xf4
332 104 m 1
 332 548 l 1
 322 554 309 558 290 558 c 0
 187 558 179 552 179 341 c 0
 179 108 180 96 293 96 c 0
 309 96 324 99 332 104 c 1
EndSplineSet
Position2: "'cpsp' +BBgEPQRCBDUEQAQyBDAEOwAA +BD8EQAQ+BD8EOARBBD0ESwRF lookup 0 subtable" dx=10 dy=0 dh=20 dv=0
EndChar

StartChar: ordmasculine
Encoding: 186 186 143
Width: 332
Flags: HW
HStem: 258 69<134.139 198.136> 499 89<133.763 200.169>
VStem: 43 83<330.744 495.491> 206 84<330.623 496.118>
LayerCount: 2
Fore
SplineSet
168 588 m 4
 291 588 290 524 290 425 c 0
 290 291 255 258 167 258 c 4
 43 258 43 319 43 422 c 0
 43 535 73 588 168 588 c 4
167 499 m 0
 133 499 126 478 126 423 c 4
 126 338 137 327 167 327 c 4
 201 327 206 356 206 423 c 4
 206 482 199 499 167 499 c 0
EndSplineSet
EndChar

StartChar: ae
Encoding: 230 230 144
Width: 669
Flags: HW
HStem: -8 98<162.999 257.932> -8 88<428.866 578.463> 204 95<389 505> 214 102<169.878 260> 386 111<400.516 497.653> 400 107<90.0387 241.455>
VStem: 39 117<94.1863 199.511> 262 127<120.302 204 316 376.112> 505 120<299 377.013>
LayerCount: 2
Fore
SplineSet
621 204 m 1x2b80
 389 204 l 1
 389 112 438 80 496 80 c 0x6b80
 518 80 551 83 576 90 c 1x8380
 594 9 l 1
 551 -5 516 -8 473 -8 c 0x4380
 368 -8 343 6 319 77 c 1
 316 77 l 1
 299 10 273 -8 174 -8 c 0
 61 -8 39 6 39 146 c 0
 39 301 151 315 260 316 c 1
 260 331 l 2
 260 369 234 400 184 400 c 0
 152 400 118 394 94 383 c 1
 70 479 l 1
 102 495 160 507 209 507 c 0x9780
 317 507 325 481 335 430 c 1
 337 430 l 1
 353 486 369 497 470 497 c 0
 591 497 625 489 625 266 c 0
 625 247 623 221 621 204 c 1x2b80
262 160 m 2
 262 214 l 1
 218 214 156 220 156 151 c 0
 156 89 183 90 206 90 c 0x9380
 256 90 262 96 262 160 c 2
389 299 m 1x2b80
 505 299 l 1
 505 385 491 386 452 386 c 0
 409 386 389 373 389 299 c 1x2b80
EndSplineSet
EndChar

StartChar: dotlessi
Encoding: 305 305 145
Width: 235
Flags: HW
HStem: -10 21G<52.6071 184> 479 20G<43 184>
VStem: 43 141<142.7 499> 53 131<-7 346.3>
LayerCount: 2
Fore
SplineSet
184 -7 m 5xd0
 53 -10 l 1xd0
 43 499 l 1
 184 499 l 1xe0
 184 -7 l 5xd0
EndSplineSet
EndChar

StartChar: lslash
Encoding: 322 322 146
Width: 310
Flags: HW
HStem: 0 21G<88 219> 477 20G<236.571 263.093>
VStem: 88 131<0 275 462 577>
LayerCount: 2
Fore
SplineSet
219 0 m 1
 88 0 l 1
 88 275 l 1
 47 241 l 1
 33 337 l 1
 88 384 l 1
 88 577 l 1
 49 583 l 5
 59 704 l 5
 219 692 l 1
 219 462 l 1
 260 497 l 1
 275 400 l 1
 219 353 l 1
 219 0 l 1
EndSplineSet
EndChar

StartChar: oslash
Encoding: 248 248 147
Width: 460
Flags: HW
HStem: -8 100<195.166 273.649> 398 99<174.216 266.878>
VStem: 43 114<185.535 379.715> 288 124<98.4583 303>
LayerCount: 2
Fore
SplineSet
231 497 m 0
 264 497 293 489 319 473 c 1
 352 530 l 1
 418 509 l 1
 369 426 l 1
 398 402 416 381 412 249 c 4
 404.541015625 2.8671875 386 -8 231 -8 c 0
 197 -8 166 0 140 16 c 1
 108 -41 l 1
 41 -14 l 1
 90 62 l 1
 58 89 42 127 43 243 c 0
 44.982421875 472.991210938 66 497 231 497 c 0
172 182 m 1
 269 373 l 1
 262 389 250 398 230 398 c 0
 172 398 157 387 157 246 c 0
 157 227 165 206 168 184 c 1
 172 182 l 1
287 300 m 1
 193 117 l 1
 200 101 212 92 231 92 c 0
 280 92 281.733398438 95.142578125 288 233 c 4
 289 255 289 281 290 303 c 5
 287 300 l 1
EndSplineSet
EndChar

StartChar: oe
Encoding: 339 339 148
Width: 696
Flags: HW
HStem: -18 90<433.298 612.87> -8 100<185.643 278.579> 193 95<417 532> 388 109<183.28 278.297> 400 107<429.203 521.541>
VStem: 42 130<100.026 381.081> 289 126<98.7779 193 288 380.877> 532 120<288 388.516>
LayerCount: 2
Fore
SplineSet
649 193 m 1x2f
 415 193 l 1
 420 70 438 72 520 72 c 0
 559 72 590 80 614 88 c 1
 631 4 l 1
 589 -12 543.993164062 -18.7568359375 502 -18 c 0xaf
 391 -16 384 -6 353 55 c 1
 351 55 l 1
 323 -3 266 -8 218 -8 c 0
 76 -8 42 12 42 243 c 0
 42 476 55 497 229 497 c 0x77
 280 497 329 494 355 435 c 1
 357 435 l 5
 384 504 436 507 494 507 c 4
 592 507 652 510 652 256 c 4
 652 225 650 204 649 193 c 1x2f
231 388 m 0x77
 180 388 172 380 172 244 c 0
 172 96 186 92 231 92 c 0
 281 92 289 98 289 247 c 0
 289 382 279 388 231 388 c 0x77
417 288 m 5
 532 288 l 1
 532 392 518 400 481 400 c 4x2f
 436 400 417 396 417 288 c 5
EndSplineSet
EndChar

StartChar: germandbls
Encoding: 223 223 149
Width: 512
Flags: HW
HStem: -8 111<238.745 341.059>
VStem: 47 131<-20 588.178> 246 125<325.663 426.013> 320 124<467.779 583.342> 348 124<114.731 214.794>
LayerCount: 2
Fore
SplineSet
178 -20 m 1xd0
 47 -20 l 1
 47 432 l 2
 47 700 71.2021484375 708.821289062 264 700 c 4
 417 693 444 684 444 530 c 0xd0
 444 454.837890625 371 438.413085938 371 385 c 0xe0
 371 311.430664062 472 269 472 157 c 0
 472 0 437 -8 240 -8 c 1
 233 23 231 85 231 103 c 1
 326 110 348 103 348 156 c 0xc8
 348 228.108398438 246 280.22265625 246 363 c 0xe0
 246 440.35546875 320 451.567382812 320 525 c 0
 320 567 319 591 257 595 c 0
 191.13671875 599.249023438 178 624 178 443 c 6
 178 -20 l 1xd0
EndSplineSet
EndChar

StartChar: onesuperior
Encoding: 185 185 150
Width: 264
Flags: HW
HStem: 413 21G<116 210.508> 680 21G<59.25 114.5>
VStem: 116 94<417 617.9> 126 94<531.2 704>
LayerCount: 2
Fore
SplineSet
210 413 m 5xe0
 116 417 l 1xe0
 126 704 l 1
 124 704 l 1
 67 680 l 1
 36 760 l 1
 136 807 l 1
 220 807 l 1xd0
 210 413 l 5xe0
EndSplineSet
EndChar

StartChar: logicalnot
Encoding: 172 172 151
Width: 604
Flags: HW
HStem: 319 102<48 347.6> 329 102<197.8 476>
VStem: 465 83<111 249.727> 476 83<224.182 329>
LayerCount: 2
Fore
SplineSet
43 421 m 1x90
 559 431 l 1x50
 548 106 l 1
 465 111 l 5x60
 476 329 l 1x50
 48 319 l 1
 43 421 l 1x90
EndSplineSet
EndChar

StartChar: mu
Encoding: 181 181 152
Width: 493
Flags: HW
HStem: -192 21G<61.5 187> -1 98<187.975 277.011> 469 20G<281 412>
VStem: 50 132<-170.531 12 100.962 499> 281 131<115.55 479>
LayerCount: 2
Fore
SplineSet
308 49 m 1
 305 49 l 1
 291 6 263 0 230 -1 c 0
 222.932617188 -1.2138671875 189 0 176 12 c 1
 176 -17 l 2
 176 -88 181 -141 187 -172 c 1
 66 -192 l 1
 57 -167 50 -103 50 0 c 2
 50 499 l 1
 182 509 l 1
 182 160 l 2
 182 105 198 97 228 97 c 4
 279 97 281 115.954101562 281 157 c 2
 281 489 l 1
 412 479 l 5
 412 162 l 2
 412 121 433 112 457 107 c 1
 434 -2 l 1
 385 0 342 16 308 49 c 1
EndSplineSet
EndChar

StartChar: trademark
Encoding: 8482 8482 153
Width: 588
Flags: HW
HStem: 415 21G<240 308.875> 600 74<42 98 175 232 465 468>
VStem: 98 77<401 600> 358 70<446 474.568> 468 63<518.5 597> 473 70<411 561.5>
LayerCount: 2
Fore
SplineSet
42 674 m 1xf0
 232 674 l 1
 232 600 l 5
 175 600 l 5
 175 401 l 1
 98 401 l 1
 98 600 l 5
 42 600 l 5
 42 674 l 1xf0
543 411 m 1xf4
 473 405 l 1xf4
 468 597 l 1
 465 597 l 1
 428 446 l 1
 358 446 l 1
 328 607 l 1
 325 607 l 1
 307 415 l 1
 240 421 l 1
 263 669 l 1
 368 674 l 1
 392 541 l 1
 393 541 l 1
 421 674 l 1
 531 669 l 1xf8
 543 411 l 1xf4
EndSplineSet
EndChar

StartChar: Eth
Encoding: 208 208 154
Width: 543
Flags: HW
HStem: -6 97<218.592 335.97> 293 110<217 291> 293 101<36 87> 562 115<218.138 342.805>
VStem: 87 130<91.3865 293 403 560.997> 359 135<112.195 545.359>
LayerCount: 2
Fore
SplineSet
36 293 m 1xbc
 36 394 l 1
 87 397 l 1
 87 664 l 1
 119 672 238 677 290 677 c 0
 492.796875 677 494 671 494 345 c 4
 494 8 495 -6 265 -6 c 4
 223 -6 112 -2 87 2 c 1
 87 293 l 1
 36 293 l 1xbc
291 404 m 5
 293 293 l 1xbc
 217 293 l 1
 217 93 l 1
 224 91 264 91 271 91 c 0
 353 91 359 97 359 350 c 0
 359 562 353 562 273 562 c 0
 263 562 225 561 217 559 c 1
 217 403 l 5xdc
 291 404 l 5
EndSplineSet
Position2: "'cpsp' +BBgEPQRCBDUEQAQyBDAEOwAA +BD8EQAQ+BD8EOARBBD0ESwRF lookup 0 subtable" dx=10 dy=0 dh=20 dv=0
EndChar

StartChar: onehalf
Encoding: 189 189 155
Width: 692
Flags: HW
HStem: -10 84<530 647> 0 80<530 576.8> 263 21G<124 218> 316 79<452.188 596.774> 638 20G<456.36 535>
VStem: 124 94<263 570> 552 101<204.108 315.222>
LayerCount: 2
Fore
SplineSet
218 263 m 1x3e
 124 263 l 1
 124 570 l 1
 122 570 l 1
 62 540 l 1
 34 626 l 1
 134 673 l 1
 218 663 l 1
 218 263 l 1x3e
187 -8 m 1
 118 2 l 1
 467 658 l 1
 535 648 l 1
 187 -8 l 1
413 0 m 1x7e
 413 63 l 1
 460 110 l 2
 511 173 552 218 552 263 c 0
 552 301 551 316 522 316 c 4
 503 316 472 308 448 293 c 5
 428 362 l 5
 462 381 518 395 547 395 c 4
 643 395 653 380 653 282 c 0
 653 209 598 153 548 102 c 2
 530 83 l 1
 530 80 l 1x7e
 652 74 l 5
 647 -10 l 1xbe
 413 0 l 1x7e
EndSplineSet
LCarets2: 2 0 0
Ligature2: "'frac' Diagonal Fractions lookup 9 subtable" one.numerator slash.frac two.numerator
Ligature2: "'frac' Diagonal Fractions lookup 9 subtable" one.numerator uni2215 two.numerator
Ligature2: "'frac' Diagonal Fractions lookup 9 subtable" one.numerator fraction two.numerator
EndChar

StartChar: plusminus
Encoding: 177 177 156
Width: 595
Flags: HW
HStem: 0 82<59.2012 535.201> 303.032 81.9473<40.9395 223.053> 321.526 81.9473<361.431 553.669>
VStem: 217.692 103.933<137.986 309.563> 225.565 103.934<395.434 565.008>
LayerCount: 2
Fore
SplineSet
230.865234375 565.0078125 m 5xc8
 334.798828125 568.735351562 l 5
 329.499023438 395.43359375 l 5xc8
 553.668945312 403.473632812 l 5
 556.608398438 321.526367188 l 5
 326.986328125 313.291015625 l 5
 321.625 137.986328125 l 5
 217.692382812 134.258789062 l 5xb0
 223.052734375 309.563476562 l 5
 40.939453125 303.032226562 l 5
 38 384.979492188 l 5
 225.565429688 391.706054688 l 5
 230.865234375 565.0078125 l 5xc8
59.201171875 82 m 1
 535.201171875 82 l 1
 535.201171875 0 l 1
 59.201171875 0 l 1
 59.201171875 82 l 1
EndSplineSet
EndChar

StartChar: Thorn
Encoding: 222 222 157
Width: 470
Flags: HW
HStem: -5 21G<51 179> 139 88<179 284.977> 454 106<179 285.568> 659 20G<46 179>
VStem: 51 128<0 143 228.058 452.828 558 674> 298 128<238.706 441.333>
LayerCount: 2
Fore
SplineSet
51 0 m 1
 46 674 l 5
 179 679 l 1
 179 558 l 1
 191 560 235 560 251 560 c 0
 357.442382812 560 425.1328125 559.000976562 426 363 c 0
 427 137 338 139 246 139 c 0
 231 139 188 141 179 143 c 1
 179 -5 l 1
 51 0 l 1
179 451 m 1
 179 230 l 1
 188 228 227 227 238 227 c 0
 296 227 298 272 298 333 c 0
 298 390 305 454 243 454 c 0
 230 454 189 453 179 451 c 1
EndSplineSet
Position2: "'cpsp' +BBgEPQRCBDUEQAQyBDAEOwAA +BD8EQAQ+BD8EOARBBD0ESwRF lookup 0 subtable" dx=10 dy=0 dh=20 dv=0
EndChar

StartChar: onequarter
Encoding: 188 188 158
Width: 692
Flags: HW
HStem: 81.0234 70.9043<614.681 655.377> 263 21G<129 224> 633 20G<98.4314 224>
VStem: 129 95<263 550> 530.797 83.8838<-16 81.0234 156.343 295>
LayerCount: 2
Fore
SplineSet
224 263 m 1
 129 263 l 1
 129 550 l 1
 127 550 l 1
 69 523 l 1
 34 602 l 1
 140 653 l 1
 224 643 l 1
 224 263 l 1
208 -18 m 1
 140 -8 l 1
 489 668 l 1
 557 658 l 1
 208 -18 l 1
614 -20 m 5
 530 -16 l 5
 529.169921875 85.4384765625 l 5
 381.375 93.216796875 l 5
 384.528320312 153.133789062 l 5
 522 391 l 5
 614 381 l 5
 614.680664062 151.927734375 l 5
 658.622070312 147.720703125 l 5
 654.99609375 78.81640625 l 5
 613.053710938 81.0234375 l 5
 614 -20 l 5
530.796875 156.342773438 m 5
 533.065429688 199.453125 528.737304688 258.770507812 533 295 c 5
 531 295 l 5
 462 160.072265625 l 5
 461.89453125 158.075195312 l 5
 530.796875 156.342773438 l 5
EndSplineSet
LCarets2: 2 0 0
Ligature2: "'frac' Diagonal Fractions lookup 9 subtable" one.numerator slash.frac four.numerator
Ligature2: "'frac' Diagonal Fractions lookup 9 subtable" one.numerator uni2215 four.numerator
Ligature2: "'frac' Diagonal Fractions lookup 9 subtable" one.numerator fraction four.numerator
EndChar

StartChar: divide
Encoding: 247 247 159
Width: 601
Flags: HW
HStem: 40 120<239 355> 216 112<41 221.6> 226 82<376.4 557> 385 127<235 361>
VStem: 235 126<388 512> 239 116<40 159>
LayerCount: 2
Fore
SplineSet
235 385 m 4x98
 229 512 l 4
 363 516 l 4
 361 388 l 4
 235 385 l 4x98
557 226 m 1xb0
 41 216 l 1
 41 328 l 1xd0
 557 308 l 1
 557 226 l 1xb0
239 33 m 0x94
 233 159 l 0
 355 160 l 0
 355 40 l 0
 239 33 l 0x94
EndSplineSet
EndChar

StartChar: brokenbar
Encoding: 166 166 160
Width: 208
Flags: HW
HStem: 654 20G<55.4286 163>
VStem: 46 107<-176 69 324 569> 56 107<-71 174 429 674>
LayerCount: 2
Fore
SplineSet
56 174 m 1xa0
 163 174 l 1xa0
 153 -176 l 5
 46 -176 l 5xc0
 56 174 l 1xa0
56 674 m 1
 163 674 l 1xa0
 153 324 l 1
 46 324 l 1xc0
 56 674 l 1
EndSplineSet
EndChar

StartChar: degree
Encoding: 176 176 161
Width: 330
Flags: HW
HStem: 440 51<121.401 215.292> 611 71<118.822 224.063>
VStem: 45 69<497.311 607.89> 228 58<503.471 606.058>
LayerCount: 2
Fore
SplineSet
166 682 m 0
 281 682 286 627 286 563 c 0
 286 446 219 440 164 440 c 0
 51 440 45 490 45 557 c 0
 45 660 81 682 166 682 c 0
166 611 m 0
 133 611 114 614 114 558 c 4
 114 521 117 491 166 491 c 0
 200 491 228 506 228 559 c 0
 228 595 225 611 166 611 c 0
EndSplineSet
EndChar

StartChar: thorn
Encoding: 254 254 162
Width: 466
Flags: HW
HStem: -8 97<184.197 275.729> 15 74<184.054 214.282> 377 120<189.371 327> 672 20G<48 178>
VStem: 48 131<-212 15 93.4061 372.479 460 692> 290 131<98.1851 363.46>
LayerCount: 2
Fore
SplineSet
48 692 m 1x7c
 178 692 l 1
 178 460 l 1
 180 460 l 1
 200 503 233 497 277 497 c 0
 377 497 421 493 421 245 c 0
 421 -10 344 -8 271 -8 c 0xbc
 223 -8 194 -12 181 15 c 1
 179 15 l 1
 179 -212 l 1
 48 -212 l 1
 48 692 l 1x7c
179 331 m 2
 179 140 l 6
 179 97.21484375 199.427734375 89 227 89 c 4
 274 89 290 92 290 234 c 0
 290 378 268 377 230 377 c 0
 198.408203125 377 179 367.38671875 179 331 c 2
EndSplineSet
EndChar

StartChar: threequarters
Encoding: 190 190 163
Width: 664
Flags: HW
HStem: 0 21G<502 585.766> 81.0234 70.9043<586.681 627.377> 258 61<52.196 146.297> 429 62<75 144.616> 587 71<47.0827 213>
VStem: 151 98<323.334 421.896> 165 93<511.145 586.852> 502.797 83.8838<4 81.0234 156.343 295>
LayerCount: 2
Fore
SplineSet
586 0 m 1xf9
 502 4 l 1
 501.169921875 85.4384765625 l 1
 353.375 93.216796875 l 1
 356.528320312 153.133789062 l 1
 494 391 l 1
 586 381 l 1
 586.680664062 151.927734375 l 1
 630.622070312 147.720703125 l 1
 626.99609375 78.81640625 l 1
 585.053710938 81.0234375 l 1
 586 0 l 1xf9
502.796875 156.342773438 m 1
 505.065429688 199.453125 500.737304688 258.770507812 505 295 c 1
 503 295 l 1
 434 160.072265625 l 1
 433.89453125 158.075195312 l 1
 502.796875 156.342773438 l 1
51 569 m 1
 36 635 l 1
 59 647 134 658 171 658 c 4
 255 658 258 623 258 563 c 4xfb
 258 504 223 479 183 462 c 1
 183 460 l 1
 225 452 249 425 249 379 c 0
 249 272 231 258 137 258 c 0
 99 258 60 266 42 277 c 1
 56 336 l 1
 73 327 86 319 112 319 c 0
 145 319 151 341 151 372 c 0xfd
 151 422 129 429 87 429 c 2
 75 429 l 1
 75 491 l 1
 82 491 l 2
 115 491 165 513 165 546 c 4xfb
 165 572 167 587 140 587 c 4
 117 587 69 580 51 569 c 1
197 -18 m 1
 128 -8 l 1
 477 668 l 1
 545 658 l 1
 197 -18 l 1
EndSplineSet
LCarets2: 2 0 0
Ligature2: "'frac' Diagonal Fractions lookup 9 subtable" three.numerator slash.frac four.numerator
Ligature2: "'frac' Diagonal Fractions lookup 9 subtable" three.numerator uni2215 four.numerator
Ligature2: "'frac' Diagonal Fractions lookup 9 subtable" three.numerator fraction four.numerator
EndChar

StartChar: twosuperior
Encoding: 178 178 164
Width: 321
Flags: HW
HStem: 733 79<61.2081 176.657>
VStem: 179 101<621.247 729.586>
LayerCount: 2
Fore
SplineSet
41 427 m 1
 41 480 l 1
 87 527 l 2
 139 590 179 635 179 680 c 0
 179 718 179 733 129 733 c 0
 105 733 87 727 65 720 c 1
 46 789 l 1
 78 804 106 812 154 812 c 0
 281 812 280 752 280 699 c 0
 280 626 224 571 175 519 c 2
 158 500 l 1
 158 497 l 1
 274 487 l 1
 264 407 l 1
 41 427 l 1
EndSplineSet
EndChar

StartChar: registered
Encoding: 174 174 165
Width: 401
Flags: HW
HStem: 361 39<138.7 261.697> 499 31<183 222.653> 566 33<183.432 221.399> 642 40<138.7 263.511>
VStem: 41 47<448.599 592.554> 137 46<530 565> 223 47<530.112 565.562> 236 43<446.372 496.63> 314 47<448.703 592.659>
LayerCount: 2
Fore
SplineSet
181 499 m 1xfd80
 184 446 l 1
 143 444 l 1
 137 593 l 1
 146 595 181.021484375 597.885742188 210 599 c 0
 262 601 270 590.7578125 270 554 c 0xfe80
 270 527 268 522 247 521 c 1
 247 519 l 1
 267 512 270 509 279 448 c 5
 236 438 l 5
 226 496 225.041015625 499 196 499 c 2
 181 499 l 1xfd80
183 565 m 2
 183 530 l 1
 206 530 l 2
 222 530 223 537 223 548 c 0
 223 560 224 566 208 566 c 0
 202 566 186 565 183 565 c 2
201 682 m 0
 291 682 361 610 361 522 c 0
 361 433 291 361 201 361 c 0
 112 361 41 433 41 522 c 0
 41 610 112 682 201 682 c 0
201 642 m 0
 136 642 88 589 88 521 c 0
 88 454 136 400 201 400 c 0
 266 400 314 454 314 522 c 0
 314 589 266 642 201 642 c 0
EndSplineSet
EndChar

StartChar: minus
Encoding: 8722 8722 166
Width: 612
Flags: HW
HStem: 221 92<48 564>
LayerCount: 2
Fore
SplineSet
48 313 m 5
 564 308 l 1
 564 226 l 1
 48 221 l 5
 48 313 l 5
EndSplineSet
EndChar

StartChar: eth
Encoding: 240 240 167
Width: 460
Flags: HW
HStem: -8 100<184.909 272.181> 400 85<180.268 247.109>
VStem: 39 130<103.831 367.357>
LayerCount: 2
Fore
SplineSet
227 92 m 0
 273 92 288.6875 109.166015625 282 241 c 0
 275 379 286.182617188 400 228 400 c 0
 178 400 169 392 169 246 c 0
 169 103 185 92 227 92 c 0
94 504 m 1
 66 547 l 1
 148 590 l 1
 132 606 109 624 86 641 c 1
 143 723 l 1
 169 706 217 668 247 641 c 1
 339 690 l 1
 367 644 l 1
 286 603 l 1
 320 568 347 524 371 478 c 0
 403 414 407 401 413 260 c 0
 424.060546875 0.0791015625 385 -8 223 -8 c 0
 107 -8 39 8 39 243 c 0
 39 410 131 485 210 485 c 0
 219.948242188 485 237 482 248 480 c 1
 234 507 213 536 192 555 c 1
 94 504 l 1
EndSplineSet
EndChar

StartChar: multiply
Encoding: 215 215 168
Width: 588
Flags: HW
HStem: 0 21G<77.8451 116.608 476.49 515.344>
LayerCount: 2
Fore
SplineSet
49 456 m 5
 105 516 l 5
 287 331 l 1
 489 536 l 1
 555 466 l 1
 355 263 l 1
 555 61 l 1
 496 0 l 1
 297 204 l 1
 97 0 l 1
 29 71 l 1
 228 273 l 1
 49 456 l 5
EndSplineSet
EndChar

StartChar: threesuperior
Encoding: 179 179 169
Width: 308
Flags: HW
HStem: 412 71<64.214 163.599> 479 20G<63.1176 77.5> 583 72<82 158.236> 741 71<53.7567 162.239>
VStem: 163 92<661.464 740.644> 168 98<485.995 578.823>
LayerCount: 2
Fore
SplineSet
58 723 m 5xb8
 37 785 l 1
 59 797 121 812 158 812 c 0
 242 812 255 795 255 717 c 0xb8
 255 673 247 648 200 626 c 1
 200 624 l 1
 257 613 266 593 266 533 c 0
 266 428 228 412 134 412 c 0xb4
 97 412 68 420 49 431 c 1
 69 499 l 5x74
 86 490 103 483 130 483 c 0
 163 483 168 505 168 536 c 0xb4
 168 573 156 583 114 583 c 2
 82 583 l 1
 82 655 l 1
 110 655 l 2
 142 655 163 667 163 700 c 0
 163 726 164 741 137 741 c 0
 114 741 80 734 58 723 c 5xb8
EndSplineSet
EndChar

StartChar: copyright
Encoding: 169 169 170
Width: 691
Flags: HW
HStem: 30 56<249.015 439.752> 153 69<272.252 454.596> 223 20G<443 458.839> 417 21G<448.5 462.06> 441 79<277.11 457.761> 592 56<249.015 439.752>
VStem: 38 65<233.929 440.99> 176 71<247.233 412.221> 588 65<233.929 440.99>
LayerCount: 2
Fore
SplineSet
347 648 m 0
 518 648 653 510 653 340 c 0
 653 168 518 30 347 30 c 0
 175 30 38 168 38 340 c 0
 38 510 175 648 347 648 c 0
346 592 m 0
 210 592 103 479 103 339 c 0
 103 199 210 86 346 86 c 0
 481 86 588 199 588 339 c 0
 588 479 481 592 346 592 c 0
481 484 m 1
 454 417 l 5
 443 428 418 441 373 441 c 0
 297 441 247 437 247 321 c 0
 247 226 296 222 369 222 c 0
 396 222 432 232 454 243 c 1
 469 181 l 1
 434 162 408 153 358 153 c 0
 244 153 176 208 176 334 c 0
 176 485 261 520 376 520 c 0
 421 520 464 504 481 484 c 1
EndSplineSet
EndChar

StartChar: Ccedilla
Encoding: 199 199 177
Width: 434
Flags: HW
HStem: -204 60<187.836 267.371>
VStem: 42.0832 139<140.952 525.088>
LayerCount: 2
Fore
SplineSet
375.083007812 120 m 1
 388.083007812 10 l 1
 303.69140625 -1.9248046875 l 1
 283.083007812 -44 l 1
 323.083007812 -62 348.747070312 -75.5849609375 350.083007812 -117 c 0
 353.083007812 -210 309.083007812 -204 239.083007812 -204 c 0
 227.083007812 -204 193.083007812 -197 174.083007812 -187 c 1
 193.083007812 -131 l 1
 209.083007812 -139 224.083007812 -144 236.083007812 -144 c 0
 264.083007812 -144 271.251953125 -136.510742188 267.083007812 -119 c 0
 262.083007812 -98 238.083007812 -90 199.083007812 -82 c 1
 231.640625 -9.3720703125 l 1
 103.9296875 -14.318359375 51.6162109375 46.2138671875 42.0830078125 327 c 0
 29.9951171875 683.032226562 118.985351562 697.940429688 314.083007812 680 c 2
 401.083007812 672 l 1
 388.083007812 548 l 1
 322.083007812 555 l 2
 206.015625 567.310546875 173.083007812 563 181.083007812 334 c 0
 188.5546875 120.130859375 194.083007812 91 312.083007812 110 c 2
 375.083007812 120 l 1
EndSplineSet
Position2: "'cpsp' +BBgEPQRCBDUEQAQyBDAEOwAA +BD8EQAQ+BD8EOARBBD0ESwRF lookup 0 subtable" dx=10 dy=0 dh=20 dv=0
EndChar

StartChar: Igrave
Encoding: 204 204 185
Width: 328
Flags: HW
HStem: 0 21G<124.925 256.226>
VStem: 125.075 131<0 664>
LayerCount: 2
Fore
SplineSet
27 823 m 1
 159 823 l 1
 242 710 l 1
 149 710 l 1
 27 823 l 1
EndSplineSet
Refer: 42 73 N 1 0 0 1 67.0752 0 2
Position2: "'cpsp' +BBgEPQRCBDUEQAQyBDAEOwAA +BD8EQAQ+BD8EOARBBD0ESwRF lookup 0 subtable" dx=10 dy=0 dh=20 dv=0
EndChar

StartChar: ccedilla
Encoding: 231 231 206
Width: 373
Flags: HW
HStem: -204 60<131.783 211.318> -5.99925 96.9992<245.643 317.163> 389 107<193.755 324.873>
VStem: 42.0302 128<118.214 360.654>
LayerCount: 2
Fore
SplineSet
317.030273438 96 m 1
 323.030273438 1 l 1
 305.231445312 -3.9443359375 263.965820312 -5.955078125 245.642578125 -5.9990234375 c 1
 227.030273438 -44 l 1
 267.030273438 -62 292.694335938 -75.5849609375 294.030273438 -117 c 0
 297.030273438 -210 253.030273438 -204 183.030273438 -204 c 0
 171.030273438 -204 137.030273438 -197 118.030273438 -187 c 1
 137.030273438 -131 l 1
 153.030273438 -139 168.030273438 -144 180.030273438 -144 c 0
 208.030273438 -144 215.19921875 -136.510742188 211.030273438 -119 c 0
 206.030273438 -98 182.030273438 -90 143.030273438 -82 c 1
 178.130859375 -3.69921875 l 1
 70.732421875 5.951171875 49.0546875 51.9013671875 42.0302734375 240 c 0
 33.0302734375 481 81.0302734375 496 264.030273438 496 c 0
 279.030273438 496 315.030273438 493 336.030273438 488 c 1
 324.030273438 383 l 1
 310.030273438 387 284.030273438 389 270.030273438 389 c 0
 207.030273438 389 165.030273438 388 170.030273438 244 c 0
 174.853515625 105.083984375 189.030273438 91 268.030273438 91 c 0
 277.030273438 91 305.030273438 92 317.030273438 96 c 1
EndSplineSet
EndChar

StartChar: iacute
Encoding: 237 237 211
Width: 283
Flags: HW
HStem: 0 21G<54 185> 469 20G<54 185> 559 140
VStem: 54 131<0 489> 62 203
LayerCount: 2
Fore
SplineSet
185 0 m 1xf0
 54 0 l 1
 54 489 l 1
 185 489 l 1
 185 0 l 1xf0
EndSplineSet
Refer: 125 180 S 1 0 0 1 -22 10 2
EndChar

StartChar: icircumflex
Encoding: 238 238 212
Width: 333
Flags: HW
HStem: 0 21G<63 194> 469 20G<63 194> 549 139<160.574 169>
VStem: -8 263 63 131<0 489>
LayerCount: 2
Fore
SplineSet
194 0 m 1xe8
 63 0 l 1
 63 489 l 1
 194 489 l 1
 194 0 l 1xe8
EndSplineSet
Refer: 126 710 S 1 0 0 1 -27 0 2
EndChar

StartChar: idieresis
Encoding: 239 239 213
Width: 366
Flags: HW
HStem: 0 21G<50 181> 469 20G<50 181> 563 118.288<-26 91 182.7 260> 568.856 124.144<147 260>
VStem: -26 122<567.684 681.288> 50 131<0 489> 144 116<568.856 687.144>
LayerCount: 2
Fore
SplineSet
181 0 m 1xc4
 50 0 l 1
 50 489 l 1
 181 489 l 1
 181 0 l 1xc4
EndSplineSet
Refer: 131 168 S 1 0 0 1.17117 -30 -117.45 2
EndChar

StartChar: igrave
Encoding: 236 236 214
Width: 313
Flags: HW
HStem: 0 21G<120.702 251.702> 469 20G<120.702 251.702>
VStem: 120.702 131<0 489>
LayerCount: 2
Fore
SplineSet
251.702148438 0 m 1
 120.702148438 0 l 1
 120.702148438 489 l 1
 251.702148438 489 l 1
 251.702148438 0 l 1
EndSplineSet
Refer: 124 96 S 1.1986 -0.0478629 0.0580157 0.988843 -84.0349 -5.3086 2
EndChar

StartChar: Dcroat
Encoding: 272 272 229
Width: 552
Flags: HW
HStem: -6 97<228.469 338.819> 283 101<36 97 227 301> 562 115<227.452 348.847>
VStem: 97 130<91.3865 283 384 560.997> 369 135<124.337 541.152>
LayerCount: 2
Fore
SplineSet
36 283 m 1
 36 384 l 1
 97 384 l 1
 97 664 l 1
 129 672 228 677 280 677 c 0
 482.796875 677 504 661 504 345 c 4
 504 16 472.708007812 -6 255 -6 c 4
 213 -6 122 -2 97 2 c 1
 97 283 l 1
 36 283 l 1
301 384 m 1
 301 283 l 1
 227 283 l 1
 227 93 l 1
 234 91 274 91 281 91 c 0
 344 91 369 98 369 350 c 0
 369 548 363 562 283 562 c 0
 273 562 235 561 227 559 c 1
 227 384 l 1
 301 384 l 1
EndSplineSet
Position2: "'cpsp' +BBgEPQRCBDUEQAQyBDAEOwAA +BD8EQAQ+BD8EOARBBD0ESwRF lookup 0 subtable" dx=10 dy=0 dh=20 dv=0
EndChar

StartChar: Eng
Encoding: 330 330 230
Width: 498
Flags: HW
HStem: -202 21G<282.429 358.82> 664 20G<337.768 453>
VStem: 43 116<203.2 429> 53 115<10 335.889> 338 115<404.95 681>
LayerCount: 2
Fore
SplineSet
168 10 m 1xd8
 53 7 l 1xd8
 43 661 l 1
 173 664 l 1
 331 253 l 1
 333 253 l 1
 338 684 l 1
 453 681 l 1
 448.11328125 453.81640625 447 230 440.629882812 -2.9453125 c 1
 434.033203125 -140.708007812 426.639648438 -147.186523438 291 -202 c 5
 249 -104 l 1
 309 -79 323 -77 313 0 c 1
 161 429 l 1
 159 429 l 1xe8
 168 10 l 1xd8
EndSplineSet
Position2: "'cpsp' +BBgEPQRCBDUEQAQyBDAEOwAA +BD8EQAQ+BD8EOARBBD0ESwRF lookup 0 subtable" dx=10 dy=0 dh=20 dv=0
EndChar

StartChar: Hbar
Encoding: 294 294 231
Width: 553
Flags: HW
HStem: 0 21G<75 206> 245 122<206 343> 470 89<31 75 206 343 474 518> 664 20G<75 206>
VStem: 75 131<0 245 367 470 559 684> 343 131<-20 245 367 470 559 664>
LayerCount: 2
Fore
SplineSet
518 470 m 1
 474 470 l 1
 474 -20 l 1
 343 -20 l 1
 343 245 l 1
 206 245 l 1
 206 0 l 1
 75 0 l 1
 75 470 l 1
 31 470 l 1
 31 559 l 1
 75 559 l 1
 75 684 l 5
 206 684 l 5
 206 559 l 1
 343 559 l 1
 343 664 l 1
 474 664 l 1
 474 559 l 1
 518 559 l 1
 518 470 l 1
343 367 m 1
 343 470 l 1
 206 470 l 1
 206 367 l 1
 343 367 l 1
EndSplineSet
Position2: "'cpsp' +BBgEPQRCBDUEQAQyBDAEOwAA +BD8EQAQ+BD8EOARBBD0ESwRF lookup 0 subtable" dx=10 dy=0 dh=20 dv=0
EndChar

StartChar: Tbar
Encoding: 358 358 232
Width: 438
Flags: HW
HStem: 293 89<286 361> 306 88<74 155> 547 131<36 155> 561 129<286 401>
VStem: 155 131<-20 293 390 553>
LayerCount: 2
Fore
SplineSet
406 567 m 1x18
 286 561 l 1
 286 382 l 1
 366 378 l 1
 361 290 l 1
 286 293 l 1x98
 286 -20 l 1
 155 -20 l 1
 155 301 l 1
 68 306 l 5
 74 394 l 1
 155 390 l 1
 155 553 l 1
 36 547 l 1
 31 678 l 1x68
 401 690 l 1
 406 567 l 1x18
EndSplineSet
Position2: "'cpsp' +BBgEPQRCBDUEQAQyBDAEOwAA +BD8EQAQ+BD8EOARBBD0ESwRF lookup 0 subtable" dx=10 dy=0 dh=20 dv=0
EndChar

StartChar: uni021C
Encoding: 540 540 233
Width: 419
Flags: HW
HStem: 565 117<59.8039 197.693>
VStem: 212 125<423.573 552.146> 242 134<78.7462 271.619>
LayerCount: 2
Fore
SplineSet
67 -113 m 5xa0
 29 -18 l 5
 207 30 242 67 242 177 c 0xa0
 242 257.309570312 243 318 86 265 c 1
 58 359 l 1
 203 408 212 424 212 500 c 0
 212 540 191 565 151 565 c 0
 121 565 86 554 65 545 c 1
 33 659 l 5
 89 674 137 682 171 682 c 4
 307 682 337 680 337 531 c 0xc0
 337 446 327 412 245 362 c 1
 245 360 l 1
 345 346 376 340 376 183 c 0
 376 -2 261 -66 67 -113 c 5xa0
EndSplineSet
Position2: "'cpsp' +BBgEPQRCBDUEQAQyBDAEOwAA +BD8EQAQ+BD8EOARBBD0ESwRF lookup 0 subtable" dx=10 dy=0 dh=20 dv=0
EndChar

StartChar: dcroat
Encoding: 273 273 234
Width: 506
Flags: HW
HStem: -8 97<187.643 272.607> 377 120<188.82 268.211> 533 91<154 282 413 473> 682 20G<282 413>
VStem: 41 130<105.45 363.481> 282 131<96.2462 371.153 458 533 624 702>
LayerCount: 2
Fore
SplineSet
473 533 m 1
 413 533 l 1
 413 195 l 2
 413 148 415 45 417 0 c 1
 304 -10 l 1
 297 35 l 5
 295 35 l 5
 277 1 238 -8 193 -8 c 0
 89 -8 41 0 41 244 c 4
 41 479 56 497 198 497 c 4
 241 497 268 486 280 458 c 1
 282 458 l 1
 282 533 l 1
 154 533 l 1
 154 624 l 1
 282 624 l 1
 282 702 l 1
 413 702 l 1
 413 624 l 1
 473 624 l 1
 473 533 l 1
282 162 m 6
 282 291 l 6
 282 361 269.4609375 377 234 377 c 0
 188 377 171 365 171 231 c 4
 171 94 196 89 233 89 c 0
 256.848632812 89 282 97 282 162 c 6
EndSplineSet
EndChar

StartChar: eng
Encoding: 331 331 235
Width: 462
Flags: HW
HStem: 387 110<192.966 351>
VStem: 49 131<20 377.131> 274 131<-64.1797 240.6> 284 131<128.4 381.869>
LayerCount: 2
Fore
SplineSet
49 20 m 5xd0
 49 242 l 2
 49 296 48 416 43 489 c 1
 158 499 l 1
 164 463 l 1
 166 463 l 1
 189 490 234 497 285 497 c 0
 417 497 415 453 415 344 c 2xd0
 405 36 l 2
 405 -117 399 -131 235 -189 c 1
 196 -90 l 1
 265 -68 274 -58 274 18 c 2xe0
 284 336 l 2
 284 378 274 387 236 387 c 0
 214 387 196 382 187 353 c 0
 183 343 180 327 180 308 c 2
 180 20 l 5
 49 20 l 5xd0
EndSplineSet
EndChar

StartChar: hbar
Encoding: 295 295 236
Width: 505
Flags: HW
HStem: 0 21G<91 222 326 457> 533 81<30 91 222 354> 672 20G<91 222>
VStem: 91 131<0 371.786 438 533 614 692> 326 131<0 375.917>
LayerCount: 2
Fore
SplineSet
457 0 m 1
 326 0 l 1
 326 297 l 2
 326 345 317 387 278 387 c 0
 256 387 237 374 227 341 c 0
 225 333 222 315 222 304 c 2
 222 0 l 1
 91 0 l 1
 91 533 l 1
 30 533 l 1
 30 614 l 1
 91 614 l 1
 91 692 l 1
 222 692 l 1
 222 614 l 1
 354 614 l 1
 354 533 l 1
 222 533 l 1
 222 438 l 1
 224 438 l 1
 235 455 250 469 266 480 c 0
 285 491 308 497 332 497 c 0
 422 497 457 421 457 297 c 2
 457 0 l 1
EndSplineSet
EndChar

StartChar: kgreenlandic
Encoding: 312 312 237
Width: 446
Flags: HW
HStem: 0 21G<47 178> 479 20G<278.357 335.442>
VStem: 47 131<0 249 275 482>
LayerCount: 2
Fore
SplineSet
178 482 m 1
 178 275 l 1
 180 275 l 1
 288 499 l 1
 390 456 l 1
 300 279 l 1
 416 10 l 1
 280 -20 l 1
 178 249 l 1
 178 0 l 5
 47 0 l 5
 47 482 l 1
 178 482 l 1
EndSplineSet
EndChar

StartChar: napostrophe
Encoding: 329 329 238
Width: 516
Flags: HW
HStem: 0 21G<78 209> 377 120<227.298 311.252>
VStem: 58 95<564.327 695.956> 78 131<0 370.563> 313 131<10 373.689>
LayerCount: 2
Fore
SplineSet
95 510 m 1xe8
 28 553 l 1
 41 569 58 599 58 632 c 0
 58 658 53 681 40 691 c 1
 120 713 l 5
 137 703 153 669 153 636 c 0
 153 575 113 525 95 510 c 1xe8
EndSplineSet
Refer: 79 110 N 1 0 0 1 32 0 2
EndChar

StartChar: tbar
Encoding: 359 359 239
Width: 359
Flags: HW
HStem: -6 108<168.946 299.012> 244 82<37 93 224 289> 396 93<45 93 224 320>
VStem: 93 131<105.956 244 326 396 489 600>
LayerCount: 2
Fore
SplineSet
320 396 m 1
 224 396 l 1
 224 326 l 1
 289 326 l 1
 289 244 l 1
 224 244 l 1
 224 173 l 6
 224 105 238 102 264 102 c 0
 277 102 287 103 298 105 c 1
 309 -1 l 1
 288 -4 254 -6 219 -6 c 4
 118.892578125 -6 93 5 93 165 c 6
 93 244 l 1
 37 244 l 1
 37 326 l 1
 93 326 l 1
 93 396 l 1
 45 396 l 1
 45 489 l 1
 93 489 l 1
 93 600 l 1
 224 611 l 1
 224 489 l 1
 320 489 l 1
 320 396 l 1
EndSplineSet
EndChar

StartChar: uni021D
Encoding: 541 541 240
Width: 391
Flags: HW
HStem: -200 86<49.3721 98.7551> 109 104<75 122.168> 381 116<54.1699 196.932>
VStem: 199 120<275.929 377.758> 226 130<-42.2331 101.13>
LayerCount: 2
Fore
SplineSet
51 -200 m 1xe8
 31 -114 l 5
 220 -55 226 -53 226 55 c 0xe8
 226 115.692382812 155.133789062 136.872070312 75 109 c 1
 56 213 l 1
 126 231 199 259 199 325 c 0
 199 367 204 381 142 381 c 0
 112 381 83 375 57 366 c 1
 33 475 l 1
 60 484 106 497 160 497 c 0
 300 497 319 471 319 357 c 0xf0
 319 288 282 240 228 215 c 1
 228 212 l 1
 300 197 356 151 356 62 c 0
 356 -105 320 -153 51 -200 c 1xe8
EndSplineSet
EndChar

StartChar: IJ
Encoding: 306 306 241
Width: 460
Flags: HW
HStem: 22 20.3042G<32.8494 164.151> 654 20G<278 409>
VStem: 33 131<22 664> 278 131<24.138 674>
LayerCount: 2
Fore
SplineSet
278 149 m 2
 278 674 l 1
 409 674 l 1
 409 155 l 2
 409 -50 403 -47 205 -162 c 1
 145 -46 l 1
 279 35 278 10 278 149 c 2
EndSplineSet
Refer: 42 73 N 1 0 0 0.966867 -25 22 2
Position2: "'cpsp' +BBgEPQRCBDUEQAQyBDAEOwAA +BD8EQAQ+BD8EOARBBD0ESwRF lookup 0 subtable" dx=10 dy=0 dh=20 dv=0
EndChar

StartChar: f_f
Encoding: 64256 64256 242
Width: 600
Flags: HW
HStem: 0 21G<91 222> 386 103<35 91 222 336 467 542> 563 120<232.081 300> 587 112<486.254 562>
VStem: 91 131<0 386 489 546.545> 336 131<-20 386 489 570.006>
LayerCount: 2
Fore
SplineSet
467 -20 m 1xdc
 336 -20 l 1
 336 386 l 1
 222 386 l 1
 222 0 l 1
 91 0 l 1
 91 386 l 1
 35 386 l 1
 35 489 l 1
 91 489 l 1
 91 506 l 2
 91 663 114 679 302 683 c 1
 300 563 l 1xec
 230 556 222 542 222 508 c 2
 222 489 l 1
 336 489 l 1
 336 509 l 2
 336 673 332 693 562 699 c 1
 568 587 l 1
 476 573 467 572.893554688 467 512 c 2
 467 489 l 1
 542 489 l 1
 542 386 l 1
 467 386 l 1
 467 -20 l 1xdc
EndSplineSet
LCarets2: 1 0
Ligature2: "'liga' Standard Ligatures lookup 18 subtable" f f
EndChar

StartChar: f_f_i
Encoding: 64259 64259 243
Width: 776
Flags: HW
HStem: 0 21G<100 231 599.495 731> 396 93<34 100 231 356 487 590> 593 107<259.064 313.454 511.518 680.401>
VStem: 100 131<0 396 489 567.642> 356 131<-20 396 489 566.689> 590 131<151.6 396> 600 131<7 277.2>
LayerCount: 2
Fore
SplineSet
689 690 m 1xfc
 681 587 l 1
 629 593 593 593 579 593 c 0
 507 593 487 553 487 507 c 2
 487 489 l 1
 721 489 l 1xfc
 731 7 l 5
 600 0 l 1xfa
 590 396 l 1
 487 396 l 1
 487 -20 l 1
 356 -20 l 1
 356 396 l 1
 231 396 l 1
 231 0 l 1
 100 0 l 1
 100 396 l 1
 34 396 l 1
 34 489 l 1
 100 489 l 1
 100 502 l 2
 100 633.966796875 133 681 313 699 c 1
 320 592 l 1
 233 575 231 561.040039062 231 506 c 2
 231 489 l 1
 356 489 l 1
 356 515 l 2
 356 578 396 700 573 700 c 0
 589 700 641 698 689 690 c 1xfc
EndSplineSet
LCarets2: 2 0 0
Ligature2: "'liga' Standard Ligatures lookup 18 subtable" f f i
EndChar

StartChar: f_f_j
Encoding: 57347 57347 244
Width: 781
Flags: HW
HStem: -200 104<523 572.157> 0 21G<100 231 356 487> 396 93<34 100 231 356 487 600> 589 103<248.013 324.605> 593 107<511.518 673.488>
VStem: 100 131<0 396 489 571.243> 356 131<0 396 489 566.689> 600 131<-68.0803 396>
LayerCount: 2
Fore
SplineSet
689 680 m 1xef
 671 577 l 1
 648 585 618 593 579 593 c 0xef
 507 593 487 553 487 507 c 2
 487 489 l 1
 731 489 l 1
 731 35 l 2
 731 -74 708 -125 666 -158 c 0
 630 -187 570 -200 523 -200 c 1
 513 -96 l 1
 536 -93 561 -88 577 -70 c 0
 596 -50 600 -15 600 60 c 2
 600 396 l 1
 487 396 l 1
 487 0 l 1
 356 0 l 1
 356 396 l 1
 231 396 l 1
 231 0 l 1
 100 0 l 1
 100 396 l 1
 34 396 l 1
 34 489 l 1
 100 489 l 1
 100 502 l 2
 100 570 123 626 171 660 c 0
 200 681 237 692 279 692 c 0
 310 692 337 685 353 679 c 1
 320 582 l 1
 311 586 301 589 286 589 c 0xf7
 271 589 257 582 249 572 c 0
 234 556 231 530 231 506 c 2
 231 489 l 1
 356 489 l 1
 356 515 l 2
 356 578 396 700 573 700 c 0
 620 700 663 692 689 680 c 1xef
EndSplineSet
Ligature2: "'liga' Standard Ligatures lookup 18 subtable" f f j
EndChar

StartChar: f_f_l
Encoding: 64260 64260 245
Width: 782
Flags: HW
HStem: 0 21G<359.868 490.868> 396.515 92.9414<36.2852 98.959 233.163 359.868 490.868 562.868> 662.235 20G<222.429 307.132>
VStem: 98.959 130.918<250.648 395.886 489.456 562.658> 115.883 130.918<10.7559 206.169> 359.868 131<0 396 489 575.622> 594.868 131<-10 449.667> 603.868 131<141.889 582.218>
LayerCount: 2
Fore
SplineSet
305.112304688 682.235351562 m 1xf4
 315.888671875 575.548828125 l 1
 235.116210938 567.690429688 227.331054688 561.451171875 229.276367188 506.446289062 c 2
 229.876953125 489.456054688 l 1
 359.868164062 489 l 1
 359.868164062 508 l 2
 359.868164062 544 364.266601562 616.4765625 406.868164062 657 c 0
 447.868164062 696 483.868164062 698 734.868164062 684 c 5xf5
 725.868164062 -13 l 1
 594.868164062 -10 l 1xe6
 603.868164062 581 l 5
 487.868164062 589 490.868164062 573.354492188 490.868164062 514 c 2
 490.868164062 489 l 1
 562.868164062 489 l 1
 562.868164062 396 l 1
 490.868164062 396 l 1
 490.868164062 0 l 1
 359.868164062 0 l 1
 359.868164062 396 l 1
 233.163085938 396.514648438 l 1
 246.80078125 10.755859375 l 1
 115.8828125 6.126953125 l 1xed
 102.244140625 395.885742188 l 1
 36.28515625 396.5546875 l 1
 33 489.49609375 l 1
 98.958984375 488.828125 l 1
 98.4990234375 497.8203125 l 2
 92.775390625 659.71875 139.74609375 661.37890625 305.112304688 682.235351562 c 1xf4
EndSplineSet
LCarets2: 2 0 0
Ligature2: "'liga' Standard Ligatures lookup 18 subtable" f f l
EndChar

StartChar: f_i
Encoding: 65537 -1 246
Width: 528
Flags: HW
HStem: -2.37891 21G<116.441 248.096 334.783 467.356> 390.885 92.9355<36.4678 98.9541> 398.23 92.9355<233.331 347.901> 586 113<239.465 375.736>
VStem: 98.9541 130.909<262.469 393.346 491.166 587.556> 117.188 130.909<2.50586 185.224> 334.783 131.862<3.15723 193.941> 347.901 136.117<288.783 398.743>
LayerCount: 2
Fore
SplineSet
248.096679688 2.505859375 m 1xb5
 117.1875 -2.37890625 l 1
 102.421875 393.345703125 l 1
 36.4677734375 390.884765625 l 1
 33 483.8203125 l 1xd5
 98.9541015625 486.28125 l 1
 97.984375 512.262695312 l 2
 91.1962890625 694.13671875 111.736328125 737 384.736328125 699 c 5
 375.736328125 586 l 1
 243.736328125 603 225.49609375 608.083984375 229.19140625 509.153320312 c 2
 229.86328125 491.166015625 l 1
 484.018554688 485.606445312 l 1xb9
 466.645507812 -2.8818359375 l 1
 334.783203125 3.1572265625 l 1xb2
 347.901367188 398.743164062 l 1
 233.331054688 398.23046875 l 1
 248.096679688 2.505859375 l 1xb5
EndSplineSet
LCarets2: 1 0
Ligature2: "'liga' Standard Ligatures lookup 18 subtable" f i
EndChar

StartChar: f_j
Encoding: 57348 57348 247
Width: 521
Flags: HW
HStem: -200 21G<259.396 364.088> 587 103<244.162 404.088>
VStem: 100.088 131<20 399.841 499.965 586.439> 330.525 136.955<208.184 394.629> 343.088 132<-48.9524 246.445>
LayerCount: 2
Fore
SplineSet
231.087890625 20 m 1xf0
 100.087890625 20 l 1
 97.8984375 407.107421875 l 1
 32 410.768554688 l 1
 37.158203125 503.625976562 l 1
 99.056640625 499.96484375 l 1
 100.499023438 525.924804688 l 2
 110.567382812 707.139648438 115.087890625 725 423.087890625 690 c 1
 404.087890625 587 l 1
 243.087890625 613 236.243164062 607.713867188 230.853515625 510.669921875 c 2
 229.85546875 492.698242188 l 1
 467.479492188 480.163085938 l 5xf0
 475.087890625 35 l 2
 474.087890625 -135 461.087890625 -133 267.087890625 -200 c 1
 227.087890625 -96 l 1
 333.087890625 -55 344.087890625 -54 343.087890625 60 c 2xe8
 330.524414062 394.62890625 l 5
 228.696289062 399.840820312 l 1
 231.087890625 20 l 1xf0
EndSplineSet
LCarets2: 1 0
Ligature2: "'liga' Standard Ligatures lookup 18 subtable" f j
EndChar

StartChar: f_l
Encoding: 65538 -1 248
Width: 521
Flags: HW
HStem: 0 21G<333 465.288> 396 93<34 100 231 292>
VStem: 100 131<-20 396 489 579.043> 333 132<4 414.9> 343 132<208.2 592.414>
LayerCount: 2
Fore
SplineSet
231 -20 m 1xe8
 100 -20 l 1
 100 396 l 1
 34 396 l 1
 34 489 l 1
 100 489 l 1
 100 508 l 2
 100 680.984375 113 712 475 694 c 1xe8
 465 0 l 1
 333 4 l 5xf0
 343 591 l 1
 235 601 231 571.418945312 231 514 c 2
 231 489 l 1
 292 489 l 1
 292 396 l 1
 231 396 l 1
 231 -20 l 1xe8
EndSplineSet
LCarets2: 1 0
Ligature2: "'liga' Standard Ligatures lookup 18 subtable" f l
EndChar

StartChar: ij
Encoding: 307 307 249
Width: 454
Flags: HW
HStem: 0 21G<63.0353 194.444> 473 20G<53.4443 184.853 276.988 408.444> 548.999 140<58.6033 179.318> 560 129<288.444 405.444>
VStem: 53.4443 131<150.7 489> 58.6033 120.715<550.085 687.914> 63.4443 131<4 342.3> 267.444 131<-50.4003 347> 277.444 131<181.7 485> 288.444 117<561 688>
LayerCount: 2
Fore
SplineSet
194.444335938 4 m 1xc2
 63.4443359375 0 l 1xc2
 53.4443359375 489 l 1
 184.444335938 493 l 1xc8
 194.444335938 4 l 1xc2
191.444335938 -210 m 1
 141.444335938 -106 l 1
 241.444335938 -62 264.733398438 -69.0068359375 267.444335938 50 c 6xc1
 277.444335938 489 l 1
 408.444335938 485 l 5xc080
 398.444335938 25 l 6xc1
 394.943359375 -136.032226562 362.444335938 -139 191.444335938 -210 c 1
EndSplineSet
Refer: 130 729 N 1 0 0 1 197.444 0 2
Refer: 130 729 N 1.03175 0 0 1.08527 -35.2859 -58.7519 2
EndChar

StartChar: zero.slash
Encoding: 63032 63032 250
Width: 460
Flags: HW
HStem: -8 112<192.079 264.065> 546 112<197.864 264.813>
VStem: 40 124<250.268 496.172> 296 124<153.063 403.01>
LayerCount: 2
Fore
SplineSet
169 247 m 1
 278 501 l 1
 270 528 255 546 232 546 c 0
 188 546 164 476 164 325 c 0
 164 299 166 275 169 247 c 1
291 406 m 1
 182 145 l 1
 191 121 206 104 229 104 c 0
 274 104 296 176 296 325 c 0
 296 352 295 377 291 406 c 1
235 658 m 0
 385 658 420 483 420 328 c 0
 420 95 335 -8 230 -8 c 0
 88 -8 40 155 40 322 c 0
 40 509 100 658 235 658 c 0
EndSplineSet
AlternateSubs2: "'aalt' +BBIEQQQ1 +BDAEOwRMBEIENQRABD0EMARCBDgEMgQ9BEsENQAA +BDIEMARABDgEMAQ9BEIESwAA lookup 1 subtable" zero.fitted zero.oldstyle zero.taboldstyle zero.superior zero.inferior zero.numerator zero.denominator
EndChar

StartChar: Euro
Encoding: 8364 8364 251
Width: 452
Flags: HW
HStem: -8 112<246.329 385.958> 238 67<46 82 218 374> 352 68<36 83 221 354> 536 122<247.585 398.634>
VStem: 82 131<146.207 238 305 352>
LayerCount: 2
Fore
SplineSet
384 123 m 1
 398 15 l 1
 379 6 337 -8 293 -8 c 0
 161.380859375 -8 111 33 87 238 c 1
 46 238 l 1
 46 305 l 1
 82 305 l 1
 82 309 82 313 82 317 c 0
 82 329 83 342 83 352 c 1
 36 352 l 1
 36 420 l 1
 90 420 l 1
 116 611 170.095703125 658 305 658 c 0
 348 658 398 646 417 638 c 1
 396 519 l 5
 383 526 335 536 310 536 c 4
 243.155273438 536 234 511 221 420 c 1
 354 420 l 1
 354 352 l 1
 214 352 l 1
 213 342 213 329 213 316 c 0
 213 312 213 309 213 305 c 1
 374 305 l 1
 374 238 l 1
 218 238 l 1
 227 135 238.201171875 104 308 104 c 0
 335 104 368 115 384 123 c 1
EndSplineSet
Substitution2: "'onum' Oldstyle Figures lookup 14 subtable" Euro.taboldstyle
Substitution2: "'aalt' +BBIEQQQ1 +BDAEOwRMBEIENQRABD0EMARCBDgEMgQ9BEsENQAA +BDIEMARABDgEMAQ9BEIESwAA lookup 0 subtable" Euro.taboldstyle
EndChar

StartChar: estimated
Encoding: 8494 8494 253
Width: 822
Flags: HW
HStem: -11 30<309.111 515.485> 316 29<175 649> 631 30<309.439 516.582>
VStem: 38 137<217.068 316 345 432.932> 649 136<345 432.932>
LayerCount: 2
Fore
SplineSet
785 316 m 2
 180 316 l 2
 177 316 175 315 175 312 c 2
 175 129 l 2
 175 121 179 114 184 108 c 0
 241 47 323 19 413 19 c 0
 509 19 595 52 653 120 c 1
 683 96 l 5
 619 31 532 -11 412 -11 c 0
 206 -11 38 139 38 325 c 0
 38 511 206 661 412 661 c 0
 618 661 785 511 785 325 c 0
 785 322 785 319 785 316 c 2
649 350 m 2
 649 524 l 2
 649 533 645 540 639 546 c 0
 581 604 501 631 413 631 c 0
 323 631 243 603 185 543 c 0
 179 537 175 529 175 520 c 2
 175 350 l 2
 175 347 177 345 180 345 c 2
 644 345 l 2
 647 345 649 347 649 350 c 2
EndSplineSet
EndChar

StartChar: zero.oldstyle
Encoding: 63280 63280 254
Width: 462
Flags: HW
HStem: -8 90<186.563 276.074> 387 110<182.372 285.772>
VStem: 45 122<99.2032 375.596> 296 122<99.1914 378.515>
LayerCount: 2
Fore
SplineSet
231 -8 m 4
 68 -8 45 14 45 245 c 0
 45 494 74 497 231 497 c 0
 394 497 418 496 418 245 c 0
 418 28 394 -8 231 -8 c 4
231 82 m 0
 272 82 296 88 296 235 c 4
 296 386 288 387 231 387 c 4
 180 387 167 374 167 235 c 4
 167 88 192 82 231 82 c 0
EndSplineSet
Substitution2: "'tnum' Tabular Numbers lookup 17 subtable" zero.taboldstyle
AlternateSubs2: "'aalt' +BBIEQQQ1 +BDAEOwRMBEIENQRABD0EMARCBDgEMgQ9BEsENQAA +BDIEMARABDgEMAQ9BEIESwAA lookup 1 subtable" zero.taboldstyle
EndChar

StartChar: one.oldstyle
Encoding: 63281 63281 255
Width: 331
Flags: HW
HStem: 0 21G<153 282> 480 20G<143.051 282>
VStem: 153 129<0 354>
LayerCount: 2
Fore
SplineSet
282 0 m 1
 153 0 l 1
 153 354 l 1
 151 354 l 1
 84 313 l 5
 37 421 l 1
 179 500 l 1
 282 493 l 1
 282 0 l 1
EndSplineSet
Substitution2: "'tnum' Tabular Numbers lookup 17 subtable" one.taboldstyle
AlternateSubs2: "'aalt' +BBIEQQQ1 +BDAEOwRMBEIENQRABD0EMARCBDgEMgQ9BEsENQAA +BDIEMARABDgEMAQ9BEIESwAA lookup 1 subtable" one.taboldstyle
EndChar

StartChar: two.oldstyle
Encoding: 63282 63282 256
Width: 406
Flags: HW
HStem: 0 107<201 362> 381 116<76.6198 265>
VStem: 221 124<250.708 378.035>
LayerCount: 2
Fore
SplineSet
362 -6 m 1
 43 0 l 1
 43 86 l 1
 87 128 l 2
 158 195 221 252 221 317 c 0
 221 379 213 381 167 381 c 4
 144 381 103 371 71 357 c 5
 40 463 l 5
 79 479 160 497 220 497 c 0
 310 497 345 482 345 341 c 0
 345 253 294 193 227 131 c 2
 201 109 l 1
 201 107 l 1
 368 102 l 1
 362 -6 l 1
EndSplineSet
Substitution2: "'tnum' Tabular Numbers lookup 17 subtable" two.taboldstyle
AlternateSubs2: "'aalt' +BBIEQQQ1 +BDAEOwRMBEIENQRABD0EMARCBDgEMgQ9BEsENQAA +BDIEMARABDgEMAQ9BEIESwAA lookup 1 subtable" two.taboldstyle
EndChar

StartChar: three.oldstyle
Encoding: 63283 63283 257
Width: 387
Flags: HW
HStem: -125 96<50.2988 205.735> 139 100<79 118.342> 380 117<56.519 266.5>
VStem: 207 122<273.424 376.09> 218 130<-17.9747 118.976>
LayerCount: 2
Fore
SplineSet
39 -113 m 1xe8
 52 -22 l 1
 64 -26 100 -29 124 -29 c 0
 209 -29 218 -19 218 69 c 0xe8
 218 119 179 140 119 140 c 0
 105 140 89 140 79 139 c 1
 78 239 l 1
 105 241 l 2
 159 246 207 274 207 321 c 0
 207 375 200 380 158 380 c 0
 128 380 78 372 56 362 c 1
 38 468 l 1
 63 483 151 497 206 497 c 0
 327 497 329 479 329 358 c 0xf0
 329 246 299 222 244 209 c 5
 244 206 l 5
 316 192 348 166 348 68 c 0
 348 -114 325 -125 162 -125 c 0
 120 -125 58 -119 39 -113 c 1xe8
EndSplineSet
Substitution2: "'tnum' Tabular Numbers lookup 17 subtable" three.taboldstyle
AlternateSubs2: "'aalt' +BBIEQQQ1 +BDAEOwRMBEIENQRABD0EMARCBDgEMgQ9BEsENQAA +BDIEMARABDgEMAQ9BEIESwAA lookup 1 subtable" three.taboldstyle
EndChar

StartChar: four.oldstyle
Encoding: 63284 63284 258
Width: 466
Flags: HW
HStem: -118 21G<253 365> 471 20G<228.011 365>
VStem: 253 112<-118 13 133 333>
LayerCount: 2
Fore
SplineSet
423 9 m 5
 365 13 l 5
 365 -118 l 1
 253 -118 l 1
 253 19 l 5
 39 29 l 5
 39 127 l 1
 239 491 l 1
 365 481 l 1
 365 125 l 1
 430 120 l 1
 423 9 l 5
253 133 m 1
 256 333 l 1
 254 333 l 1
 149 144 l 1
 149 141 l 1
 253 133 l 1
EndSplineSet
Substitution2: "'tnum' Tabular Numbers lookup 17 subtable" four.taboldstyle
AlternateSubs2: "'aalt' +BBIEQQQ1 +BDAEOwRMBEIENQRABD0EMARCBDgEMgQ9BEsENQAA +BDIEMARABDgEMAQ9BEIESwAA lookup 1 subtable" four.taboldstyle
EndChar

StartChar: five.oldstyle
Encoding: 63285 63285 259
Width: 381
Flags: HW
HStem: -124 106<46.9079 198.1> 368 121<175 319>
VStem: 210 131<-7.40839 152.988>
LayerCount: 2
Fore
SplineSet
37 -112 m 1
 48 -12 l 1
 62 -15 110 -18 140 -18 c 0
 193 -18 210 -9 210 77 c 0
 210 162.069335938 206 171 42 171 c 5
 91 489 l 1
 319 489 l 1
 328 368 l 1
 175 368 l 1
 159 268 l 1
 259.193359375 256.657226562 341 262 341 88 c 0
 341 -112 311 -124 149 -124 c 0
 118 -124 53 -119 37 -112 c 1
EndSplineSet
Substitution2: "'tnum' Tabular Numbers lookup 17 subtable" five.taboldstyle
AlternateSubs2: "'aalt' +BBIEQQQ1 +BDAEOwRMBEIENQRABD0EMARCBDgEMgQ9BEsENQAA +BDIEMARABDgEMAQ9BEIESwAA lookup 1 subtable" five.taboldstyle
EndChar

StartChar: six.oldstyle
Encoding: 63286 63286 260
Width: 454
Flags: HW
HStem: -8 84<182.475 274.183> 298 102<183.043 333.834> 506 108<254.768 373.648>
VStem: 42 130<82.9374 356.996> 284 130<80.8893 285.563>
LayerCount: 2
Fore
SplineSet
373 614 m 1
 383 506 l 1
 228.073242188 491.245117188 188 478 182 377 c 1
 200 401 237 400 271 400 c 0
 395 400 414 393 414 209 c 0
 414 11 397 -8 229 -8 c 0
 55 -8 42 6 42 240 c 0
 42 536 159 602 373 614 c 1
230 76 m 4
 277 76 284 87 284 186 c 4
 284 261 282 298 225 298 c 4
 184.278320312 298 172 288 172 200 c 4
 172 78 182 76 230 76 c 4
EndSplineSet
Substitution2: "'tnum' Tabular Numbers lookup 17 subtable" six.taboldstyle
AlternateSubs2: "'aalt' +BBIEQQQ1 +BDAEOwRMBEIENQRABD0EMARCBDgEMgQ9BEsENQAA +BDIEMARABDgEMAQ9BEIESwAA lookup 1 subtable" six.taboldstyle
EndChar

StartChar: seven.oldstyle
Encoding: 63287 63287 261
Width: 412
Flags: HW
HStem: 377 112<58 242>
LayerCount: 2
Fore
SplineSet
369 489 m 5
 373 405 l 1
 361 340 234 18 157 -128 c 1
 36 -102 l 1
 109 30 214 269 242 375 c 1
 242 377 l 1
 48 377 l 1
 58 489 l 1
 369 489 l 5
EndSplineSet
Substitution2: "'tnum' Tabular Numbers lookup 17 subtable" seven.taboldstyle
AlternateSubs2: "'aalt' +BBIEQQQ1 +BDAEOwRMBEIENQRABD0EMARCBDgEMgQ9BEsENQAA +BDIEMARABDgEMAQ9BEIESwAA lookup 1 subtable" seven.taboldstyle
EndChar

StartChar: eight.oldstyle
Encoding: 63288 63288 262
Width: 455
Flags: HW
HStem: -8 77<175.64 283.113> 525 92<188.293 275.474>
VStem: 39 124<77.99 228.861> 56 121<388.749 517.804> 284 118<378.209 518.231> 293 124<76.1444 214.76>
LayerCount: 2
Fore
SplineSet
330 317 m 5xd8
 330 313 l 5
 385 281 417 258 417 162 c 4
 417 0 393 -8 226 -8 c 0
 62 -8 39 6 39 151 c 4xe4
 39 248 80 270 134 305 c 1
 134 308 l 1
 83 344 56 360 56 441 c 4
 56 604 73 617 237 617 c 0
 387 617 402 600 402 452 c 4
 402 362 383 350 330 317 c 5xd8
234 525 m 0
 196 526 177 514 177 449 c 0
 177 411 199 378 241 354 c 1
 265 376 284 404 284 449 c 0xd8
 284 524 259 524 234 525 c 0
229 69 m 0
 269 69 293 70 293 149 c 0
 293 202 259 237 217 261 c 1
 185 240 163 204 163 156 c 0xe4
 163 72 189 69 229 69 c 0
EndSplineSet
Substitution2: "'tnum' Tabular Numbers lookup 17 subtable" eight.taboldstyle
AlternateSubs2: "'aalt' +BBIEQQQ1 +BDAEOwRMBEIENQRABD0EMARCBDgEMgQ9BEsENQAA +BDIEMARABDgEMAQ9BEIESwAA lookup 1 subtable" eight.taboldstyle
EndChar

StartChar: nine.oldstyle
Encoding: 63289 63289 263
Width: 455
Flags: HW
HStem: -121 96<72 224.545> 93 86<117.185 273.218> 392 105<179.871 276.414>
VStem: 43 129<183.61 387.033>
LayerCount: 2
Fore
SplineSet
72 -121 m 1
 61 -25 l 1
 233 -17 263 -22 281 122 c 5
 265 99 226 93 184 93 c 0
 55 93 43 158 43 285 c 0
 43 474 63 497 230 497 c 0
 401 497 425 480 408 256 c 0
 385.600585938 -39.1513671875 379 -113 72 -121 c 1
233 179 m 0
 274.666992188 179 279 197 284 277 c 4
 291.0625 389.99609375 273 392 226 392 c 0
 181 392 172 384 172 293 c 0
 172 179 179 179 233 179 c 0
EndSplineSet
Substitution2: "'tnum' Tabular Numbers lookup 17 subtable" nine.taboldstyle
AlternateSubs2: "'aalt' +BBIEQQQ1 +BDAEOwRMBEIENQRABD0EMARCBDgEMgQ9BEsENQAA +BDIEMARABDgEMAQ9BEIESwAA lookup 1 subtable" nine.taboldstyle
EndChar

StartChar: percent.oldstyle
Encoding: 63042 63042 264
Width: 718
Flags: HW
HStem: -6 70<523.499 577.38> 219 70<140.815 196.435> 323 69<524.654 577.803> 548 69<142.654 195.803>
VStem: 38 88<302.772 529.741> 210 88<300.23 538.02> 420 88<78.2018 304.741> 592 88<75.2415 313.028>
LayerCount: 2
Fore
SplineSet
170 617 m 0
 267 617 298 510 298 421 c 0
 298 283 235 219 169 219 c 0
 78 219 38 318 38 416 c 0
 38 521 85 617 170 617 c 0
169 548 m 0
 140 548 126 500 126 419 c 0
 125 335 138 289 169 289 c 0
 200 289 210 337 210 417 c 0
 210 494 201 548 169 548 c 0
228 -10 m 1
 160 -10 l 1
 489 619 l 1
 557 619 l 1
 228 -10 l 1
552 392 m 0
 649 392 680 285 680 196 c 0
 680 58 617 -6 552 -6 c 0
 460 -6 420 94 420 191 c 0
 420 296 467 392 552 392 c 0
551 323 m 0
 522 323 508 276 508 194 c 0
 507 110 521 64 552 64 c 0
 582 64 592 112 592 193 c 0
 592 269 583 323 551 323 c 0
EndSplineSet
Substitution2: "'lnum' Lining Figures lookup 15 subtable" percent
Substitution2: "'aalt' +BBIEQQQ1 +BDAEOwRMBEIENQRABD0EMARCBDgEMgQ9BEsENQAA +BDIEMARABDgEMAQ9BEIESwAA lookup 0 subtable" percent
EndChar

StartChar: zero.fitted
Encoding: 63033 63033 265
Width: 460
Flags: HW
HStem: -8 112<198.685 263.787> 546 112<202.604 262.477>
VStem: 40 132<150.883 495.48> 288 132<153.063 508.563>
LayerCount: 2
Fore
SplineSet
235 658 m 0
 385 658 420 483 420 328 c 0
 420 95 335 -8 230 -8 c 0
 88 -8 40 155 40 322 c 0
 40 509 100 658 235 658 c 0
233 546 m 0
 192 546 171 476 172 325 c 0
 170 173 189 104 233 104 c 0
 274 104 288 176 288 325 c 0
 288 464 275 546 233 546 c 0
EndSplineSet
Substitution2: "'zero' Slashed Zero lookup 19 subtable" zero.slashfitted
Substitution2: "'tnum' Tabular Numbers lookup 17 subtable" zero
AlternateSubs2: "'aalt' +BBIEQQQ1 +BDAEOwRMBEIENQRABD0EMARCBDgEMgQ9BEsENQAA +BDIEMARABDgEMAQ9BEIESwAA lookup 1 subtable" zero zero.slashfitted
EndChar

StartChar: one.fitted
Encoding: 63196 63196 266
Width: 346
Flags: HW
HStem: 0 21G<168 297> 630 20G<144.299 297>
VStem: 168 129<0 507>
LayerCount: 2
Fore
SplineSet
168 0 m 1
 168 507 l 1
 166 507 l 1
 76 460 l 5
 34 573 l 1
 183 650 l 1
 297 650 l 1
 297 0 l 1
 168 0 l 1
EndSplineSet
Substitution2: "'tnum' Tabular Numbers lookup 17 subtable" one
AlternateSubs2: "'aalt' +BBIEQQQ1 +BDAEOwRMBEIENQRABD0EMARCBDgEMgQ9BEsENQAA +BDIEMARABDgEMAQ9BEIESwAA lookup 1 subtable" one
EndChar

StartChar: two.fitted
Encoding: 63034 63034 267
Width: 428
Flags: HW
HStem: 0 115<193 391> 549 109<92.9307 226.897>
VStem: 254 129<368.159 522.942>
LayerCount: 2
Fore
SplineSet
391 0 m 1
 36 0 l 1
 36 88 l 1
 101 171 l 2
 185 278 254 367 254 460 c 0
 254 512 224 549 171 549 c 0
 130 549 97 531 73 516 c 1
 50 618 l 1
 80 637 135 658 194 658 c 0
 336 658 383 563 383 470 c 0
 383 348 306 250 232 163 c 2
 193 117 l 1
 193 115 l 1
 391 115 l 1
 391 0 l 1
EndSplineSet
Substitution2: "'tnum' Tabular Numbers lookup 17 subtable" two
AlternateSubs2: "'aalt' +BBIEQQQ1 +BDAEOwRMBEIENQRABD0EMARCBDgEMgQ9BEsENQAA +BDIEMARABDgEMAQ9BEIESwAA lookup 1 subtable" two
EndChar

StartChar: three.fitted
Encoding: 63035 63035 268
Width: 415
Flags: HW
HStem: -8 107<53.9363 217.588> 296 96<108 197.959> 551 107<80.2982 210.679>
VStem: 231 130<423.484 531.351> 248 131<131.69 257.533>
LayerCount: 2
Fore
SplineSet
34 21 m 1xe8
 53 124 l 1
 78 109 115 99 149 99 c 0
 213 99 248 138 248 193 c 0xe8
 248 265 192 296 126 296 c 2
 108 296 l 1
 108 392 l 1
 121 392 l 2
 169 393 231 413 231 476 c 0
 231 523 201 551 155 551 c 0
 126 551 97 540 73 525 c 1
 56 624 l 1
 83 641 136 658 189 658 c 0
 304 658 361 584 361 501 c 0xf0
 361 436 325 382 268 355 c 1
 268 353 l 1
 331 332 379 276 379 188 c 0
 379 89 303 -8 162 -8 c 0
 109 -8 63 5 34 21 c 1xe8
EndSplineSet
Substitution2: "'tnum' Tabular Numbers lookup 17 subtable" three
AlternateSubs2: "'aalt' +BBIEQQQ1 +BDAEOwRMBEIENQRABD0EMARCBDgEMgQ9BEsENQAA +BDIEMARABDgEMAQ9BEIESwAA lookup 1 subtable" three
EndChar

StartChar: four.fitted
Encoding: 63036 63036 269
Width: 476
Flags: HW
HStem: 0 21G<260 376> 155 105<148 260 376 440> 630 20G<238.531 376>
VStem: 260 116<0 155 260 498.403>
LayerCount: 2
Fore
SplineSet
376 0 m 1
 260 0 l 1
 260 155 l 1
 37 155 l 1
 37 245 l 1
 249 650 l 1
 376 650 l 1
 376 260 l 1
 440 260 l 1
 440 155 l 1
 376 155 l 1
 376 0 l 1
148 260 m 1
 260 260 l 1
 260 393 l 2
 260 428 263 466 266 500 c 1
 263 500 l 1
 248 464 235 435 217 399 c 2
 148 262 l 1
 148 260 l 1
EndSplineSet
Substitution2: "'tnum' Tabular Numbers lookup 17 subtable" four
AlternateSubs2: "'aalt' +BBIEQQQ1 +BDAEOwRMBEIENQRABD0EMARCBDgEMgQ9BEsENQAA +BDIEMARABDgEMAQ9BEIESwAA lookup 1 subtable" four
EndChar

StartChar: five.fitted
Encoding: 63037 63037 270
Width: 421
Flags: HW
HStem: -8 107<51.2699 213.476> 536 114<198 371>
VStem: 253 129<137.733 280.612>
LayerCount: 2
Fore
SplineSet
371 650 m 1
 371 536 l 1
 198 536 l 1
 183 420 l 1
 190 420 196 420 203 420 c 0
 231 419 288 406 326 371 c 0
 362 336 382 287 382 222 c 0
 382 95 298 -8 156 -8 c 0
 109 -8 60 4 34 18 c 1
 54 122 l 1
 78 110 111 99 146 99 c 0
 211 99 253 140 253 210 c 0
 253 297 187 326 112 326 c 0
 94 326 79 326 65 324 c 1
 102 650 l 1
 371 650 l 1
EndSplineSet
Substitution2: "'tnum' Tabular Numbers lookup 17 subtable" five
AlternateSubs2: "'aalt' +BBIEQQQ1 +BDAEOwRMBEIENQRABD0EMARCBDgEMgQ9BEsENQAA +BDIEMARABDgEMAQ9BEIESwAA lookup 1 subtable" five
EndChar

StartChar: six.fitted
Encoding: 63038 63038 271
Width: 459
Flags: HW
HStem: -8 95<198.791 271.233> 552 106<276.511 371>
VStem: 39 133<126.313 311.255> 293 129<108.115 306.496>
LayerCount: 2
Fore
SplineSet
371 658 m 1
 371 552 l 1
 355 551 337 549 317 545 c 0
 231 526 188 454 172 372 c 1
 175 372 l 1
 198 403 232 424 275 424 c 0
 363 424 422 345 422 222 c 0
 422 108 364 -8 237 -8 c 0
 114 -8 39 99 39 260 c 0
 39 402 86 499 146 563 c 0
 188 610 251 641 305 651 c 0
 336 657 357 657 371 658 c 1
235 87 m 0
 279 87 293 145 293 223 c 0
 292 278 274 330 232 330 c 0
 211 330 191 316 179 286 c 0
 175 279 172 259 172 229 c 0
 172 144 196 87 235 87 c 0
EndSplineSet
Substitution2: "'tnum' Tabular Numbers lookup 17 subtable" six
AlternateSubs2: "'aalt' +BBIEQQQ1 +BDAEOwRMBEIENQRABD0EMARCBDgEMgQ9BEsENQAA +BDIEMARABDgEMAQ9BEIESwAA lookup 1 subtable" six
EndChar

StartChar: seven.fitted
Encoding: 63039 63039 272
Width: 429
Flags: HW
HStem: 0 21G<60 195.234> 535 115<38 259>
LayerCount: 2
Fore
SplineSet
38 650 m 1
 392 650 l 1
 392 564 l 1
 188 0 l 1
 60 0 l 1
 259 533 l 1
 259 535 l 1
 38 535 l 1
 38 650 l 1
EndSplineSet
Substitution2: "'tnum' Tabular Numbers lookup 17 subtable" seven
AlternateSubs2: "'aalt' +BBIEQQQ1 +BDAEOwRMBEIENQRABD0EMARCBDgEMgQ9BEsENQAA +BDIEMARABDgEMAQ9BEIESwAA lookup 1 subtable" seven
EndChar

StartChar: eight.fitted
Encoding: 63040 63040 273
Width: 458
Flags: HW
HStem: -8 88<189.952 272.736> 570 88<193.548 270.514>
VStem: 37 127<104.526 259.25> 55 123<428.3 555.008> 287 120<418.253 556.877> 295 127<100.968 248.92>
LayerCount: 2
Fore
SplineSet
227 -8 m 0xc4
 116 -8 37 63 37 169 c 0xe4
 37 250 82 308 135 342 c 1
 135 344 l 1
 80 380 55 436 55 487 c 0
 55 593 139 658 239 658 c 0
 332 658 407 595 407 498 c 0xd8
 407 455 390 397 322 354 c 1
 322 352 l 1
 382 319 422 259 422 182 c 0
 422 62 334 -8 227 -8 c 0xc4
232 80 m 0
 273 80 295 122 295 177 c 0
 295 238 257 278 220 297 c 1
 187 274 164 234 164 184 c 0
 164 128 187 80 232 80 c 0
234 570 m 0
 196 570 178 531 178 491 c 0
 178 445 204 413 242 393 c 1
 270 408 287 448 287 486 c 0xd8
 287 530 272 570 234 570 c 0
EndSplineSet
Substitution2: "'tnum' Tabular Numbers lookup 17 subtable" eight
AlternateSubs2: "'aalt' +BBIEQQQ1 +BDAEOwRMBEIENQRABD0EMARCBDgEMgQ9BEsENQAA +BDIEMARABDgEMAQ9BEIESwAA lookup 1 subtable" eight
EndChar

StartChar: nine.fitted
Encoding: 63041 63041 274
Width: 454
Flags: HW
HStem: -8 109<87 191.166> 236 90<147.61 262.271> 563 95<190.085 258.75>
VStem: 37 129<350.686 537.165> 283 132<352.474 530.265>
LayerCount: 2
Fore
SplineSet
87 -8 m 1
 87 101 l 1
 112 101 125 102 147 106 c 0
 172 111 201 124 223 145 c 0
 251 172 275 218 286 276 c 1
 283 276 l 1
 262 253 232 236 190 236 c 0
 106 236 37 311 37 430 c 0
 37 542 106 658 231 658 c 0
 352 658 415 548 415 391 c 0
 415 244 368 141 308 77 c 0
 268 34 211 5 148 -5 c 0
 127 -8 107 -8 87 -8 c 1
224 563 m 0
 190 563 165 520 166 441 c 0
 167 378 187 326 227 326 c 0
 250 326 270 343 277 360 c 0
 282 373 283 386 283 429 c 0
 283 515 259 563 224 563 c 0
EndSplineSet
Substitution2: "'tnum' Tabular Numbers lookup 17 subtable" nine
AlternateSubs2: "'aalt' +BBIEQQQ1 +BDAEOwRMBEIENQRABD0EMARCBDgEMgQ9BEsENQAA +BDIEMARABDgEMAQ9BEIESwAA lookup 1 subtable" nine
EndChar

StartChar: zero.slashfitted
Encoding: 57352 57352 275
Width: 460
Flags: HW
HStem: -8 112<192.079 264.065> 546 112<197.864 264.813>
VStem: 40 124<250.268 496.172> 296 124<153.063 403.01>
LayerCount: 2
Fore
SplineSet
169 247 m 1
 278 501 l 1
 270 528 255 546 232 546 c 0
 188 546 164 476 164 325 c 0
 164 299 166 275 169 247 c 1
291 406 m 1
 182 145 l 1
 191 121 206 104 229 104 c 0
 274 104 296 176 296 325 c 0
 296 352 295 377 291 406 c 1
235 658 m 0
 385 658 420 483 420 328 c 0
 420 95 335 -8 230 -8 c 0
 88 -8 40 155 40 322 c 0
 40 509 100 658 235 658 c 0
EndSplineSet
AlternateSubs2: "'aalt' +BBIEQQQ1 +BDAEOwRMBEIENQRABD0EMARCBDgEMgQ9BEsENQAA +BDIEMARABDgEMAQ9BEIESwAA lookup 1 subtable" zero.fitted zero.oldstyle zero.taboldstyle zero.superior zero.inferior zero.numerator zero.denominator
EndChar

StartChar: zero.taboldstyle
Encoding: 63043 63043 276
Width: 457
Flags: HW
HStem: -8 100<190.129 266.651> 397 100<189.287 267.065>
VStem: 42 122<121.354 368.048> 293 122<121.354 368.048>
LayerCount: 2
Fore
SplineSet
228 -8 m 0
 137 -8 42 63 42 245 c 0
 42 426 137 497 228 497 c 0
 320 497 415 426 415 245 c 0
 415 63 320 -8 228 -8 c 0
228 92 m 0
 269 92 293 139 293 245 c 0
 293 351 268 397 228 397 c 0
 188 397 164 351 164 245 c 0
 164 139 189 92 228 92 c 0
EndSplineSet
Substitution2: "'pnum' Proportional Numbers lookup 16 subtable" zero.oldstyle
Substitution2: "'lnum' Lining Figures lookup 15 subtable" zero
AlternateSubs2: "'aalt' +BBIEQQQ1 +BDAEOwRMBEIENQRABD0EMARCBDgEMgQ9BEsENQAA +BDIEMARABDgEMAQ9BEIESwAA lookup 1 subtable" zero zero.oldstyle
EndChar

StartChar: one.taboldstyle
Encoding: 63044 63044 277
Width: 374
Flags: HW
HStem: 0 21G<195 325> 473 20G<173.579 325>
VStem: 195 130<0 379>
LayerCount: 2
Fore
SplineSet
325 0 m 1
 195 0 l 1
 195 379 l 1
 193 379 l 1
 57 319 l 1
 38 417 l 1
 222 493 l 1
 325 493 l 1
 325 0 l 1
EndSplineSet
Substitution2: "'pnum' Proportional Numbers lookup 16 subtable" one.oldstyle
Substitution2: "'lnum' Lining Figures lookup 15 subtable" one
AlternateSubs2: "'aalt' +BBIEQQQ1 +BDAEOwRMBEIENQRABD0EMARCBDgEMgQ9BEsENQAA +BDIEMARABDgEMAQ9BEIESwAA lookup 1 subtable" one one.oldstyle
EndChar

StartChar: two.taboldstyle
Encoding: 63045 63045 278
Width: 405
Flags: HW
HStem: 0 108<201.092 367> 391 106<83.2312 202.367>
VStem: 221 123<249.123 372.477>
LayerCount: 2
Fore
SplineSet
367 0 m 1
 42 0 l 1
 42 76 l 1
 87 118 l 2
 157 185 221 252 221 317 c 0
 221 366 192 391 146 391 c 0
 118 391 91 380 70 367 c 1
 40 453 l 1
 74 475 129 497 189 497 c 0
 280 497 344 438 344 341 c 0
 344 253 294 193 226 131 c 1
 200 105 l 1
 200 103 l 1
 223 105 265 108 288 108 c 2
 367 108 l 1
 367 0 l 1
EndSplineSet
Substitution2: "'pnum' Proportional Numbers lookup 16 subtable" two.oldstyle
Substitution2: "'lnum' Lining Figures lookup 15 subtable" two
AlternateSubs2: "'aalt' +BBIEQQQ1 +BDAEOwRMBEIENQRABD0EMARCBDgEMgQ9BEsENQAA +BDIEMARABDgEMAQ9BEIESwAA lookup 1 subtable" two two.oldstyle
EndChar

StartChar: three.taboldstyle
Encoding: 63046 63046 279
Width: 392
Flags: HW
HStem: -125 106<47.7098 188.702> 149 100<86 125.388> 390 107<62.4193 200.469>
VStem: 214 122<282.88 376.733> 225 130<14.5412 122.597>
LayerCount: 2
Fore
SplineSet
36 -113 m 1xe8
 49 -12 l 1
 61 -16 87 -19 111 -19 c 0
 179 -19 225 16 225 69 c 0xe8
 225 119 186 150 126 150 c 0
 113 150 96 150 86 149 c 1
 85 249 l 1
 113 251 l 2
 167 256 214 284 214 331 c 0
 214 370 187 390 146 390 c 0
 115 390 85 382 64 372 c 1
 45 468 l 1
 70 483 118 497 173 497 c 0
 270 497 336 439 336 358 c 0xf0
 336 284 287 232 231 219 c 1
 231 216 l 1
 303 202 355 147 355 68 c 0
 355 -54 245 -125 129 -125 c 0
 87 -125 55 -119 36 -113 c 1xe8
EndSplineSet
Substitution2: "'pnum' Proportional Numbers lookup 16 subtable" three.oldstyle
Substitution2: "'lnum' Lining Figures lookup 15 subtable" three
AlternateSubs2: "'aalt' +BBIEQQQ1 +BDAEOwRMBEIENQRABD0EMARCBDgEMgQ9BEsENQAA +BDIEMARABDgEMAQ9BEIESwAA lookup 1 subtable" three three.oldstyle
EndChar

StartChar: four.taboldstyle
Encoding: 63047 63047 280
Width: 467
Flags: HW
HStem: -118 21G<253 365> 39 102<149 253 365 430> 471 20G<228.011 365>
VStem: 253 112<-118 39 141 361.455>
LayerCount: 2
Fore
SplineSet
430 39 m 1
 365 39 l 1
 365 -118 l 1
 253 -118 l 1
 253 39 l 1
 39 39 l 1
 39 127 l 1
 239 491 l 1
 365 491 l 1
 365 141 l 1
 430 141 l 1
 430 39 l 1
253 141 m 1
 253 269 l 2
 253 300 253 330 257 363 c 1
 254 363 l 1
 245 334 226 290 211 261 c 2
 149 144 l 1
 149 141 l 1
 253 141 l 1
EndSplineSet
Substitution2: "'pnum' Proportional Numbers lookup 16 subtable" four.oldstyle
Substitution2: "'lnum' Lining Figures lookup 15 subtable" four
AlternateSubs2: "'aalt' +BBIEQQQ1 +BDAEOwRMBEIENQRABD0EMARCBDgEMgQ9BEsENQAA +BDIEMARABDgEMAQ9BEIESwAA lookup 1 subtable" four four.oldstyle
EndChar

StartChar: five.taboldstyle
Encoding: 63048 63048 281
Width: 391
Flags: HW
HStem: -124 106<46.9312 179.245> 378 111<187 334>
VStem: 220 131<19.6747 140.274>
LayerCount: 2
Fore
SplineSet
36 -112 m 1
 48 -12 l 1
 62 -15 80 -18 110 -18 c 0
 163 -18 220 13 220 77 c 0
 220 104 212 129 194 145 c 0
 167 171 111 182 52 181 c 1
 101 489 l 1
 349 489 l 1
 334 378 l 1
 187 378 l 1
 168 268 l 1
 222 262 272 242 306 209 c 0
 335 180 351 140 351 88 c 0
 351 -41 249 -124 119 -124 c 0
 88 -124 53 -119 36 -112 c 1
EndSplineSet
Substitution2: "'pnum' Proportional Numbers lookup 16 subtable" five.oldstyle
Substitution2: "'lnum' Lining Figures lookup 15 subtable" five
AlternateSubs2: "'aalt' +BBIEQQQ1 +BDAEOwRMBEIENQRABD0EMARCBDgEMgQ9BEsENQAA +BDIEMARABDgEMAQ9BEIESwAA lookup 1 subtable" five five.oldstyle
EndChar

StartChar: six.taboldstyle
Encoding: 63049 63049 282
Width: 447
Flags: HW
HStem: -8 94<190.587 260.802> 308 92<201.416 303.5> 516 98<292.666 368.786>
VStem: 38 130<108.849 333.331> 280 130<103.286 287.83>
LayerCount: 2
Fore
SplineSet
368 614 m 1
 379 516 l 1
 252 504 195 434 179 358 c 1
 181 358 l 1
 198 382 233 400 267 400 c 0
 340 400 410 335 410 209 c 0
 410 75 323 -8 224 -8 c 0
 126 -8 38 63 38 240 c 0
 38 438 155 602 368 614 c 1
226 86 m 0
 253 86 280 113 280 196 c 0
 280 271 255 308 221 308 c 0
 206 308 194 299 184 287 c 0
 174 274 168 247 168 210 c 0
 168 113 196 86 226 86 c 0
EndSplineSet
Substitution2: "'pnum' Proportional Numbers lookup 16 subtable" six.oldstyle
Substitution2: "'lnum' Lining Figures lookup 15 subtable" six
AlternateSubs2: "'aalt' +BBIEQQQ1 +BDAEOwRMBEIENQRABD0EMARCBDgEMgQ9BEsENQAA +BDIEMARABDgEMAQ9BEIESwAA lookup 1 subtable" six six.oldstyle
EndChar

StartChar: seven.taboldstyle
Encoding: 63050 63050 283
Width: 413
Flags: HW
HStem: -118 21G<37 196> 377 112<48 243>
LayerCount: 2
Fore
SplineSet
374 489 m 1
 374 415 l 1
 361 350 234 28 158 -118 c 1
 37 -102 l 1
 110 30 215 269 243 375 c 1
 243 377 l 1
 48 377 l 1
 48 489 l 1
 374 489 l 1
EndSplineSet
Substitution2: "'pnum' Proportional Numbers lookup 16 subtable" seven.oldstyle
Substitution2: "'lnum' Lining Figures lookup 15 subtable" seven
AlternateSubs2: "'aalt' +BBIEQQQ1 +BDAEOwRMBEIENQRABD0EMARCBDgEMgQ9BEsENQAA +BDIEMARABDgEMAQ9BEIESwAA lookup 1 subtable" seven seven.oldstyle
EndChar

StartChar: eight.taboldstyle
Encoding: 63051 63051 284
Width: 450
Flags: HW
HStem: -8 87<183.421 270.497> 535 82<190.087 266.451>
VStem: 37 124<102.705 238.882> 54 120<399.853 518.971> 282 117<388.67 522.341> 290 124<97.8767 223.991>
LayerCount: 2
Fore
SplineSet
318 327 m 1xd8
 318 323 l 1
 372 291 414 243 414 172 c 0
 414 55 323 -8 223 -8 c 0
 114 -8 37 60 37 161 c 0xe4
 37 229 78 280 131 315 c 1
 131 318 l 1
 80 354 54 401 54 451 c 0
 54 556 136 617 235 617 c 0
 320 617 399 565 399 462 c 0
 399 404 371 360 318 327 c 1xd8
231 535 m 0
 194 536 174 498 174 459 c 0
 174 421 196 388 239 364 c 1
 263 386 282 414 282 459 c 0xd8
 282 511 256 534 231 535 c 0
227 79 m 0
 266 79 290 114 290 159 c 0
 290 212 256 247 214 271 c 1
 183 250 161 214 161 166 c 0xe4
 161 122 186 79 227 79 c 0
EndSplineSet
Substitution2: "'pnum' Proportional Numbers lookup 16 subtable" eight.oldstyle
Substitution2: "'lnum' Lining Figures lookup 15 subtable" eight
AlternateSubs2: "'aalt' +BBIEQQQ1 +BDAEOwRMBEIENQRABD0EMARCBDgEMgQ9BEsENQAA +BDIEMARABDgEMAQ9BEIESwAA lookup 1 subtable" eight eight.oldstyle
EndChar

StartChar: nine.taboldstyle
Encoding: 63052 63052 285
Width: 452
Flags: HW
HStem: -121 96<70 146.668> 93 86<148.5 252.749> 402 95<189.355 259.565>
VStem: 41 128<201.409 383.887> 282 129<198.418 378.571>
LayerCount: 2
Fore
SplineSet
70 -121 m 1
 59 -25 l 1
 191 -12 252 49 271 131 c 1
 269 132 l 1
 253 109 224 93 182 93 c 0
 115 93 41 158 41 285 c 0
 41 416 127 497 228 497 c 0
 325 497 411 416 411 256 c 0
 411 37 286 -114 70 -121 c 1
231 179 m 0
 245 179 257 188 266 200 c 0
 275 212 282 239 282 277 c 0
 282 365 256 402 224 402 c 0
 198 402 169 377 169 293 c 0
 169 214 197 179 231 179 c 0
EndSplineSet
Substitution2: "'pnum' Proportional Numbers lookup 16 subtable" nine.oldstyle
Substitution2: "'lnum' Lining Figures lookup 15 subtable" nine
AlternateSubs2: "'aalt' +BBIEQQQ1 +BDAEOwRMBEIENQRABD0EMARCBDgEMgQ9BEsENQAA +BDIEMARABDgEMAQ9BEIESwAA lookup 1 subtable" nine nine.oldstyle
EndChar

StartChar: dollar.taboldstyle
Encoding: 63059 63059 286
Width: 394
Flags: HW
HStem: 4 94<65.9089 146> 394 95<244 313.964>
VStem: 40 122<321.438 384.187> 146 84<-70 4> 160 84<489 565> 236 122<108.241 180.18>
LayerCount: 2
Fore
SplineSet
230 -70 m 1xd4
 146 -70 l 1
 146 4 l 1xd4
 103 6 64 17 38 30 c 1
 58 123 l 1
 86 109 133 98 164 98 c 0
 209 98 236 114 236 142 c 0
 236 167 218 184 155 213 c 0
 73 252 40 290 40 352 c 0xe4
 40 410 84 461 160 481 c 1
 160 565 l 1
 244 565 l 1
 244 489 l 1xc8
 287 488 315 478 340 467 c 1
 315 375 l 1
 293 386 264 394 231 394 c 0
 186 394 162 377 162 355 c 0xe0
 162 333 175 320 247 290 c 0
 321 258 358 211 358 150 c 0
 358 77 306 26 230 10 c 1
 230 -70 l 1xd4
EndSplineSet
Substitution2: "'lnum' Lining Figures lookup 15 subtable" dollar
AlternateSubs2: "'aalt' +BBIEQQQ1 +BDAEOwRMBEIENQRABD0EMARCBDgEMgQ9BEsENQAA +BDIEMARABDgEMAQ9BEIESwAA lookup 1 subtable" dollar
EndChar

StartChar: cent.taboldstyle
Encoding: 63060 63060 287
Width: 369
Flags: HW
HStem: 53 89<262 320.015> 376 156<190.61 260.814>
VStem: 40 118<178.194 339.856> 186 76<-14 53 465.43 532>
LayerCount: 2
Fore
SplineSet
321 155 m 1
 331 66 l 1
 317 60 292 54 262 53 c 1
 262 -14 l 1
 186 -14 l 1
 186 56 l 1
 88 76 40 158 40 257 c 0
 40 364 100 440 186 462 c 1
 186 532 l 1
 262 532 l 1
 262 468 l 1
 288 466 311 460 326 453 c 1
 311 363 l 1
 295 370 273 376 244 376 c 0
 192 376 158 331 158 257 c 0
 158 184 196 142 249 142 c 0
 278 142 300 147 321 155 c 1
EndSplineSet
Substitution2: "'lnum' Lining Figures lookup 15 subtable" cent
AlternateSubs2: "'aalt' +BBIEQQQ1 +BDAEOwRMBEIENQRABD0EMARCBDgEMgQ9BEsENQAA +BDIEMARABDgEMAQ9BEIESwAA lookup 1 subtable" cent
EndChar

StartChar: Euro.taboldstyle
Encoding: 63054 63054 288
Width: 443
Flags: HW
HStem: -8 108<236.396 393.563> 168 62<49 82 213 361> 277 72<39 82 213 351> 430 108<240.451 386.418>
VStem: 81 131<230 277>
LayerCount: 2
Fore
SplineSet
392 114 m 1
 405 11 l 1
 386 2 322 -8 283 -8 c 0
 164.7265625 -8 121 9 88 168 c 5
 49 168 l 5
 49 230 l 5
 82 230 l 5
 81 240 81 246 81 250 c 4
 81 257 81 266 82 277 c 5
 39 277 l 5
 39 349 l 5
 90 349 l 5
 123 513 167.34765625 538 288 538 c 0
 323 538 383 531 403 523 c 1
 384 421 l 1
 371 425 320 430 297 430 c 0
 244.615234375 430 220.512695312 397.83203125 213 349 c 5
 351 349 l 5
 351 277 l 5
 213 277 l 5
 212 267 212 258 212 251 c 4
 212 246 212 240 213 230 c 5
 361 230 l 5
 361 168 l 5
 213 168 l 5
 225.348632812 120.6640625 247.376953125 100 301 100 c 0
 323 100 376 106 392 114 c 1
EndSplineSet
Substitution2: "'lnum' Lining Figures lookup 15 subtable" Euro
Substitution2: "'aalt' +BBIEQQQ1 +BDAEOwRMBEIENQRABD0EMARCBDgEMgQ9BEsENQAA +BDIEMARABDgEMAQ9BEIESwAA lookup 0 subtable" Euro
EndChar

StartChar: florin.taboldstyle
Encoding: 63055 63055 289
Width: 462
Flags: HW
HStem: -126 102<44.588 123.384> 250 101<99 164 295 386> 514 103<329.619 414.969>
LayerCount: 2
Fore
SplineSet
99 250 m 1
 99 351 l 1
 171 351 l 1
 176 408 l 2
 185 526 248 617 368 617 c 0
 393 617 415 612 430 605 c 1
 413 508 l 1
 401 512 389 514 375 514 c 0
 328 514 307 470 301 409 c 2
 295 351 l 1
 386 351 l 1
 386 250 l 1
 288 250 l 1
 271 71 l 2
 261 -35 224 -126 100 -126 c 0
 73 -126 45 -120 28 -111 c 1
 47 -16 l 1
 59 -21 74 -24 85 -24 c 0
 113 -24 139 -5 147 75 c 2
 164 250 l 1
 99 250 l 1
EndSplineSet
Substitution2: "'lnum' Lining Figures lookup 15 subtable" florin
Substitution2: "'aalt' +BBIEQQQ1 +BDAEOwRMBEIENQRABD0EMARCBDgEMgQ9BEsENQAA +BDIEMARABDgEMAQ9BEIESwAA lookup 0 subtable" florin
EndChar

StartChar: sterling.taboldstyle
Encoding: 63057 63057 290
Width: 421
Flags: HW
HStem: 0 108<192 385> 0 79<38 74.6308> 224 75<44 101 238 337> 441 110<237.646 345.759>
VStem: 94 125<299.939 422.468> 120 120<136.717 223.531>
LayerCount: 2
Fore
SplineSet
385 0 m 1xb4
 38 0 l 1
 38 79 l 1
 90 101 120 141 120 186 c 0x74
 120 198 119 212 117 224 c 1
 44 224 l 1
 44 299 l 1
 101 299 l 1
 97 319 94 340 94 361 c 0
 94 465 163 551 280 551 c 0
 321 551 346 542 362 534 c 1
 343 428 l 1
 329 435 312 441 287 441 c 0
 244 441 219 411 219 360 c 0x78
 219 341 222 319 226 299 c 1
 337 299 l 1
 337 224 l 1
 238 224 l 1
 239 216 240 210 240 204 c 0
 240 159 216 128 192 110 c 1
 192 108 l 1
 385 108 l 1
 385 0 l 1xb4
EndSplineSet
Substitution2: "'lnum' Lining Figures lookup 15 subtable" sterling
Substitution2: "'aalt' +BBIEQQQ1 +BDAEOwRMBEIENQRABD0EMARCBDgEMgQ9BEsENQAA +BDIEMARABDgEMAQ9BEIESwAA lookup 0 subtable" sterling
EndChar

StartChar: yen.taboldstyle
Encoding: 63058 63058 291
Width: 477
Flags: HW
HStem: 0 21G<178 298> 108 67<59 178 298 417> 221 66<59 150 326 417>
VStem: 178 120<0 108 175 221>
LayerCount: 2
Fore
SplineSet
298 0 m 1
 178 0 l 1
 178 108 l 1
 59 108 l 1
 59 175 l 1
 178 175 l 1
 178 221 l 1
 59 221 l 1
 59 287 l 1
 150 287 l 1
 36 530 l 1
 167 530 l 1
 214 396 l 2
 227 360 236 328 242 301 c 1
 244 301 l 1
 251 329 259 361 272 398 c 2
 318 530 l 1
 441 530 l 1
 326 287 l 1
 417 287 l 1
 417 221 l 1
 298 221 l 1
 298 175 l 1
 417 175 l 1
 417 108 l 1
 298 108 l 1
 298 0 l 1
EndSplineSet
Substitution2: "'lnum' Lining Figures lookup 15 subtable" yen
Substitution2: "'aalt' +BBIEQQQ1 +BDAEOwRMBEIENQRABD0EMARCBDgEMgQ9BEsENQAA +BDIEMARABDgEMAQ9BEIESwAA lookup 0 subtable" yen
EndChar

StartChar: numbersign.taboldstyle
Encoding: 63056 63056 292
Width: 468
Flags: HW
HStem: 147 75<36 108 192 254 338 412> 337 75<58 132 216 278 361 432>
LayerCount: 2
Fore
SplineSet
192 222 m 1
 263 222 l 1
 278 337 l 1
 206 337 l 1
 192 222 l 1
160 -32 m 1
 85 -32 l 1
 108 147 l 1
 36 147 l 1
 36 222 l 1
 118 222 l 1
 132 337 l 1
 58 337 l 1
 58 412 l 1
 142 412 l 1
 164 586 l 1
 238 586 l 1
 216 412 l 1
 288 412 l 1
 310 586 l 1
 384 586 l 1
 361 412 l 1
 432 412 l 1
 432 337 l 1
 352 337 l 1
 338 222 l 1
 412 222 l 1
 412 147 l 1
 328 147 l 1
 306 -32 l 1
 231 -32 l 1
 254 147 l 1
 182 147 l 1
 160 -32 l 1
EndSplineSet
Substitution2: "'lnum' Lining Figures lookup 15 subtable" numbersign
Substitution2: "'aalt' +BBIEQQQ1 +BDAEOwRMBEIENQRABD0EMARCBDgEMgQ9BEsENQAA +BDIEMARABDgEMAQ9BEIESwAA lookup 0 subtable" numbersign
EndChar

StartChar: zero.superior
Encoding: 8304 8304 293
Width: 342
Flags: HW
HStem: 412 77<148.9 196.43> 735 77<148.92 196.96>
VStem: 42 93<496.202 725.925> 208 93<494.592 729.452>
LayerCount: 2
Fore
SplineSet
172 412 m 0
 74 412 42 513 42 610 c 0
 42 718 81 812 174 812 c 0
 277 812 301 704 301 614 c 0
 301 480 248 412 172 412 c 0
173 489 m 0
 196 489 208 522 208 612 c 0
 208 696 198 735 174 735 c 0
 151 735 135 701 135 612 c 0
 135 522 149 489 173 489 c 0
EndSplineSet
EndChar

StartChar: one.superior
Encoding: 65539 -1 294
Width: 264
Flags: HW
HStem: 413 21G<116 210.514>
VStem: 116 94<417 624.9> 126 94<529.7 714>
LayerCount: 2
Fore
SplineSet
210 413 m 1xc0
 116 417 l 1xc0
 126 714 l 1
 124 714 l 1
 74 691 l 1
 36 760 l 1
 136 807 l 1
 220 802 l 5xa0
 210 413 l 1xc0
EndSplineSet
EndChar

StartChar: two.superior
Encoding: 65540 -1 295
Width: 326
Flags: HW
HStem: 417 80<158 274> 723 89<61.3305 224.015>
VStem: 179 101<621.208 721.705>
LayerCount: 2
Fore
SplineSet
51 417 m 1
 41 480 l 1
 86 530 l 2
 139.552734375 589.502929688 179 625 179 670 c 0
 179 715 178 723 149 723 c 0
 125 723 85 717 65 710 c 1
 46 789 l 1
 71 800 126 812 174 812 c 0
 270 812 280 781 280 699 c 0
 280 626 224 571 175 519 c 2
 158 500 l 1
 158 497 l 1
 284 497 l 1
 274 417 l 5
 51 417 l 1
EndSplineSet
EndChar

StartChar: three.superior
Encoding: 65541 -1 296
Width: 308
Flags: HW
HStem: 412 61<51.176 164.67> 421 59<52.339 119.734> 583 62<83 154.631> 731 81<56.1416 204.807>
VStem: 164 92<657.273 728.931> 169 98<476.464 573.539>
LayerCount: 2
Fore
SplineSet
59 713 m 5xb8
 45 789 l 5
 69 798 122 812 159 812 c 0
 247 812 256 796 256 717 c 0xb8
 256 673 231 633 191 616 c 1
 191 614 l 1
 233 606 267 579 267 533 c 0
 267 423 250 412 135 412 c 0xb4
 98 412 58 416 40 421 c 5
 54 480 l 5x74
 67 476 94 473 121 473 c 0
 154 473 169 474 169 536 c 0xb4
 169 573 137 583 95 583 c 2
 83 583 l 1
 83 645 l 1
 91 645 l 2
 123 645 164 657 164 690 c 0
 164 726 155 731 128 731 c 0
 105 731 76 721 59 713 c 5xb8
EndSplineSet
EndChar

StartChar: four.superior
Encoding: 8308 8308 297
Width: 352
Flags: HW
HStem: 417 21G<187 272> 506 69<117 187 272 314>
VStem: 187 85<417 506 575 711.199>
LayerCount: 2
Fore
SplineSet
272 417 m 1
 187 417 l 1
 187 506 l 1
 39 506 l 1
 39 566 l 1
 180 808 l 1
 272 808 l 1
 272 575 l 1
 314 575 l 1
 314 506 l 1
 272 506 l 1
 272 417 l 1
187 575 m 1
 187 646 l 2
 187 672 189 695 190 712 c 1
 188 712 l 1
 179 693 174 678 163 660 c 2
 117 577 l 1
 117 575 l 1
 187 575 l 1
EndSplineSet
EndChar

StartChar: five.superior
Encoding: 8309 8309 298
Width: 315
Flags: HW
HStem: 412 75<49.9482 170.825> 606 64<141 165.405> 728 79<147 264>
VStem: 182 93<499.461 589.041>
LayerCount: 2
Fore
SplineSet
264 807 m 1
 264 728 l 1
 147 728 l 1
 141 670 l 2
 143 670 153 670 155 670 c 0
 178 670 214 662 238 641 c 0
 262 620 275 590 275 550 c 0
 275 476 221 412 125 412 c 0
 90 412 56 420 39 429 c 1
 53 501 l 1
 69 494 93 487 118 487 c 0
 156 487 182 506 182 543 c 0
 182 589 144 606 91 606 c 0
 78 606 68 605 57 604 c 1
 79 807 l 1
 264 807 l 1
EndSplineSet
EndChar

StartChar: six.superior
Encoding: 8310 8310 299
Width: 341
Flags: HW
HStem: 412 68<145.294 199.14> 611 64<144.259 230.5> 738 74<179.815 265>
VStem: 42 93<487.014 637.96> 208 93<484.524 606.501>
LayerCount: 2
Fore
SplineSet
265 812 m 1
 265 738 l 1
 254 738 243 737 230 735 c 0
 173 727 147 691 136 647 c 1
 138 647 l 1
 154 664 175 675 202 675 c 0
 259 675 301 628 301 552 c 0
 301 482 258 412 176 412 c 0
 91 412 42 479 42 576 c 0
 42 660 71 719 110 756 c 0
 141 786 183 804 223 809 c 0
 243 811 256 812 265 812 c 1
174 480 m 0
 200 480 208 515 208 553 c 0
 208 580 198 611 171 611 c 0
 158 611 145 602 139 587 c 0
 137 582 135 571 135 553 c 0
 135 514 148 480 174 480 c 0
EndSplineSet
EndChar

StartChar: seven.superior
Encoding: 8311 8311 300
Width: 312
Flags: HW
HStem: 417 21G<51 152> 727 80<38 181>
VStem: 38 238<747 807>
LayerCount: 2
Fore
SplineSet
38 807 m 1
 276 807 l 1
 276 747 l 1
 144 417 l 1
 51 417 l 1
 181 725 l 1
 181 727 l 1
 38 727 l 1
 38 807 l 1
EndSplineSet
EndChar

StartChar: eight.superior
Encoding: 8312 8312 301
Width: 340
Flags: HW
HStem: 412 62<139.834 203.732> 752 60<143.972 200.858>
VStem: 42 89<480.95 579.381> 52 87<666.52 748.652> 206 84<658.937 749.587> 211 90<478.555 573.453>
LayerCount: 2
Fore
SplineSet
176 812 m 0xd0
 243 812 290 772 290 714 c 0xd8
 290 687 279 653 239 629 c 1
 239 628 l 1
 274 611 301 576 301 529 c 0
 301 454 243 412 169 412 c 0
 91 412 42 457 42 521 c 0xe4
 42 567 67 600 101 620 c 1
 101 621 l 1
 67 642 52 675 52 706 c 0
 52 772 107 812 176 812 c 0xd0
173 474 m 0
 198 474 211 497 211 525 c 0
 211 558 187 581 165 589 c 1
 147 579 131 557 131 529 c 0xe4
 131 498 147 474 173 474 c 0
174 752 m 0
 149 752 139 729 139 708 c 0
 139 684 155 666 179 656 c 1
 195 662 206 685 206 705 c 0xd8
 206 727 197 752 174 752 c 0
EndSplineSet
EndChar

StartChar: nine.superior
Encoding: 8313 8313 302
Width: 335
Flags: HW
HStem: 412 75<72 160.711> 555 62<138.994 197.493> 744 68<139.422 191.977>
VStem: 39 92<621.1 739.31> 201 94<583.619 739.133>
LayerCount: 2
Fore
SplineSet
72 412 m 1
 72 487 l 1
 87 487 96 487 111 489 c 0
 129 492 148 499 163 510 c 0
 181 524 195 549 202 577 c 1
 200 577 l 1
 187 564 168 555 142 555 c 0
 87 555 39 600 39 673 c 0
 39 742 87 812 169 812 c 0
 252 812 295 743 295 648 c 0
 295 560 265 499 227 461 c 0
 198 434 158 417 111 413 c 0
 97 411 84 412 72 412 c 1
166 744 m 0
 145 744 131 718 131 679 c 0
 131 648 142 617 167 617 c 0
 182 617 194 626 197 634 c 0
 200 642 201 650 201 675 c 0
 201 714 189 744 166 744 c 0
EndSplineSet
EndChar

StartChar: period.superior
Encoding: 63208 63208 303
Width: 198
Flags: HW
HStem: 412 118<57.8672 142.154>
VStem: 46 107<422.717 518.162>
LayerCount: 2
Fore
SplineSet
99 412 m 0
 69 412 46 435 46 471 c 0
 46 506 71 530 100 530 c 0
 129 530 153 508 153 471 c 0
 153 435 131 412 99 412 c 0
EndSplineSet
EndChar

StartChar: comma.superior
Encoding: 63202 63202 304
Width: 220
Flags: HW
HStem: 343 176
VStem: 86 93<461.809 513>
LayerCount: 2
Fore
SplineSet
103 349 m 1
 43 343 l 1
 62 399 78 461 86 513 c 1
 179 519 l 1
 159 461 134 399 103 349 c 1
EndSplineSet
EndChar

StartChar: dollar.superior
Encoding: 63204 63204 305
Width: 292
Flags: HW
HStem: 365 133<109.828 163.431> 701 81<178.361 239.296>
VStem: 38 89<654.838 713.906> 109 59<365 426> 118 59<799 872> 165 89<501.21 565.87>
LayerCount: 2
Fore
SplineSet
168 365 m 1xd0
 109 365 l 1
 109 426 l 1xd0
 80 428 63 434 46 442 c 1
 61 512 l 1
 80 503 94 498 122 498 c 0
 150 498 165 510 165 530 c 0
 165 582.381835938 38 607.266601562 38 680 c 0xe4
 38 778 52 799 118 799 c 5
 118 872 l 1
 177 872 l 1
 177 798 l 1xc8
 206 796 237 790 253 782 c 1
 238 701 l 1
 225 708 192 717 169 717 c 0
 137 717 127 703 127 687 c 0
 127 644.14453125 254 603.641601562 254 537 c 0xe4
 254 452 242 426 168 426 c 1
 168 365 l 1xd0
EndSplineSet
EndChar

StartChar: hyphen.superior
Encoding: 63206 63206 307
Width: 223
Flags: HW
HStem: 574 65<50 174>
VStem: 50 124<574 639>
LayerCount: 2
Fore
SplineSet
50 639 m 1
 174 639 l 1
 174 574 l 1
 50 574 l 1
 50 639 l 1
EndSplineSet
EndChar

StartChar: parenleft.superior
Encoding: 8317 8317 308
Width: 213
Flags: HW
VStem: 41 73<458.545 748.635>
LayerCount: 2
Fore
SplineSet
111 847 m 1
 177 847 l 1
 142 792 114 715 114 602 c 0
 114 494 142 417 177 360 c 1
 111 360 l 1
 77 406 41 487 41 602 c 0
 41 719 77 801 111 847 c 1
EndSplineSet
EndChar

StartChar: parenright.superior
Encoding: 8318 8318 309
Width: 211
Flags: HW
VStem: 99 73<459.602 749.329>
LayerCount: 2
Fore
SplineSet
102 360 m 1
 36 360 l 1
 71 416 99 495 99 605 c 0
 99 714 71 791 36 847 c 1
 102 847 l 1
 136 802 172 722 172 604 c 0
 172 490 136 407 102 360 c 1
EndSplineSet
EndChar

StartChar: zero.inferior
Encoding: 8320 8320 310
Width: 348
Flags: HW
HStem: -152 77<151.9 199.43> 171 77<151.92 199.96>
VStem: 45 93<-67.7984 161.925> 211 93<-69.4078 165.452>
LayerCount: 2
Fore
SplineSet
175 -152 m 0
 77 -152 45 -51 45 46 c 0
 45 154 84 248 177 248 c 0
 280 248 304 140 304 50 c 0
 304 -84 251 -152 175 -152 c 0
176 -75 m 0
 199 -75 211 -42 211 48 c 0
 211 132 201 171 177 171 c 0
 154 171 138 137 138 48 c 0
 138 -42 152 -75 176 -75 c 0
EndSplineSet
EndChar

StartChar: one.inferior
Encoding: 8321 8321 311
Width: 276
Flags: HW
HStem: -147 21G<132 226> 223 20G<99.4468 226>
VStem: 132 94<-147 160>
LayerCount: 2
Fore
SplineSet
226 -147 m 1
 132 -147 l 1
 132 160 l 1
 130 160 l 1
 60 127 l 1
 42 196 l 1
 142 243 l 1
 226 243 l 1
 226 -147 l 1
EndSplineSet
EndChar

StartChar: two.inferior
Encoding: 8322 8322 312
Width: 329
Flags: HW
HStem: -147 80<159 285> 169 79<65.1968 172.66>
VStem: 180 101<57.2471 161.175>
LayerCount: 2
Fore
SplineSet
42 -147 m 1
 42 -94 l 1
 88 -37 l 2
 140 26 180 71 180 116 c 0
 180 154 159 169 130 169 c 0
 106 169 82 158 66 146 c 1
 47 215 l 1
 67 233 107 248 155 248 c 0
 251 248 281 188 281 135 c 0
 281 62 225 7 176 -45 c 2
 159 -64 l 1
 159 -67 l 1
 285 -67 l 1
 285 -147 l 1
 42 -147 l 1
EndSplineSet
EndChar

StartChar: three.inferior
Encoding: 8323 8323 313
Width: 320
Flags: HW
HStem: -152 71<50.696 167.456> 29 62<93 164.631> 177 71<65.7052 168.749>
VStem: 174 92<102.857 171.067> 179 98<-69.1948 14.2767>
LayerCount: 2
Fore
SplineSet
69 159 m 1xf0
 55 225 l 1
 77 237 112 248 149 248 c 0
 233 248 266 199 266 153 c 0xf0
 266 109 241 79 201 62 c 1
 201 60 l 1
 243 52 277 15 277 -31 c 0
 277 -101 219 -152 125 -152 c 0
 88 -152 59 -144 40 -133 c 1
 54 -64 l 1
 71 -73 94 -81 121 -81 c 0
 154 -81 179 -59 179 -28 c 0xe8
 179 9 147 29 105 29 c 2
 93 29 l 1
 93 91 l 1
 101 91 l 2
 133 91 174 103 174 136 c 0
 174 162 155 177 128 177 c 0
 105 177 88 170 69 159 c 1xf0
EndSplineSet
EndChar

StartChar: four.inferior
Encoding: 8324 8324 314
Width: 358
Flags: HW
HStem: -147 21G<190 275> -58 69<120 190 275 317> 224 20G<171.347 275>
VStem: 190 85<-147 -58 11 147.199>
LayerCount: 2
Fore
SplineSet
275 -147 m 1
 190 -147 l 1
 190 -58 l 1
 42 -58 l 1
 42 2 l 1
 183 244 l 1
 275 244 l 1
 275 11 l 1
 317 11 l 1
 317 -58 l 1
 275 -58 l 1
 275 -147 l 1
190 11 m 1
 190 82 l 2
 190 108 192 131 193 148 c 1
 191 148 l 1
 182 129 177 114 166 96 c 2
 120 13 l 1
 120 11 l 1
 190 11 l 1
EndSplineSet
EndChar

StartChar: five.inferior
Encoding: 8325 8325 315
Width: 320
Flags: HW
HStem: -152 75<50.9482 171.825> 42 64<142 166.405> 164 79<148 265>
VStem: 183 93<-64.5389 25.0408>
LayerCount: 2
Fore
SplineSet
265 243 m 1
 265 164 l 1
 148 164 l 1
 142 106 l 2
 144 106 154 106 156 106 c 0
 179 106 215 98 239 77 c 0
 263 56 276 26 276 -14 c 0
 276 -88 222 -152 126 -152 c 0
 91 -152 57 -144 40 -135 c 1
 54 -63 l 1
 70 -70 94 -77 119 -77 c 0
 157 -77 183 -58 183 -21 c 0
 183 25 145 42 92 42 c 0
 79 42 69 41 58 40 c 1
 80 243 l 1
 265 243 l 1
EndSplineSet
EndChar

StartChar: six.inferior
Encoding: 8326 8326 316
Width: 345
Flags: HW
HStem: -152 68<147.294 201.14> 47 64<146.259 232.5> 174 74<181.815 267>
VStem: 44 93<-76.9859 73.9595> 210 93<-79.4764 42.5014>
LayerCount: 2
Fore
SplineSet
267 248 m 1
 267 174 l 1
 256 174 245 173 232 171 c 0
 175 163 149 127 138 83 c 1
 140 83 l 1
 156 100 177 111 204 111 c 0
 261 111 303 64 303 -12 c 0
 303 -82 260 -152 178 -152 c 0
 93 -152 44 -85 44 12 c 0
 44 96 73 155 112 192 c 0
 143 222 185 240 225 245 c 0
 245 247 258 248 267 248 c 1
176 -84 m 0
 202 -84 210 -49 210 -11 c 0
 210 16 200 47 173 47 c 0
 160 47 147 38 141 23 c 0
 139 18 137 7 137 -11 c 0
 137 -50 150 -84 176 -84 c 0
EndSplineSet
EndChar

StartChar: seven.inferior
Encoding: 8327 8327 317
Width: 326
Flags: HW
HStem: -147 21G<57 158> 163 80<44 187>
VStem: 44 238<183 243>
LayerCount: 2
Fore
SplineSet
44 243 m 1
 282 243 l 1
 282 183 l 1
 150 -147 l 1
 57 -147 l 1
 187 161 l 1
 187 163 l 1
 44 163 l 1
 44 243 l 1
EndSplineSet
EndChar

StartChar: eight.inferior
Encoding: 8328 8328 318
Width: 344
Flags: HW
HStem: -152 62<140.834 204.732> 188 60<144.972 201.858>
VStem: 43 89<-83.0497 15.381> 53 87<102.52 184.652> 207 84<94.9375 185.587> 212 90<-85.4453 9.45334>
LayerCount: 2
Fore
SplineSet
177 248 m 0xd0
 244 248 291 208 291 150 c 0xd8
 291 123 280 89 240 65 c 1
 240 64 l 1
 275 47 302 12 302 -35 c 0
 302 -110 244 -152 170 -152 c 0
 92 -152 43 -107 43 -43 c 0xe4
 43 3 68 36 102 56 c 1
 102 57 l 1
 68 78 53 111 53 142 c 0
 53 208 108 248 177 248 c 0xd0
174 -90 m 0
 199 -90 212 -67 212 -39 c 0
 212 -6 188 17 166 25 c 1
 148 15 132 -7 132 -35 c 0xe4
 132 -66 148 -90 174 -90 c 0
175 188 m 0
 150 188 140 165 140 144 c 0
 140 120 156 102 180 92 c 1
 196 98 207 121 207 141 c 0xd8
 207 163 198 188 175 188 c 0
EndSplineSet
EndChar

StartChar: nine.inferior
Encoding: 8329 8329 319
Width: 344
Flags: HW
HStem: -152 75<77 165.711> -9 62<143.994 202.493> 180 68<144.422 196.977>
VStem: 44 92<57.0996 175.31> 206 94<19.6186 175.133>
LayerCount: 2
Fore
SplineSet
77 -152 m 1
 77 -77 l 1
 92 -77 101 -77 116 -75 c 0
 134 -72 153 -65 168 -54 c 0
 186 -40 200 -15 207 13 c 1
 205 13 l 1
 192 0 173 -9 147 -9 c 0
 92 -9 44 36 44 109 c 0
 44 178 92 248 174 248 c 0
 257 248 300 179 300 84 c 0
 300 -4 270 -65 232 -103 c 0
 203 -130 163 -147 116 -151 c 0
 102 -153 89 -152 77 -152 c 1
171 180 m 0
 150 180 136 154 136 115 c 0
 136 84 147 53 172 53 c 0
 187 53 199 62 202 70 c 0
 205 78 206 86 206 111 c 0
 206 150 194 180 171 180 c 0
EndSplineSet
EndChar

StartChar: period.inferior
Encoding: 63207 63207 320
Width: 214
Flags: HW
HStem: -152 118<64.8672 149.154>
VStem: 53 107<-141.283 -45.8384>
LayerCount: 2
Fore
SplineSet
106 -152 m 0
 76 -152 53 -129 53 -93 c 0
 53 -58 78 -34 107 -34 c 0
 136 -34 160 -56 160 -93 c 0
 160 -129 138 -152 106 -152 c 0
EndSplineSet
EndChar

StartChar: comma.inferior
Encoding: 63201 63201 321
Width: 240
Flags: HW
HStem: -221 176
VStem: 94 93<-102.191 -51>
LayerCount: 2
Fore
SplineSet
111 -215 m 1
 51 -221 l 1
 70 -165 86 -103 94 -51 c 1
 187 -45 l 1
 167 -103 142 -165 111 -215 c 1
EndSplineSet
EndChar

StartChar: cent.inferior
Encoding: 63199 63199 323
Width: 302
Flags: HW
HStem: -91 67<145.084 147 206 238.113>
VStem: 42 94<-15.0574 105.829> 148 59<-152 -92 190.363 269>
LayerCount: 2
Fore
SplineSet
206 -152 m 1
 147 -152 l 1
 147 -91 l 1
 58 -76 42 -28.228515625 42 47 c 0
 42 118 60 174 148 188 c 1
 148 269 l 1
 207 269 l 1
 207 193 l 1
 225 191 251 188 262 182 c 1
 251 102 l 1
 242 107 210.99609375 110.647460938 193 111 c 0
 142 112 136 94 136 48 c 0
 136 3 144 -24 197 -24 c 0
 218 -24 230 -22 238 -18 c 1
 245 -86 l 5
 237 -89 228 -91 206 -92 c 5
 206 -152 l 1
EndSplineSet
EndChar

StartChar: hyphen.inferior
Encoding: 63205 63205 324
Width: 220
Flags: HW
HStem: 10 65<48 172>
VStem: 48 124<10 75>
LayerCount: 2
Fore
SplineSet
48 75 m 1
 172 75 l 1
 172 10 l 1
 48 10 l 1
 48 75 l 1
EndSplineSet
EndChar

StartChar: parenleft.inferior
Encoding: 8333 8333 325
Width: 220
Flags: HW
VStem: 44 73<-105.455 184.635>
LayerCount: 2
Fore
SplineSet
114 283 m 1
 180 283 l 1
 145 228 117 151 117 38 c 0
 117 -70 145 -147 180 -204 c 1
 114 -204 l 1
 80 -158 44 -77 44 38 c 0
 44 155 80 237 114 283 c 1
EndSplineSet
EndChar

StartChar: parenright.inferior
Encoding: 8334 8334 326
Width: 218
Flags: HW
VStem: 103 73<-104.398 185.329>
LayerCount: 2
Fore
SplineSet
106 -204 m 1
 40 -204 l 1
 75 -148 103 -69 103 41 c 0
 103 150 75 227 40 283 c 1
 106 283 l 1
 140 238 176 158 176 40 c 0
 176 -74 140 -157 106 -204 c 1
EndSplineSet
EndChar

StartChar: zero.numerator
Encoding: 63073 63073 327
Width: 342
Flags: HW
HStem: 258 77<148.9 196.43> 581 77<148.92 196.96>
VStem: 42 93<342.202 571.925> 208 93<340.592 575.452>
LayerCount: 2
Fore
SplineSet
172 258 m 0
 74 258 42 359 42 456 c 0
 42 564 81 658 174 658 c 0
 277 658 301 550 301 460 c 0
 301 326 248 258 172 258 c 0
173 335 m 0
 196 335 208 368 208 458 c 0
 208 542 198 581 174 581 c 0
 151 581 135 547 135 458 c 0
 135 368 149 335 173 335 c 0
EndSplineSet
Substitution2: "Single Substitution lookup 21 subtable" zero.denominator
EndChar

StartChar: one.numerator
Encoding: 63074 63074 328
Width: 270
Flags: HW
HStem: 263 21G<127 221> 633 20G<94.4468 221>
VStem: 127 94<263 570>
LayerCount: 2
Fore
SplineSet
221 263 m 1
 127 263 l 1
 127 570 l 1
 125 570 l 1
 55 537 l 1
 37 606 l 1
 137 653 l 1
 221 653 l 1
 221 263 l 1
EndSplineSet
Substitution2: "Single Substitution lookup 21 subtable" one.denominator
EndChar

StartChar: two.numerator
Encoding: 63075 63075 329
Width: 328
Flags: HW
HStem: 263 80<159 285> 579 79<65.1968 172.66>
VStem: 180 101<467.247 571.175>
LayerCount: 2
Fore
SplineSet
42 263 m 1
 42 316 l 1
 88 373 l 2
 140 436 180 481 180 526 c 0
 180 564 159 579 130 579 c 0
 106 579 82 568 66 556 c 1
 47 625 l 1
 67 643 107 658 155 658 c 0
 251 658 281 598 281 545 c 0
 281 472 225 417 176 365 c 2
 159 346 l 1
 159 343 l 1
 285 343 l 1
 285 263 l 1
 42 263 l 1
EndSplineSet
Substitution2: "Single Substitution lookup 21 subtable" two.denominator
EndChar

StartChar: three.numerator
Encoding: 63076 63076 330
Width: 317
Flags: HW
HStem: 258 71<49.696 166.456> 439 62<92 163.631> 587 71<64.7052 167.749>
VStem: 173 92<512.857 581.067> 178 98<340.805 424.277>
LayerCount: 2
Fore
SplineSet
68 569 m 1xf0
 54 635 l 1
 76 647 111 658 148 658 c 0
 232 658 265 609 265 563 c 0xf0
 265 519 240 489 200 472 c 1
 200 470 l 1
 242 462 276 425 276 379 c 0
 276 309 218 258 124 258 c 0
 87 258 58 266 39 277 c 1
 53 346 l 1
 70 337 93 329 120 329 c 0
 153 329 178 351 178 382 c 0xe8
 178 419 146 439 104 439 c 2
 92 439 l 1
 92 501 l 1
 100 501 l 2
 132 501 173 513 173 546 c 0
 173 572 154 587 127 587 c 0
 104 587 87 580 68 569 c 1xf0
EndSplineSet
Substitution2: "Single Substitution lookup 21 subtable" three.denominator
EndChar

StartChar: four.numerator
Encoding: 63077 63077 331
Width: 352
Flags: HW
HStem: 263 21G<187 272> 352 69<117 187 272 314> 634 20G<168.347 272>
VStem: 187 85<263 352 421 557.199>
LayerCount: 2
Fore
SplineSet
272 263 m 1
 187 263 l 1
 187 352 l 1
 39 352 l 1
 39 412 l 1
 180 654 l 1
 272 654 l 1
 272 421 l 1
 314 421 l 1
 314 352 l 1
 272 352 l 1
 272 263 l 1
187 421 m 1
 187 492 l 2
 187 518 189 541 190 558 c 1
 188 558 l 1
 179 539 174 524 163 506 c 2
 117 423 l 1
 117 421 l 1
 187 421 l 1
EndSplineSet
Substitution2: "Single Substitution lookup 21 subtable" four.denominator
EndChar

StartChar: five.numerator
Encoding: 63078 63078 332
Width: 317
Flags: HW
HStem: 258 75<49.9482 170.825> 452 64<141 165.405> 574 79<147 264>
VStem: 182 93<345.461 435.041>
LayerCount: 2
Fore
SplineSet
264 653 m 1
 264 574 l 1
 147 574 l 1
 141 516 l 2
 143 516 153 516 155 516 c 0
 178 516 214 508 238 487 c 0
 262 466 275 436 275 396 c 0
 275 322 221 258 125 258 c 0
 90 258 56 266 39 275 c 1
 53 347 l 1
 69 340 93 333 118 333 c 0
 156 333 182 352 182 389 c 0
 182 435 144 452 91 452 c 0
 78 452 68 451 57 450 c 1
 79 653 l 1
 264 653 l 1
EndSplineSet
Substitution2: "Single Substitution lookup 21 subtable" five.denominator
EndChar

StartChar: six.numerator
Encoding: 63079 63079 333
Width: 340
Flags: HW
HStem: 258 68<144.294 198.14> 457 64<143.259 229.5> 584 74<178.815 264>
VStem: 41 93<333.014 483.96> 207 93<330.524 452.501>
LayerCount: 2
Fore
SplineSet
264 658 m 1
 264 584 l 1
 253 584 242 583 229 581 c 0
 172 573 146 537 135 493 c 1
 137 493 l 1
 153 510 174 521 201 521 c 0
 258 521 300 474 300 398 c 0
 300 328 257 258 175 258 c 0
 90 258 41 325 41 422 c 0
 41 506 70 565 109 602 c 0
 140 632 182 650 222 655 c 0
 242 657 255 658 264 658 c 1
173 326 m 0
 199 326 207 361 207 399 c 0
 207 426 197 457 170 457 c 0
 157 457 144 448 138 433 c 0
 136 428 134 417 134 399 c 0
 134 360 147 326 173 326 c 0
EndSplineSet
Substitution2: "Single Substitution lookup 21 subtable" six.denominator
EndChar

StartChar: seven.numerator
Encoding: 63080 63080 334
Width: 316
Flags: HW
HStem: 263 21G<53 154> 573 80<40 183>
VStem: 40 238<593 653>
LayerCount: 2
Fore
SplineSet
40 653 m 1
 278 653 l 1
 278 593 l 1
 146 263 l 1
 53 263 l 1
 183 571 l 1
 183 573 l 1
 40 573 l 1
 40 653 l 1
EndSplineSet
Substitution2: "Single Substitution lookup 21 subtable" seven.denominator
EndChar

StartChar: eight.numerator
Encoding: 63081 63081 335
Width: 342
Flags: HW
HStem: 258 62<139.834 203.732> 598 60<143.972 200.858>
VStem: 42 89<326.95 425.381> 52 87<512.52 594.652> 206 84<504.937 595.587> 211 90<324.555 419.453>
LayerCount: 2
Fore
SplineSet
176 658 m 0xd0
 243 658 290 618 290 560 c 0xd8
 290 533 279 499 239 475 c 1
 239 474 l 1
 274 457 301 422 301 375 c 0
 301 300 243 258 169 258 c 0
 91 258 42 303 42 367 c 0xe4
 42 413 67 446 101 466 c 1
 101 467 l 1
 67 488 52 521 52 552 c 0
 52 618 107 658 176 658 c 0xd0
173 320 m 0
 198 320 211 343 211 371 c 0
 211 404 187 427 165 435 c 1
 147 425 131 403 131 375 c 0xe4
 131 344 147 320 173 320 c 0
174 598 m 0
 149 598 139 575 139 554 c 0
 139 530 155 512 179 502 c 1
 195 508 206 531 206 551 c 0xd8
 206 573 197 598 174 598 c 0
EndSplineSet
Substitution2: "Single Substitution lookup 21 subtable" eight.denominator
EndChar

StartChar: nine.numerator
Encoding: 63082 63082 336
Width: 335
Flags: HW
HStem: 258 75<72 160.711> 401 62<138.994 197.493> 590 68<139.422 191.977>
VStem: 39 92<467.1 585.31> 201 94<429.619 585.133>
LayerCount: 2
Fore
SplineSet
72 258 m 1
 72 333 l 1
 87 333 96 333 111 335 c 0
 129 338 148 345 163 356 c 0
 181 370 195 395 202 423 c 1
 200 423 l 1
 187 410 168 401 142 401 c 0
 87 401 39 446 39 519 c 0
 39 588 87 658 169 658 c 0
 252 658 295 589 295 494 c 0
 295 406 265 345 227 307 c 0
 198 280 158 263 111 259 c 0
 97 257 84 258 72 258 c 1
166 590 m 0
 145 590 131 564 131 525 c 0
 131 494 142 463 167 463 c 0
 182 463 194 472 197 480 c 0
 200 488 201 496 201 521 c 0
 201 560 189 590 166 590 c 0
EndSplineSet
Substitution2: "Single Substitution lookup 21 subtable" nine.denominator
EndChar

StartChar: period.numerator
Encoding: 63084 63084 337
Width: 201
Flags: HW
HStem: 258 118<58.8672 143.154>
VStem: 47 107<268.717 364.162>
LayerCount: 2
Fore
SplineSet
100 258 m 0
 70 258 47 281 47 317 c 0
 47 352 72 376 101 376 c 0
 130 376 154 354 154 317 c 0
 154 281 132 258 100 258 c 0
EndSplineSet
Substitution2: "Single Substitution lookup 21 subtable" period.denominator
EndChar

StartChar: comma.numerator
Encoding: 63083 63083 338
Width: 220
Flags: HW
HStem: 189 176
VStem: 85 93<307.809 359>
LayerCount: 2
Fore
SplineSet
102 195 m 1
 42 189 l 1
 61 245 77 307 85 359 c 1
 178 365 l 1
 158 307 133 245 102 195 c 1
EndSplineSet
Substitution2: "Single Substitution lookup 21 subtable" comma.denominator
EndChar

StartChar: dollar.numerator
Encoding: 63023 63023 339
Width: 296
Flags: HW
HStem: 211 133<113.234 167.431> 573 125<131.947 180.534>
VStem: 42 89<510.351 570.426> 113 59<211 274.219> 122 59<641.597 698> 169 89<347.563 411.176>
LayerCount: 2
Fore
SplineSet
172 211 m 1xd0
 113 211 l 1
 113 272 l 1xd0
 84 274 57 280 40 288 c 1
 55 362 l 1
 75 351 98 344 126 344 c 0
 154 344 169 356 169 376 c 0
 169 395 160 407 120 429 c 0
 66 459 42 487 42 536 c 0xe4
 42 581 70 620 122 637 c 1
 122 698 l 1
 181 698 l 1
 181 644 l 1xc8
 210 642 231 636 247 628 c 1
 232 557 l 1
 219 564 196 573 173 573 c 0
 141 573 131 559 131 543 c 0
 131 526 137 517 182 493 c 0
 239 463 258 427 258 383 c 0xe4
 258 330 225 290 172 277 c 1
 172 211 l 1xd0
EndSplineSet
Substitution2: "Single Substitution lookup 21 subtable" dollar.denominator
EndChar

StartChar: cent.numerator
Encoding: 63022 63022 340
Width: 293
Flags: HW
HStem: 316 70<203 244.251> 531 128<146.925 203.61>
VStem: 39 94<401.33 518.155> 144 59<258 316 599.933 659>
LayerCount: 2
Fore
SplineSet
203 258 m 1
 144 258 l 1
 144 319 l 1
 112 325 87 340 68 364 c 0
 50 387 39 420 39 457 c 0
 39 528 81 583 145 598 c 1
 145 659 l 1
 204 659 l 1
 204 603 l 1
 222 601 238 598 249 592 c 1
 238 522 l 1
 222 530 208 531 190 531 c 0
 156 531 133 504 133 458 c 0
 133 413 160 386 194 386 c 0
 215 386 229 389 245 395 c 1
 252 325 l 1
 240 320 225 317 203 316 c 1
 203 258 l 1
EndSplineSet
Substitution2: "Single Substitution lookup 21 subtable" cent.denominator
EndChar

StartChar: hyphen.numerator
Encoding: 63024 63024 341
Width: 219
Flags: HW
HStem: 420 65<48 172>
VStem: 48 124<420 485>
LayerCount: 2
Fore
SplineSet
48 485 m 1
 172 485 l 1
 172 420 l 1
 48 420 l 1
 48 485 l 1
EndSplineSet
Substitution2: "Single Substitution lookup 21 subtable" hyphen.denominator
EndChar

StartChar: parenleft.numerator
Encoding: 63025 63025 342
Width: 212
Flags: HW
HStem: 673 20G<94 177>
VStem: 41 73<304.545 594.635>
LayerCount: 2
Fore
SplineSet
111 693 m 1
 177 693 l 1
 142 638 114 561 114 448 c 0
 114 340 142 263 177 206 c 1
 111 206 l 1
 77 252 41 333 41 448 c 0
 41 565 77 647 111 693 c 1
EndSplineSet
Substitution2: "Single Substitution lookup 21 subtable" parenleft.denominator
EndChar

StartChar: parenright.numerator
Encoding: 63026 63026 343
Width: 212
Flags: HW
HStem: 673 20G<36 119>
VStem: 99 73<305.602 595.329>
LayerCount: 2
Fore
SplineSet
102 206 m 1
 36 206 l 1
 71 262 99 341 99 451 c 0
 99 560 71 637 36 693 c 1
 102 693 l 1
 136 648 172 568 172 450 c 0
 172 336 136 253 102 206 c 1
EndSplineSet
Substitution2: "Single Substitution lookup 21 subtable" parenright.denominator
EndChar

StartChar: zero.denominator
Encoding: 63061 63061 344
Width: 347
Flags: HW
HStem: -5 77<150.9 198.43> 318 77<150.92 198.96>
VStem: 44 93<79.2016 308.925> 210 93<77.5922 312.452>
LayerCount: 2
Fore
SplineSet
174 -5 m 0
 76 -5 44 96 44 193 c 0
 44 301 83 395 176 395 c 0
 279 395 303 287 303 197 c 0
 303 63 250 -5 174 -5 c 0
175 72 m 0
 198 72 210 105 210 195 c 0
 210 279 200 318 176 318 c 0
 153 318 137 284 137 195 c 0
 137 105 151 72 175 72 c 0
EndSplineSet
EndChar

StartChar: one.denominator
Encoding: 63062 63062 345
Width: 275
Flags: HW
HStem: 0 21G<131 225>
VStem: 131 94<0 307>
LayerCount: 2
Fore
SplineSet
225 0 m 1
 131 0 l 1
 131 307 l 1
 129 307 l 1
 59 274 l 1
 41 343 l 1
 141 390 l 1
 225 390 l 1
 225 0 l 1
EndSplineSet
EndChar

StartChar: two.denominator
Encoding: 63063 63063 346
Width: 329
Flags: HW
HStem: 0 80<159 285> 316 79<65.1968 172.66>
VStem: 180 101<204.247 308.175>
LayerCount: 2
Fore
SplineSet
42 0 m 1
 42 53 l 1
 88 110 l 2
 140 173 180 218 180 263 c 0
 180 301 159 316 130 316 c 0
 106 316 82 305 66 293 c 1
 47 362 l 1
 67 380 107 395 155 395 c 0
 251 395 281 335 281 282 c 0
 281 209 225 154 176 102 c 2
 159 83 l 1
 159 80 l 1
 285 80 l 1
 285 0 l 1
 42 0 l 1
EndSplineSet
EndChar

StartChar: three.denominator
Encoding: 63064 63064 347
Width: 319
Flags: HW
HStem: -5 71<50.696 167.456> 176 62<93 164.631> 324 71<65.7052 168.749>
VStem: 174 92<249.857 318.067> 179 98<77.8052 161.277>
LayerCount: 2
Fore
SplineSet
69 306 m 1xf0
 55 372 l 1
 77 384 112 395 149 395 c 0
 233 395 266 346 266 300 c 0xf0
 266 256 241 226 201 209 c 1
 201 207 l 1
 243 199 277 162 277 116 c 0
 277 46 219 -5 125 -5 c 0
 88 -5 59 3 40 14 c 1
 54 83 l 1
 71 74 94 66 121 66 c 0
 154 66 179 88 179 119 c 0xe8
 179 156 147 176 105 176 c 2
 93 176 l 1
 93 238 l 1
 101 238 l 2
 133 238 174 250 174 283 c 0
 174 309 155 324 128 324 c 0
 105 324 88 317 69 306 c 1xf0
EndSplineSet
EndChar

StartChar: four.denominator
Encoding: 63065 63065 348
Width: 357
Flags: HW
HStem: 0 21G<190 275> 89 69<120 190 275 317>
VStem: 190 85<0 89 158 294.199>
LayerCount: 2
Fore
SplineSet
275 0 m 1
 190 0 l 1
 190 89 l 1
 42 89 l 1
 42 149 l 1
 183 391 l 1
 275 391 l 1
 275 158 l 1
 317 158 l 1
 317 89 l 1
 275 89 l 1
 275 0 l 1
190 158 m 1
 190 229 l 2
 190 255 192 278 193 295 c 1
 191 295 l 1
 182 276 177 261 166 243 c 2
 120 160 l 1
 120 158 l 1
 190 158 l 1
EndSplineSet
EndChar

